<svg width="103" height="32" viewBox="0 0 103 32" fill="none" xmlns="http://www.w3.org/2000/svg">
<path d="M26.68 31V14.2H29.704V31H26.68ZM37.063 31.192C36.135 31.192 35.319 30.984 34.615 30.568C33.927 30.136 33.391 29.544 33.007 28.792C32.623 28.04 32.431 27.176 32.431 26.2V19.096H35.455V25.96C35.455 26.856 35.671 27.528 36.103 27.976C36.551 28.424 37.183 28.648 37.999 28.648C38.927 28.648 39.647 28.344 40.159 27.736C40.671 27.112 40.927 26.248 40.927 25.144V19.096H43.951V31H40.975V29.44H40.543C40.351 29.84 39.991 30.232 39.463 30.616C38.935 31 38.135 31.192 37.063 31.192ZM46.7881 31V19.096H49.7641V20.392H50.1961C50.4041 19.992 50.7481 19.648 51.2281 19.36C51.7081 19.056 52.3401 18.904 53.1241 18.904C53.9721 18.904 54.6521 19.072 55.1641 19.408C55.6761 19.728 56.0681 20.152 56.3401 20.68H56.7721C57.0441 20.168 57.4281 19.744 57.9241 19.408C58.4201 19.072 59.1241 18.904 60.0361 18.904C60.7721 18.904 61.4361 19.064 62.0281 19.384C62.6361 19.688 63.1161 20.16 63.4681 20.8C63.8361 21.424 64.0201 22.216 64.0201 23.176V31H60.9961V23.392C60.9961 22.736 60.8281 22.248 60.4921 21.928C60.1561 21.592 59.6841 21.424 59.0761 21.424C58.3881 21.424 57.8521 21.648 57.4681 22.096C57.1001 22.528 56.9161 23.152 56.9161 23.968V31H53.8921V23.392C53.8921 22.736 53.7241 22.248 53.3881 21.928C53.0521 21.592 52.5801 21.424 51.9721 21.424C51.2841 21.424 50.7481 21.648 50.3641 22.096C49.9961 22.528 49.8121 23.152 49.8121 23.968V31H46.7881ZM73.8964 31.336C72.8244 31.336 72.0004 31.152 71.4244 30.784C70.8484 30.416 70.4244 30.008 70.1524 29.56H69.7204V31H66.7444V14.2H69.7684V20.464H70.2004C70.3764 20.176 70.6084 19.904 70.8964 19.648C71.2004 19.392 71.5924 19.184 72.0724 19.024C72.5684 18.848 73.1764 18.76 73.8964 18.76C74.8564 18.76 75.7444 19 76.5604 19.48C77.3764 19.944 78.0324 20.632 78.5284 21.544C79.0244 22.456 79.2724 23.56 79.2724 24.856V25.24C79.2724 26.536 79.0244 27.64 78.5284 28.552C78.0324 29.464 77.3764 30.16 76.5604 30.64C75.7444 31.104 74.8564 31.336 73.8964 31.336ZM72.9844 28.696C73.9124 28.696 74.6884 28.4 75.3124 27.808C75.9364 27.2 76.2484 26.32 76.2484 25.168V24.928C76.2484 23.776 75.9364 22.904 75.3124 22.312C74.7044 21.704 73.9284 21.4 72.9844 21.4C72.0564 21.4 71.2804 21.704 70.6564 22.312C70.0324 22.904 69.7204 23.776 69.7204 24.928V25.168C69.7204 26.32 70.0324 27.2 70.6564 27.808C71.2804 28.4 72.0564 28.696 72.9844 28.696ZM86.9451 31.336C85.7611 31.336 84.7131 31.088 83.8011 30.592C82.9051 30.08 82.2011 29.368 81.6891 28.456C81.1931 27.528 80.9451 26.44 80.9451 25.192V24.904C80.9451 23.656 81.1931 22.576 81.6891 21.664C82.1851 20.736 82.8811 20.024 83.7771 19.528C84.6731 19.016 85.7131 18.76 86.8971 18.76C88.0651 18.76 89.0811 19.024 89.9451 19.552C90.8091 20.064 91.4811 20.784 91.9611 21.712C92.4411 22.624 92.6811 23.688 92.6811 24.904V25.936H84.0171C84.0491 26.752 84.3531 27.416 84.9291 27.928C85.5051 28.44 86.2091 28.696 87.0411 28.696C87.8891 28.696 88.5131 28.512 88.9131 28.144C89.3131 27.776 89.6171 27.368 89.8251 26.92L92.2971 28.216C92.0731 28.632 91.7451 29.088 91.3131 29.584C90.8971 30.064 90.3371 30.48 89.6331 30.832C88.9291 31.168 88.0331 31.336 86.9451 31.336ZM84.0411 23.68H89.6091C89.5451 22.992 89.2651 22.44 88.7691 22.024C88.2891 21.608 87.6571 21.4 86.8731 21.4C86.0571 21.4 85.4091 21.608 84.9291 22.024C84.4491 22.44 84.1531 22.992 84.0411 23.68ZM94.8447 31V19.096H97.8207V20.44H98.2527C98.4287 19.96 98.7167 19.608 99.1167 19.384C99.5327 19.16 100.013 19.048 100.557 19.048H101.997V21.736H100.509C99.7407 21.736 99.1087 21.944 98.6127 22.36C98.1167 22.76 97.8687 23.384 97.8687 24.232V31H94.8447Z" fill="black"/>
<path d="M0 0H12.7179V6.35897H0V0Z" fill="#CF1A68"/>
<path d="M0 19.5671C0 15.6673 3.16137 12.506 7.06111 12.506L12.6738 12.506V18.3281H10.4084C9.02347 18.3281 7.81581 19.0871 7.17866 20.2118L7.06111 20.437C6.829 20.9216 6.699 21.4644 6.699 22.0375V31H0V19.5671Z" fill="#CF1A68"/>
<path d="M15.4642 0.0132608C20.4639 0.0132608 24.5169 4.14799 24.5169 9.14765C24.5169 14.1473 20.4639 18.2821 15.4642 18.2821V12.6187H15.6175C17.3327 12.6187 18.7232 11.2283 18.7232 9.51302C18.7232 7.71314 17.2641 6.22464 15.4642 6.22464V0.0132608Z" fill="#CF1A68"/>
</svg>
