<svg width="38" height="47" viewBox="0 0 38 47" fill="none" xmlns="http://www.w3.org/2000/svg">
<path d="M0 0H22.6035V9.64103H0V0Z" fill="#CF1A68"/>
<path d="M2.62069 29.6662C2.62069 23.7537 7.58792 18.9607 13.7153 18.9607L22.5341 18.9607V27.7878H18.9747C16.7986 27.7878 14.9011 28.9385 13.9 30.6437L13.7729 30.8438L13.7153 30.9852C13.3506 31.7198 13.1464 32.5428 13.1464 33.4118V47H2.62069V29.6662Z" fill="#CF1A68"/>
<path d="M23.7761 0.0201051C31.6317 0.0201051 38 6.28888 38 13.869C38 21.4492 31.6317 27.718 23.7761 27.718V19.1316H24.0169C26.712 19.1316 28.8967 17.0235 28.8967 14.423C28.8967 11.6941 26.6041 9.43736 23.7761 9.43736V0.0201051Z" fill="#CF1A68"/>
</svg>
