<svg width="326" height="314" viewBox="0 0 326 314" fill="none" xmlns="http://www.w3.org/2000/svg">
<line x1="165.8" y1="57" x2="165.8" y2="92" stroke="#E886AE" stroke-width="3.6"/>
<line x1="165.8" y1="140" x2="165.8" y2="171.2" stroke="#E886AE" stroke-width="3.6"/>
<rect x="0.800049" width="325.2" height="56.52" rx="5.42" fill="#CF1A68"/>
<path d="M20.3241 36.26L17.8521 19.46H20.4441L22.4601 34.508H22.8441L25.4361 19.46H29.9721L32.5641 34.508H32.9481L34.9401 19.46H37.5321L35.0601 36.26H30.5241L27.8841 20.996H27.5001L24.8841 36.26H20.3241ZM42.0133 36.26V19.46H44.6053V26.66H51.6613V19.46H54.2533V36.26H51.6613V29.012H44.6053V36.26H42.0133ZM59.6833 36.26V19.46H70.2673V21.812H62.2753V26.636H69.5953V28.988H62.2753V33.908H70.3873V36.26H59.6833ZM75.0096 36.26V19.46H80.0016L84.5616 34.532H84.9456V19.46H87.5136V36.26H82.5216L77.9616 21.164H77.5776V36.26H75.0096Z" fill="white"/>
<path d="M115.517 22.947V33.26H114.087L108.845 25.6965H108.749V33.26H107.193V22.947H108.633L113.88 30.5206H113.976V22.947H115.517ZM120.914 33.4161C120.152 33.4161 119.496 33.2533 118.946 32.9277C118.398 32.5987 117.975 32.1371 117.677 31.5429C117.381 30.9453 117.233 30.2453 117.233 29.443C117.233 28.6507 117.381 27.9524 117.677 27.3482C117.975 26.7439 118.392 26.2722 118.925 25.9332C119.463 25.5941 120.09 25.4246 120.809 25.4246C121.245 25.4246 121.668 25.4967 122.078 25.6411C122.487 25.7854 122.855 26.0121 123.18 26.3209C123.506 26.6298 123.763 27.0309 123.951 27.5244C124.139 28.0146 124.233 28.6104 124.233 29.3121V29.8458H118.084V28.7179H122.757C122.757 28.3217 122.677 27.9709 122.516 27.6654C122.355 27.3566 122.128 27.1132 121.836 26.9353C121.547 26.7573 121.208 26.6684 120.819 26.6684C120.396 26.6684 120.026 26.7724 119.711 26.9806C119.399 27.1854 119.157 27.4539 118.986 27.7863C118.818 28.1153 118.734 28.4728 118.734 28.8589V29.7401C118.734 30.2571 118.825 30.6969 119.006 31.0594C119.191 31.422 119.447 31.699 119.776 31.8903C120.105 32.0783 120.49 32.1723 120.93 32.1723C121.215 32.1723 121.475 32.132 121.71 32.0515C121.945 31.9675 122.148 31.8433 122.319 31.6788C122.491 31.5143 122.622 31.3112 122.712 31.0695L124.137 31.3263C124.023 31.746 123.818 32.1136 123.523 32.4291C123.231 32.7413 122.863 32.9847 122.42 33.1593C121.98 33.3305 121.478 33.4161 120.914 33.4161ZM127.481 33.26L125.205 25.5253H126.761L128.277 31.2055H128.353L129.873 25.5253H131.429L132.94 31.1803H133.016L134.521 25.5253H136.077L133.806 33.26H132.27L130.699 27.6755H130.583L129.012 33.26H127.481ZM144.77 25.5253V26.7338H140.399V25.5253H144.77ZM141.597 33.26V24.6289C141.597 24.1455 141.703 23.7443 141.915 23.4254C142.126 23.1031 142.406 22.8631 142.756 22.7053C143.105 22.5442 143.484 22.4636 143.894 22.4636C144.196 22.4636 144.454 22.4888 144.669 22.5391C144.884 22.5861 145.043 22.6298 145.147 22.6701L144.795 23.8887C144.725 23.8685 144.634 23.845 144.523 23.8182C144.412 23.788 144.278 23.7729 144.12 23.7729C143.754 23.7729 143.492 23.8635 143.335 24.0448C143.18 24.2261 143.103 24.4879 143.103 24.8304V33.26H141.597ZM149.192 33.4161C148.467 33.4161 147.834 33.2499 147.293 32.9176C146.753 32.5852 146.333 32.1203 146.034 31.5227C145.736 30.9252 145.586 30.2269 145.586 29.4279C145.586 28.6255 145.736 27.9239 146.034 27.323C146.333 26.7221 146.753 26.2554 147.293 25.9231C147.834 25.5907 148.467 25.4246 149.192 25.4246C149.917 25.4246 150.55 25.5907 151.09 25.9231C151.631 26.2554 152.05 26.7221 152.349 27.323C152.648 27.9239 152.797 28.6255 152.797 29.4279C152.797 30.2269 152.648 30.9252 152.349 31.5227C152.05 32.1203 151.631 32.5852 151.09 32.9176C150.55 33.2499 149.917 33.4161 149.192 33.4161ZM149.197 32.1522C149.667 32.1522 150.056 32.028 150.365 31.7795C150.674 31.5311 150.902 31.2004 151.05 30.7875C151.201 30.3746 151.276 29.9197 151.276 29.4229C151.276 28.9294 151.201 28.4762 151.05 28.0632C150.902 27.647 150.674 27.3129 150.365 27.0611C150.056 26.8094 149.667 26.6835 149.197 26.6835C148.723 26.6835 148.331 26.8094 148.018 27.0611C147.709 27.3129 147.48 27.647 147.328 28.0632C147.181 28.4762 147.107 28.9294 147.107 29.4229C147.107 29.9197 147.181 30.3746 147.328 30.7875C147.48 31.2004 147.709 31.5311 148.018 31.7795C148.331 32.028 148.723 32.1522 149.197 32.1522ZM154.393 33.26V25.5253H155.848V26.754H155.929C156.07 26.3377 156.318 26.0104 156.674 25.772C157.033 25.5303 157.439 25.4095 157.892 25.4095C157.986 25.4095 158.097 25.4128 158.225 25.4195C158.356 25.4262 158.458 25.4346 158.532 25.4447V26.8849C158.472 26.8681 158.364 26.8496 158.21 26.8295C158.055 26.806 157.901 26.7943 157.746 26.7943C157.391 26.7943 157.073 26.8698 156.795 27.0209C156.519 27.1686 156.301 27.375 156.14 27.6402C155.979 27.9021 155.898 28.2009 155.898 28.5366V33.26H154.393ZM159.75 33.26V25.5253H161.195V26.7842H161.291C161.452 26.3578 161.715 26.0255 162.081 25.7871C162.447 25.5454 162.885 25.4246 163.396 25.4246C163.913 25.4246 164.346 25.5454 164.695 25.7871C165.047 26.0288 165.308 26.3612 165.475 26.7842H165.556C165.741 26.3713 166.034 26.0423 166.437 25.7972C166.84 25.5488 167.32 25.4246 167.877 25.4246C168.579 25.4246 169.151 25.6445 169.595 26.0842C170.041 26.524 170.264 27.187 170.264 28.0733V33.26H168.759V28.2143C168.759 27.6906 168.616 27.3112 168.331 27.0762C168.045 26.8413 167.705 26.7238 167.308 26.7238C166.818 26.7238 166.437 26.8748 166.165 27.177C165.893 27.4757 165.757 27.8601 165.757 28.3301V33.26H164.257V28.1186C164.257 27.699 164.126 27.3616 163.864 27.1065C163.602 26.8513 163.261 26.7238 162.842 26.7238C162.556 26.7238 162.293 26.7993 162.051 26.9504C161.813 27.0981 161.62 27.3045 161.472 27.5697C161.328 27.835 161.256 28.1421 161.256 28.4913V33.26H159.75ZM181.661 27.4136L180.296 27.6553C180.239 27.4808 180.149 27.3146 180.024 27.1568C179.904 26.999 179.739 26.8698 179.531 26.7691C179.323 26.6684 179.063 26.618 178.75 26.618C178.324 26.618 177.968 26.7137 177.683 26.905C177.397 27.093 177.255 27.3364 177.255 27.6352C177.255 27.8937 177.35 28.1018 177.542 28.2596C177.733 28.4174 178.042 28.5467 178.468 28.6474L179.697 28.9294C180.409 29.0939 180.939 29.3473 181.288 29.6897C181.637 30.0322 181.812 30.477 181.812 31.0242C181.812 31.4875 181.678 31.9004 181.409 32.263C181.144 32.6222 180.773 32.9042 180.296 33.1089C179.823 33.3137 179.274 33.4161 178.65 33.4161C177.784 33.4161 177.077 33.2315 176.53 32.8622C175.982 32.4896 175.647 31.9608 175.523 31.276L176.978 31.0544C177.068 31.4338 177.255 31.7208 177.537 31.9155C177.819 32.1068 178.186 32.2025 178.64 32.2025C179.133 32.2025 179.528 32.1001 179.823 31.8954C180.118 31.6872 180.266 31.4338 180.266 31.135C180.266 30.8933 180.175 30.6902 179.994 30.5257C179.816 30.3612 179.543 30.2369 179.173 30.153L177.864 29.866C177.142 29.7015 176.609 29.4396 176.263 29.0804C175.92 28.7212 175.749 28.2663 175.749 27.7158C175.749 27.2592 175.877 26.8597 176.132 26.5173C176.387 26.1749 176.739 25.908 177.189 25.7166C177.639 25.5219 178.155 25.4246 178.735 25.4246C179.571 25.4246 180.229 25.6058 180.709 25.9684C181.189 26.3276 181.507 26.8094 181.661 27.4136ZM188.282 30.0523V25.5253H189.793V33.26H188.312V31.9205H188.232C188.054 32.3335 187.768 32.6776 187.376 32.9528C186.986 33.2248 186.501 33.3607 185.92 33.3607C185.424 33.3607 184.984 33.2516 184.601 33.0334C184.222 32.8118 183.923 32.4845 183.705 32.0515C183.49 31.6184 183.382 31.0829 183.382 30.4451V25.5253H184.888V30.2638C184.888 30.7909 185.034 31.2105 185.326 31.5227C185.618 31.8349 185.998 31.991 186.464 31.991C186.746 31.991 187.027 31.9205 187.305 31.7795C187.587 31.6385 187.821 31.4254 188.005 31.14C188.193 30.8547 188.285 30.4921 188.282 30.0523ZM191.852 33.26V22.947H193.357V26.7791H193.448C193.535 26.618 193.661 26.4317 193.826 26.2202C193.99 26.0087 194.218 25.8241 194.51 25.6663C194.803 25.5051 195.189 25.4246 195.669 25.4246C196.293 25.4246 196.85 25.5823 197.34 25.8979C197.831 26.2135 198.215 26.6684 198.494 27.2626C198.776 27.8568 198.917 28.5718 198.917 29.4077C198.917 30.2437 198.777 30.9604 198.499 31.558C198.22 32.1522 197.837 32.6104 197.351 32.9327C196.864 33.2516 196.308 33.4111 195.684 33.4111C195.214 33.4111 194.829 33.3322 194.531 33.1744C194.235 33.0166 194.004 32.832 193.836 32.6205C193.668 32.409 193.539 32.221 193.448 32.0565H193.322V33.26H191.852ZM193.327 29.3926C193.327 29.9365 193.406 30.4132 193.564 30.8228C193.722 31.2323 193.95 31.5529 194.249 31.7846C194.547 32.0129 194.913 32.127 195.346 32.127C195.796 32.127 196.172 32.0078 196.474 31.7695C196.776 31.5278 197.005 31.2004 197.159 30.7875C197.317 30.3746 197.396 29.9096 197.396 29.3926C197.396 28.8824 197.319 28.4241 197.164 28.0179C197.013 27.6117 196.785 27.2911 196.479 27.0561C196.177 26.8211 195.8 26.7036 195.346 26.7036C194.91 26.7036 194.541 26.8161 194.239 27.041C193.94 27.2659 193.713 27.5798 193.559 27.9827C193.404 28.3855 193.327 28.8555 193.327 29.3926ZM200.522 33.26V25.5253H201.967V26.7842H202.063C202.224 26.3578 202.488 26.0255 202.854 25.7871C203.22 25.5454 203.658 25.4246 204.168 25.4246C204.685 25.4246 205.118 25.5454 205.467 25.7871C205.82 26.0288 206.08 26.3612 206.248 26.7842H206.328C206.513 26.3713 206.807 26.0423 207.21 25.7972C207.612 25.5488 208.093 25.4246 208.65 25.4246C209.351 25.4246 209.924 25.6445 210.367 26.0842C210.813 26.524 211.037 27.187 211.037 28.0733V33.26H209.531V28.2143C209.531 27.6906 209.388 27.3112 209.103 27.0762C208.818 26.8413 208.477 26.7238 208.081 26.7238C207.591 26.7238 207.21 26.8748 206.938 27.177C206.666 27.4757 206.53 27.8601 206.53 28.3301V33.26H205.029V28.1186C205.029 27.699 204.898 27.3616 204.636 27.1065C204.375 26.8513 204.034 26.7238 203.614 26.7238C203.329 26.7238 203.065 26.7993 202.824 26.9504C202.585 27.0981 202.392 27.3045 202.244 27.5697C202.1 27.835 202.028 28.1421 202.028 28.4913V33.26H200.522ZM212.97 33.26V25.5253H214.475V33.26H212.97ZM213.73 24.3318C213.468 24.3318 213.243 24.2445 213.055 24.07C212.871 23.892 212.778 23.6806 212.778 23.4355C212.778 23.1871 212.871 22.9756 213.055 22.801C213.243 22.6231 213.468 22.5341 213.73 22.5341C213.992 22.5341 214.215 22.6231 214.4 22.801C214.588 22.9756 214.682 23.1871 214.682 23.4355C214.682 23.6806 214.588 23.892 214.4 24.07C214.215 24.2445 213.992 24.3318 213.73 24.3318ZM222.212 27.4136L220.847 27.6553C220.79 27.4808 220.699 27.3146 220.575 27.1568C220.454 26.999 220.29 26.8698 220.082 26.7691C219.874 26.6684 219.613 26.618 219.301 26.618C218.875 26.618 218.519 26.7137 218.234 26.905C217.948 27.093 217.806 27.3364 217.806 27.6352C217.806 27.8937 217.901 28.1018 218.093 28.2596C218.284 28.4174 218.593 28.5467 219.019 28.6474L220.248 28.9294C220.96 29.0939 221.49 29.3473 221.839 29.6897C222.188 30.0322 222.363 30.477 222.363 31.0242C222.363 31.4875 222.229 31.9004 221.96 32.263C221.695 32.6222 221.324 32.9042 220.847 33.1089C220.374 33.3137 219.825 33.4161 219.2 33.4161C218.334 33.4161 217.628 33.2315 217.08 32.8622C216.533 32.4896 216.198 31.9608 216.073 31.276L217.529 31.0544C217.619 31.4338 217.806 31.7208 218.088 31.9155C218.37 32.1068 218.737 32.2025 219.19 32.2025C219.684 32.2025 220.078 32.1001 220.374 31.8954C220.669 31.6872 220.817 31.4338 220.817 31.135C220.817 30.8933 220.726 30.6902 220.545 30.5257C220.367 30.3612 220.093 30.2369 219.724 30.153L218.415 29.866C217.693 29.7015 217.159 29.4396 216.814 29.0804C216.471 28.7212 216.3 28.2663 216.3 27.7158C216.3 27.2592 216.428 26.8597 216.683 26.5173C216.938 26.1749 217.29 25.908 217.74 25.7166C218.19 25.5219 218.705 25.4246 219.286 25.4246C220.122 25.4246 220.78 25.6058 221.26 25.9684C221.74 26.3276 222.057 26.8094 222.212 27.4136ZM229.729 27.4136L228.365 27.6553C228.308 27.4808 228.217 27.3146 228.093 27.1568C227.972 26.999 227.807 26.8698 227.599 26.7691C227.391 26.6684 227.131 26.618 226.819 26.618C226.392 26.618 226.036 26.7137 225.751 26.905C225.466 27.093 225.323 27.3364 225.323 27.6352C225.323 27.8937 225.419 28.1018 225.61 28.2596C225.801 28.4174 226.11 28.5467 226.537 28.6474L227.765 28.9294C228.477 29.0939 229.007 29.3473 229.357 29.6897C229.706 30.0322 229.88 30.477 229.88 31.0242C229.88 31.4875 229.746 31.9004 229.477 32.263C229.212 32.6222 228.841 32.9042 228.365 33.1089C227.891 33.3137 227.342 33.4161 226.718 33.4161C225.852 33.4161 225.145 33.2315 224.598 32.8622C224.051 32.4896 223.715 31.9608 223.591 31.276L225.046 31.0544C225.137 31.4338 225.323 31.7208 225.605 31.9155C225.887 32.1068 226.255 32.2025 226.708 32.2025C227.201 32.2025 227.596 32.1001 227.891 31.8954C228.187 31.6872 228.334 31.4338 228.334 31.135C228.334 30.8933 228.244 30.6902 228.062 30.5257C227.885 30.3612 227.611 30.2369 227.242 30.153L225.932 29.866C225.211 29.7015 224.677 29.4396 224.331 29.0804C223.989 28.7212 223.817 28.2663 223.817 27.7158C223.817 27.2592 223.945 26.8597 224.2 26.5173C224.455 26.1749 224.808 25.908 225.258 25.7166C225.707 25.5219 226.223 25.4246 226.804 25.4246C227.639 25.4246 228.297 25.6058 228.778 25.9684C229.258 26.3276 229.575 26.8094 229.729 27.4136ZM231.451 33.26V25.5253H232.956V33.26H231.451ZM232.211 24.3318C231.949 24.3318 231.724 24.2445 231.536 24.07C231.352 23.892 231.259 23.6806 231.259 23.4355C231.259 23.1871 231.352 22.9756 231.536 22.801C231.724 22.6231 231.949 22.5341 232.211 22.5341C232.473 22.5341 232.696 22.6231 232.881 22.801C233.069 22.9756 233.163 23.1871 233.163 23.4355C233.163 23.6806 233.069 23.892 232.881 24.07C232.696 24.2445 232.473 24.3318 232.211 24.3318ZM238.155 33.4161C237.43 33.4161 236.797 33.2499 236.257 32.9176C235.716 32.5852 235.296 32.1203 234.998 31.5227C234.699 30.9252 234.549 30.2269 234.549 29.4279C234.549 28.6255 234.699 27.9239 234.998 27.323C235.296 26.7221 235.716 26.2554 236.257 25.9231C236.797 25.5907 237.43 25.4246 238.155 25.4246C238.88 25.4246 239.513 25.5907 240.053 25.9231C240.594 26.2554 241.014 26.7221 241.312 27.323C241.611 27.9239 241.76 28.6255 241.76 29.4279C241.76 30.2269 241.611 30.9252 241.312 31.5227C241.014 32.1203 240.594 32.5852 240.053 32.9176C239.513 33.2499 238.88 33.4161 238.155 33.4161ZM238.16 32.1522C238.63 32.1522 239.019 32.028 239.328 31.7795C239.637 31.5311 239.865 31.2004 240.013 30.7875C240.164 30.3746 240.24 29.9197 240.24 29.4229C240.24 28.9294 240.164 28.4762 240.013 28.0632C239.865 27.647 239.637 27.3129 239.328 27.0611C239.019 26.8094 238.63 26.6835 238.16 26.6835C237.687 26.6835 237.294 26.8094 236.982 27.0611C236.673 27.3129 236.443 27.647 236.292 28.0632C236.144 28.4762 236.07 28.9294 236.07 29.4229C236.07 29.9197 236.144 30.3746 236.292 30.7875C236.443 31.2004 236.673 31.5311 236.982 31.7795C237.294 32.028 237.687 32.1522 238.16 32.1522ZM244.862 28.6675V33.26H243.356V25.5253H244.801V26.7842H244.897C245.075 26.3746 245.353 26.0456 245.733 25.7972C246.116 25.5488 246.597 25.4246 247.178 25.4246C247.705 25.4246 248.167 25.5353 248.563 25.7569C248.959 25.9751 249.266 26.3008 249.484 26.7338C249.703 27.1669 249.812 27.7023 249.812 28.3402V33.26H248.306V28.5215C248.306 27.9608 248.16 27.5227 247.868 27.2072C247.576 26.8883 247.175 26.7288 246.664 26.7288C246.315 26.7288 246.005 26.8043 245.733 26.9554C245.464 27.1065 245.251 27.328 245.093 27.6201C244.939 27.9088 244.862 28.2579 244.862 28.6675Z" fill="white"/>
<rect x="0.800049" y="83.3418" width="325.2" height="56.52" rx="5.42" fill="#CF1A68"/>
<path d="M22.8201 119.602V105.154H17.6601V102.802H30.5721V105.154H25.4121V119.602H22.8201ZM34.8414 119.602V102.802H37.4334V110.002H44.4894V102.802H47.0814V119.602H44.4894V112.354H37.4334V119.602H34.8414ZM52.5114 119.602V102.802H63.0954V105.154H55.1034V109.978H62.4234V112.33H55.1034V117.25H63.2154V119.602H52.5114ZM67.8377 119.602V102.802H72.8297L77.3897 117.874H77.7737V102.802H80.3417V119.602H75.3497L70.7897 104.506H70.4057V119.602H67.8377Z" fill="white"/>
<path d="M112.818 108.998C112.764 108.521 112.543 108.152 112.153 107.89C111.764 107.625 111.274 107.492 110.683 107.492C110.26 107.492 109.894 107.559 109.585 107.694C109.276 107.825 109.036 108.006 108.865 108.238C108.697 108.466 108.613 108.726 108.613 109.018C108.613 109.263 108.67 109.475 108.784 109.653C108.902 109.831 109.055 109.98 109.243 110.101C109.434 110.218 109.639 110.317 109.857 110.398C110.075 110.475 110.285 110.539 110.486 110.589L111.494 110.851C111.823 110.932 112.16 111.041 112.506 111.178C112.851 111.316 113.172 111.497 113.467 111.722C113.763 111.947 114.001 112.226 114.183 112.558C114.367 112.891 114.459 113.288 114.459 113.752C114.459 114.336 114.308 114.854 114.006 115.308C113.708 115.761 113.273 116.118 112.702 116.38C112.135 116.642 111.448 116.773 110.642 116.773C109.87 116.773 109.202 116.65 108.638 116.405C108.074 116.16 107.633 115.813 107.314 115.363C106.995 114.91 106.819 114.373 106.785 113.752H108.346C108.376 114.124 108.497 114.435 108.709 114.683C108.924 114.928 109.197 115.111 109.53 115.232C109.865 115.35 110.233 115.408 110.632 115.408C111.072 115.408 111.463 115.34 111.806 115.202C112.151 115.061 112.423 114.866 112.621 114.618C112.82 114.366 112.919 114.072 112.919 113.737C112.919 113.431 112.831 113.181 112.657 112.986C112.486 112.792 112.252 112.63 111.957 112.503C111.665 112.375 111.334 112.263 110.965 112.165L109.746 111.833C108.92 111.608 108.266 111.277 107.782 110.841C107.302 110.405 107.062 109.827 107.062 109.109C107.062 108.515 107.223 107.996 107.546 107.553C107.868 107.11 108.304 106.766 108.855 106.52C109.405 106.272 110.026 106.148 110.718 106.148C111.416 106.148 112.032 106.27 112.566 106.515C113.103 106.76 113.526 107.098 113.835 107.528C114.144 107.954 114.305 108.444 114.319 108.998H112.818ZM119.724 108.867V110.076H115.499V108.867H119.724ZM116.632 107.014H118.137V114.331C118.137 114.623 118.181 114.843 118.268 114.99C118.356 115.135 118.468 115.234 118.606 115.288C118.747 115.338 118.899 115.363 119.064 115.363C119.185 115.363 119.29 115.355 119.381 115.338C119.472 115.321 119.542 115.308 119.593 115.298L119.865 116.541C119.777 116.575 119.653 116.609 119.492 116.642C119.331 116.679 119.129 116.699 118.888 116.703C118.491 116.709 118.122 116.639 117.78 116.491C117.437 116.343 117.16 116.115 116.949 115.806C116.737 115.497 116.632 115.11 116.632 114.643V107.014ZM124.479 116.758C123.754 116.758 123.121 116.592 122.581 116.259C122.04 115.927 121.62 115.462 121.322 114.865C121.023 114.267 120.873 113.569 120.873 112.77C120.873 111.967 121.023 111.266 121.322 110.665C121.62 110.064 122.04 109.597 122.581 109.265C123.121 108.933 123.754 108.766 124.479 108.766C125.204 108.766 125.837 108.933 126.377 109.265C126.918 109.597 127.338 110.064 127.636 110.665C127.935 111.266 128.084 111.967 128.084 112.77C128.084 113.569 127.935 114.267 127.636 114.865C127.338 115.462 126.918 115.927 126.377 116.259C125.837 116.592 125.204 116.758 124.479 116.758ZM124.484 115.494C124.954 115.494 125.343 115.37 125.652 115.121C125.961 114.873 126.189 114.542 126.337 114.129C126.488 113.716 126.564 113.262 126.564 112.765C126.564 112.271 126.488 111.818 126.337 111.405C126.189 110.989 125.961 110.655 125.652 110.403C125.343 110.151 124.954 110.025 124.484 110.025C124.011 110.025 123.618 110.151 123.306 110.403C122.997 110.655 122.767 110.989 122.616 111.405C122.468 111.818 122.394 112.271 122.394 112.765C122.394 113.262 122.468 113.716 122.616 114.129C122.767 114.542 122.997 114.873 123.306 115.121C123.618 115.37 124.011 115.494 124.484 115.494ZM129.68 116.602V108.867H131.135V110.096H131.216C131.357 109.679 131.605 109.352 131.961 109.114C132.32 108.872 132.727 108.751 133.18 108.751C133.274 108.751 133.385 108.755 133.512 108.761C133.643 108.768 133.745 108.776 133.819 108.787V110.227C133.759 110.21 133.651 110.191 133.497 110.171C133.343 110.148 133.188 110.136 133.034 110.136C132.678 110.136 132.361 110.212 132.082 110.363C131.807 110.51 131.589 110.717 131.427 110.982C131.266 111.244 131.186 111.543 131.186 111.878V116.602H129.68ZM138.094 116.758C137.332 116.758 136.675 116.595 136.125 116.269C135.578 115.94 135.155 115.479 134.856 114.885C134.56 114.287 134.413 113.587 134.413 112.785C134.413 111.993 134.56 111.294 134.856 110.69C135.155 110.086 135.571 109.614 136.105 109.275C136.642 108.936 137.27 108.766 137.988 108.766C138.425 108.766 138.847 108.839 139.257 108.983C139.667 109.127 140.034 109.354 140.36 109.663C140.686 109.972 140.942 110.373 141.13 110.866C141.318 111.356 141.412 111.952 141.412 112.654V113.188H135.264V112.06H139.937C139.937 111.664 139.856 111.313 139.695 111.007C139.534 110.698 139.307 110.455 139.015 110.277C138.727 110.099 138.388 110.01 137.998 110.01C137.575 110.01 137.206 110.114 136.89 110.322C136.578 110.527 136.336 110.796 136.165 111.128C135.997 111.457 135.913 111.815 135.913 112.201V113.082C135.913 113.599 136.004 114.039 136.185 114.401C136.37 114.764 136.627 115.041 136.956 115.232C137.285 115.42 137.669 115.514 138.109 115.514C138.394 115.514 138.654 115.474 138.889 115.393C139.124 115.309 139.328 115.185 139.499 115.021C139.67 114.856 139.801 114.653 139.892 114.411L141.317 114.668C141.202 115.088 140.998 115.455 140.702 115.771C140.41 116.083 140.043 116.327 139.599 116.501C139.16 116.672 138.658 116.758 138.094 116.758ZM149.561 116.753C148.937 116.753 148.379 116.593 147.889 116.274C147.402 115.952 147.02 115.494 146.741 114.9C146.466 114.302 146.328 113.585 146.328 112.75C146.328 111.914 146.467 111.199 146.746 110.604C147.028 110.01 147.414 109.555 147.904 109.24C148.394 108.924 148.95 108.766 149.571 108.766C150.051 108.766 150.437 108.847 150.729 109.008C151.025 109.166 151.253 109.35 151.414 109.562C151.579 109.773 151.706 109.96 151.797 110.121H151.887V106.289H153.393V116.602H151.923V115.398H151.797C151.706 115.563 151.575 115.751 151.404 115.962C151.236 116.174 151.005 116.358 150.709 116.516C150.414 116.674 150.031 116.753 149.561 116.753ZM149.893 115.469C150.326 115.469 150.692 115.355 150.991 115.126C151.293 114.895 151.522 114.574 151.676 114.165C151.834 113.755 151.913 113.278 151.913 112.734C151.913 112.197 151.835 111.727 151.681 111.324C151.527 110.922 151.3 110.608 151.001 110.383C150.702 110.158 150.333 110.045 149.893 110.045C149.44 110.045 149.062 110.163 148.76 110.398C148.458 110.633 148.23 110.954 148.076 111.36C147.924 111.766 147.849 112.224 147.849 112.734C147.849 113.251 147.926 113.716 148.081 114.129C148.235 114.542 148.463 114.87 148.765 115.111C149.071 115.35 149.447 115.469 149.893 115.469ZM157.708 116.773C157.218 116.773 156.775 116.682 156.379 116.501C155.982 116.316 155.669 116.05 155.437 115.7C155.209 115.351 155.094 114.923 155.094 114.416C155.094 113.98 155.178 113.621 155.346 113.339C155.514 113.057 155.741 112.833 156.026 112.669C156.311 112.504 156.63 112.38 156.983 112.296C157.335 112.212 157.695 112.149 158.06 112.105C158.524 112.051 158.9 112.008 159.188 111.974C159.477 111.937 159.687 111.878 159.818 111.798C159.949 111.717 160.014 111.586 160.014 111.405V111.37C160.014 110.93 159.89 110.589 159.642 110.348C159.397 110.106 159.031 109.985 158.544 109.985C158.037 109.985 157.637 110.097 157.345 110.322C157.057 110.544 156.857 110.791 156.746 111.063L155.331 110.74C155.499 110.27 155.744 109.891 156.066 109.602C156.392 109.31 156.766 109.099 157.189 108.968C157.612 108.833 158.057 108.766 158.524 108.766C158.833 108.766 159.16 108.803 159.506 108.877C159.855 108.948 160.18 109.079 160.483 109.27C160.788 109.461 161.038 109.735 161.233 110.091C161.428 110.443 161.525 110.901 161.525 111.465V116.602H160.055V115.544H159.994C159.897 115.739 159.751 115.93 159.556 116.118C159.361 116.306 159.111 116.462 158.806 116.587C158.5 116.711 158.134 116.773 157.708 116.773ZM158.035 115.564C158.452 115.564 158.807 115.482 159.103 115.318C159.402 115.153 159.628 114.938 159.783 114.673C159.94 114.405 160.019 114.118 160.019 113.812V112.815C159.966 112.869 159.862 112.919 159.707 112.966C159.556 113.01 159.383 113.048 159.188 113.082C158.994 113.112 158.804 113.141 158.619 113.168C158.435 113.191 158.28 113.211 158.156 113.228C157.864 113.265 157.597 113.327 157.355 113.414C157.117 113.502 156.926 113.627 156.781 113.792C156.64 113.953 156.57 114.168 156.57 114.436C156.57 114.809 156.708 115.091 156.983 115.282C157.258 115.47 157.609 115.564 158.035 115.564ZM167.056 108.867V110.076H162.831V108.867H167.056ZM163.964 107.014H165.47V114.331C165.47 114.623 165.513 114.843 165.601 114.99C165.688 115.135 165.8 115.234 165.938 115.288C166.079 115.338 166.232 115.363 166.396 115.363C166.517 115.363 166.623 115.355 166.713 115.338C166.804 115.321 166.875 115.308 166.925 115.298L167.197 116.541C167.11 116.575 166.985 116.609 166.824 116.642C166.663 116.679 166.462 116.699 166.22 116.703C165.824 116.709 165.455 116.639 165.112 116.491C164.77 116.343 164.493 116.115 164.281 115.806C164.07 115.497 163.964 115.11 163.964 114.643V107.014ZM170.887 116.773C170.397 116.773 169.954 116.682 169.558 116.501C169.162 116.316 168.848 116.05 168.616 115.7C168.388 115.351 168.274 114.923 168.274 114.416C168.274 113.98 168.358 113.621 168.526 113.339C168.693 113.057 168.92 112.833 169.205 112.669C169.491 112.504 169.81 112.38 170.162 112.296C170.515 112.212 170.874 112.149 171.24 112.105C171.703 112.051 172.079 112.008 172.368 111.974C172.656 111.937 172.866 111.878 172.997 111.798C173.128 111.717 173.194 111.586 173.194 111.405V111.37C173.194 110.93 173.069 110.589 172.821 110.348C172.576 110.106 172.21 109.985 171.723 109.985C171.216 109.985 170.817 110.097 170.525 110.322C170.236 110.544 170.036 110.791 169.925 111.063L168.51 110.74C168.678 110.27 168.923 109.891 169.246 109.602C169.571 109.31 169.946 109.099 170.369 108.968C170.792 108.833 171.236 108.766 171.703 108.766C172.012 108.766 172.339 108.803 172.685 108.877C173.034 108.948 173.36 109.079 173.662 109.27C173.967 109.461 174.217 109.735 174.412 110.091C174.607 110.443 174.704 110.901 174.704 111.465V116.602H173.234V115.544H173.173C173.076 115.739 172.93 115.93 172.735 116.118C172.541 116.306 172.291 116.462 171.985 116.587C171.68 116.711 171.314 116.773 170.887 116.773ZM171.215 115.564C171.631 115.564 171.987 115.482 172.282 115.318C172.581 115.153 172.808 114.938 172.962 114.673C173.12 114.405 173.199 114.118 173.199 113.812V112.815C173.145 112.869 173.041 112.919 172.886 112.966C172.735 113.01 172.562 113.048 172.368 113.082C172.173 113.112 171.983 113.141 171.799 113.168C171.614 113.191 171.46 113.211 171.335 113.228C171.043 113.265 170.776 113.327 170.535 113.414C170.296 113.502 170.105 113.627 169.961 113.792C169.82 113.953 169.749 114.168 169.749 114.436C169.749 114.809 169.887 115.091 170.162 115.282C170.437 115.47 170.788 115.564 171.215 115.564ZM180.292 116.602V108.867H181.798V116.602H180.292ZM181.053 107.674C180.791 107.674 180.566 107.586 180.378 107.412C180.193 107.234 180.101 107.022 180.101 106.777C180.101 106.529 180.193 106.317 180.378 106.143C180.566 105.965 180.791 105.876 181.053 105.876C181.315 105.876 181.538 105.965 181.722 106.143C181.91 106.317 182.004 106.529 182.004 106.777C182.004 107.022 181.91 107.234 181.722 107.412C181.538 107.586 181.315 107.674 181.053 107.674ZM185.244 112.009V116.602H183.739V108.867H185.184V110.126H185.279C185.457 109.716 185.736 109.387 186.115 109.139C186.498 108.891 186.98 108.766 187.561 108.766C188.088 108.766 188.549 108.877 188.945 109.099C189.341 109.317 189.649 109.643 189.867 110.076C190.085 110.509 190.194 111.044 190.194 111.682V116.602H188.689V111.863C188.689 111.303 188.543 110.865 188.25 110.549C187.958 110.23 187.557 110.071 187.047 110.071C186.698 110.071 186.387 110.146 186.115 110.297C185.847 110.448 185.634 110.67 185.476 110.962C185.321 111.251 185.244 111.6 185.244 112.009ZM198.047 116.773C197.557 116.773 197.114 116.682 196.718 116.501C196.322 116.316 196.008 116.05 195.776 115.7C195.548 115.351 195.434 114.923 195.434 114.416C195.434 113.98 195.517 113.621 195.685 113.339C195.853 113.057 196.08 112.833 196.365 112.669C196.651 112.504 196.969 112.38 197.322 112.296C197.674 112.212 198.034 112.149 198.4 112.105C198.863 112.051 199.239 112.008 199.528 111.974C199.816 111.937 200.026 111.878 200.157 111.798C200.288 111.717 200.353 111.586 200.353 111.405V111.37C200.353 110.93 200.229 110.589 199.981 110.348C199.736 110.106 199.37 109.985 198.883 109.985C198.376 109.985 197.977 110.097 197.684 110.322C197.396 110.544 197.196 110.791 197.085 111.063L195.67 110.74C195.838 110.27 196.083 109.891 196.405 109.602C196.731 109.31 197.105 109.099 197.528 108.968C197.951 108.833 198.396 108.766 198.863 108.766C199.172 108.766 199.499 108.803 199.845 108.877C200.194 108.948 200.52 109.079 200.822 109.27C201.127 109.461 201.377 109.735 201.572 110.091C201.767 110.443 201.864 110.901 201.864 111.465V116.602H200.394V115.544H200.333C200.236 115.739 200.09 115.93 199.895 116.118C199.7 116.306 199.45 116.462 199.145 116.587C198.839 116.711 198.473 116.773 198.047 116.773ZM198.374 115.564C198.791 115.564 199.146 115.482 199.442 115.318C199.741 115.153 199.967 114.938 200.122 114.673C200.28 114.405 200.358 114.118 200.358 113.812V112.815C200.305 112.869 200.201 112.919 200.046 112.966C199.895 113.01 199.722 113.048 199.528 113.082C199.333 113.112 199.143 113.141 198.959 113.168C198.774 113.191 198.619 113.211 198.495 113.228C198.203 113.265 197.936 113.327 197.695 113.414C197.456 113.502 197.265 113.627 197.12 113.792C196.979 113.953 196.909 114.168 196.909 114.436C196.909 114.809 197.047 115.091 197.322 115.282C197.597 115.47 197.948 115.564 198.374 115.564ZM211.063 108.867V110.076H206.838V108.867H211.063ZM207.971 107.014H209.476V114.331C209.476 114.623 209.52 114.843 209.607 114.99C209.695 115.135 209.807 115.234 209.945 115.288C210.086 115.338 210.239 115.363 210.403 115.363C210.524 115.363 210.63 115.355 210.72 115.338C210.811 115.321 210.881 115.308 210.932 115.298L211.204 116.541C211.116 116.575 210.992 116.609 210.831 116.642C210.67 116.679 210.468 116.699 210.227 116.703C209.831 116.709 209.461 116.639 209.119 116.491C208.777 116.343 208.5 116.115 208.288 115.806C208.077 115.497 207.971 115.11 207.971 114.643V107.014ZM214.894 116.773C214.404 116.773 213.961 116.682 213.565 116.501C213.169 116.316 212.855 116.05 212.623 115.7C212.395 115.351 212.281 114.923 212.281 114.416C212.281 113.98 212.365 113.621 212.532 113.339C212.7 113.057 212.927 112.833 213.212 112.669C213.498 112.504 213.816 112.38 214.169 112.296C214.521 112.212 214.881 112.149 215.247 112.105C215.71 112.051 216.086 112.008 216.375 111.974C216.663 111.937 216.873 111.878 217.004 111.798C217.135 111.717 217.2 111.586 217.2 111.405V111.37C217.2 110.93 217.076 110.589 216.828 110.348C216.583 110.106 216.217 109.985 215.73 109.985C215.223 109.985 214.824 110.097 214.532 110.322C214.243 110.544 214.043 110.791 213.932 111.063L212.517 110.74C212.685 110.27 212.93 109.891 213.252 109.602C213.578 109.31 213.952 109.099 214.375 108.968C214.798 108.833 215.243 108.766 215.71 108.766C216.019 108.766 216.346 108.803 216.692 108.877C217.041 108.948 217.367 109.079 217.669 109.27C217.974 109.461 218.224 109.735 218.419 110.091C218.614 110.443 218.711 110.901 218.711 111.465V116.602H217.241V115.544H217.18C217.083 115.739 216.937 115.93 216.742 116.118C216.547 116.306 216.297 116.462 215.992 116.587C215.686 116.711 215.32 116.773 214.894 116.773ZM215.221 115.564C215.638 115.564 215.994 115.482 216.289 115.318C216.588 115.153 216.814 114.938 216.969 114.673C217.127 114.405 217.205 114.118 217.205 113.812V112.815C217.152 112.869 217.048 112.919 216.893 112.966C216.742 113.01 216.569 113.048 216.375 113.082C216.18 113.112 215.99 113.141 215.806 113.168C215.621 113.191 215.466 113.211 215.342 113.228C215.05 113.265 214.783 113.327 214.542 113.414C214.303 113.502 214.112 113.627 213.968 113.792C213.827 113.953 213.756 114.168 213.756 114.436C213.756 114.809 213.894 115.091 214.169 115.282C214.444 115.47 214.795 115.564 215.221 115.564ZM220.752 116.602V106.289H222.258V110.121H222.349C222.436 109.96 222.562 109.773 222.726 109.562C222.891 109.35 223.119 109.166 223.411 109.008C223.703 108.847 224.089 108.766 224.569 108.766C225.194 108.766 225.751 108.924 226.241 109.24C226.731 109.555 227.116 110.01 227.394 110.604C227.676 111.199 227.817 111.914 227.817 112.75C227.817 113.585 227.678 114.302 227.399 114.9C227.121 115.494 226.738 115.952 226.251 116.274C225.764 116.593 225.209 116.753 224.584 116.753C224.114 116.753 223.73 116.674 223.431 116.516C223.136 116.358 222.904 116.174 222.736 115.962C222.568 115.751 222.439 115.563 222.349 115.398H222.223V116.602H220.752ZM222.228 112.734C222.228 113.278 222.307 113.755 222.464 114.165C222.622 114.574 222.85 114.895 223.149 115.126C223.448 115.355 223.814 115.469 224.247 115.469C224.697 115.469 225.073 115.35 225.375 115.111C225.677 114.87 225.905 114.542 226.06 114.129C226.218 113.716 226.297 113.251 226.297 112.734C226.297 112.224 226.219 111.766 226.065 111.36C225.914 110.954 225.686 110.633 225.38 110.398C225.078 110.163 224.7 110.045 224.247 110.045C223.811 110.045 223.441 110.158 223.139 110.383C222.84 110.608 222.614 110.922 222.459 111.324C222.305 111.727 222.228 112.197 222.228 112.734ZM229.423 106.289H230.929V114.487C230.929 114.819 230.971 115.054 231.054 115.192C231.142 115.329 231.306 115.395 231.548 115.388C231.679 115.385 231.776 115.376 231.84 115.363C231.907 115.35 231.968 115.335 232.021 115.318L232.293 116.521C232.189 116.551 232.057 116.58 231.895 116.607C231.738 116.637 231.558 116.654 231.357 116.657C230.705 116.667 230.22 116.513 229.901 116.194C229.582 115.875 229.423 115.41 229.423 114.799V106.289ZM236.535 116.758C235.773 116.758 235.117 116.595 234.566 116.269C234.019 115.94 233.596 115.479 233.297 114.885C233.002 114.287 232.854 113.587 232.854 112.785C232.854 111.993 233.002 111.294 233.297 110.69C233.596 110.086 234.012 109.614 234.546 109.275C235.083 108.936 235.711 108.766 236.429 108.766C236.866 108.766 237.289 108.839 237.698 108.983C238.108 109.127 238.475 109.354 238.801 109.663C239.127 109.972 239.384 110.373 239.572 110.866C239.76 111.356 239.854 111.952 239.854 112.654V113.188H233.705V112.06H238.378C238.378 111.664 238.298 111.313 238.136 111.007C237.975 110.698 237.749 110.455 237.457 110.277C237.168 110.099 236.829 110.01 236.439 110.01C236.016 110.01 235.647 110.114 235.332 110.322C235.019 110.527 234.778 110.796 234.606 111.128C234.439 111.457 234.355 111.815 234.355 112.201V113.082C234.355 113.599 234.445 114.039 234.627 114.401C234.811 114.764 235.068 115.041 235.397 115.232C235.726 115.42 236.11 115.514 236.55 115.514C236.835 115.514 237.096 115.474 237.331 115.393C237.566 115.309 237.769 115.185 237.94 115.021C238.111 114.856 238.242 114.653 238.333 114.411L239.758 114.668C239.644 115.088 239.439 115.455 239.143 115.771C238.851 116.083 238.484 116.327 238.041 116.501C237.601 116.672 237.099 116.758 236.535 116.758Z" fill="white"/>
<rect x="0.800049" y="167.86" width="325.2" height="56.52" rx="5.42" fill="#CF1A68"/>
<path d="M22.8201 204.12V189.672H17.6601V187.32H30.5721V189.672H25.4121V204.12H22.8201ZM34.8414 204.12V187.32H37.4334V194.52H44.4894V187.32H47.0814V204.12H44.4894V196.872H37.4334V204.12H34.8414ZM52.5114 204.12V187.32H63.0954V189.672H55.1034V194.496H62.4234V196.848H55.1034V201.768H63.2154V204.12H52.5114ZM67.8377 204.12V187.32H72.8297L77.3897 202.392H77.7737V187.32H80.3417V204.12H75.3497L70.7897 189.024H70.4057V204.12H67.8377Z" fill="white"/>
<path d="M105.818 192.517C105.764 192.04 105.543 191.671 105.153 191.409C104.764 191.144 104.274 191.011 103.683 191.011C103.26 191.011 102.894 191.078 102.585 191.212C102.276 191.343 102.036 191.525 101.865 191.756C101.697 191.984 101.613 192.245 101.613 192.537C101.613 192.782 101.67 192.993 101.784 193.171C101.902 193.349 102.055 193.499 102.243 193.619C102.434 193.737 102.639 193.836 102.857 193.916C103.075 193.994 103.285 194.057 103.486 194.108L104.494 194.37C104.823 194.45 105.16 194.559 105.506 194.697C105.851 194.835 106.172 195.016 106.467 195.241C106.763 195.466 107.001 195.744 107.183 196.077C107.367 196.409 107.459 196.807 107.459 197.27C107.459 197.854 107.308 198.373 107.006 198.826C106.708 199.279 106.273 199.637 105.702 199.899C105.135 200.161 104.448 200.292 103.642 200.292C102.87 200.292 102.202 200.169 101.638 199.924C101.074 199.679 100.633 199.331 100.314 198.882C99.995 198.428 99.8188 197.891 99.7852 197.27H101.346C101.376 197.643 101.497 197.953 101.709 198.202C101.924 198.447 102.197 198.63 102.53 198.751C102.865 198.868 103.233 198.927 103.632 198.927C104.072 198.927 104.463 198.858 104.806 198.72C105.151 198.579 105.423 198.385 105.621 198.136C105.82 197.885 105.919 197.591 105.919 197.255C105.919 196.95 105.831 196.699 105.657 196.505C105.486 196.31 105.252 196.149 104.957 196.021C104.665 195.894 104.334 195.781 103.965 195.684L102.746 195.352C101.92 195.127 101.266 194.796 100.782 194.36C100.302 193.923 100.062 193.346 100.062 192.627C100.062 192.033 100.223 191.514 100.546 191.071C100.868 190.628 101.304 190.284 101.855 190.039C102.405 189.791 103.026 189.666 103.718 189.666C104.416 189.666 105.032 189.789 105.566 190.034C106.103 190.279 106.526 190.616 106.835 191.046C107.144 191.472 107.305 191.963 107.319 192.517H105.818ZM112.447 200.276C111.685 200.276 111.028 200.114 110.478 199.788C109.93 199.459 109.507 198.997 109.209 198.403C108.913 197.806 108.766 197.106 108.766 196.303C108.766 195.511 108.913 194.813 109.209 194.209C109.507 193.604 109.924 193.133 110.457 192.794C110.995 192.454 111.622 192.285 112.341 192.285C112.777 192.285 113.2 192.357 113.61 192.501C114.019 192.646 114.387 192.872 114.713 193.181C115.038 193.49 115.295 193.891 115.483 194.385C115.671 194.875 115.765 195.471 115.765 196.172V196.706H109.617V195.578H114.29C114.29 195.182 114.209 194.831 114.048 194.526C113.887 194.217 113.66 193.974 113.368 193.796C113.079 193.618 112.74 193.529 112.351 193.529C111.928 193.529 111.559 193.633 111.243 193.841C110.931 194.046 110.689 194.314 110.518 194.647C110.35 194.976 110.266 195.333 110.266 195.719V196.6C110.266 197.117 110.357 197.557 110.538 197.92C110.723 198.282 110.98 198.559 111.309 198.751C111.638 198.939 112.022 199.033 112.462 199.033C112.747 199.033 113.007 198.992 113.242 198.912C113.477 198.828 113.68 198.704 113.852 198.539C114.023 198.375 114.154 198.172 114.244 197.93L115.669 198.187C115.555 198.606 115.35 198.974 115.055 199.289C114.763 199.602 114.395 199.845 113.952 200.02C113.512 200.191 113.011 200.276 112.447 200.276ZM118.856 195.528V200.12H117.351V192.386H118.796V193.645H118.891C119.069 193.235 119.348 192.906 119.727 192.658C120.11 192.409 120.592 192.285 121.173 192.285C121.7 192.285 122.161 192.396 122.557 192.617C122.954 192.835 123.261 193.161 123.479 193.594C123.697 194.027 123.806 194.563 123.806 195.201V200.12H122.301V195.382C122.301 194.821 122.155 194.383 121.862 194.068C121.57 193.749 121.169 193.589 120.659 193.589C120.31 193.589 119.999 193.665 119.727 193.816C119.459 193.967 119.246 194.188 119.088 194.48C118.933 194.769 118.856 195.118 118.856 195.528ZM128.636 200.271C128.011 200.271 127.454 200.112 126.964 199.793C126.477 199.471 126.095 199.013 125.816 198.418C125.541 197.821 125.403 197.104 125.403 196.268C125.403 195.432 125.542 194.717 125.821 194.123C126.103 193.529 126.489 193.074 126.979 192.758C127.469 192.443 128.025 192.285 128.646 192.285C129.126 192.285 129.512 192.365 129.804 192.527C130.1 192.684 130.328 192.869 130.489 193.081C130.654 193.292 130.781 193.478 130.872 193.639H130.962V189.807H132.468V200.12H130.998V198.917H130.872C130.781 199.081 130.65 199.269 130.479 199.481C130.311 199.692 130.079 199.877 129.784 200.035C129.489 200.193 129.106 200.271 128.636 200.271ZM128.968 198.987C129.401 198.987 129.767 198.873 130.066 198.645C130.368 198.413 130.596 198.093 130.751 197.683C130.909 197.274 130.988 196.797 130.988 196.253C130.988 195.716 130.91 195.246 130.756 194.843C130.601 194.44 130.375 194.126 130.076 193.901C129.777 193.676 129.408 193.564 128.968 193.564C128.515 193.564 128.137 193.681 127.835 193.916C127.533 194.151 127.305 194.472 127.15 194.878C126.999 195.284 126.924 195.743 126.924 196.253C126.924 196.77 127.001 197.235 127.155 197.648C127.31 198.061 127.538 198.388 127.84 198.63C128.146 198.868 128.522 198.987 128.968 198.987ZM140.451 200.292C139.96 200.292 139.517 200.201 139.121 200.02C138.725 199.835 138.411 199.568 138.179 199.219C137.951 198.87 137.837 198.442 137.837 197.935C137.837 197.498 137.921 197.139 138.089 196.857C138.257 196.575 138.483 196.352 138.769 196.188C139.054 196.023 139.373 195.899 139.725 195.815C140.078 195.731 140.437 195.667 140.803 195.624C141.266 195.57 141.642 195.526 141.931 195.493C142.22 195.456 142.43 195.397 142.56 195.316C142.691 195.236 142.757 195.105 142.757 194.924V194.888C142.757 194.449 142.633 194.108 142.384 193.866C142.139 193.624 141.773 193.504 141.286 193.504C140.78 193.504 140.38 193.616 140.088 193.841C139.799 194.062 139.6 194.309 139.489 194.581L138.074 194.259C138.242 193.789 138.487 193.41 138.809 193.121C139.135 192.829 139.509 192.617 139.932 192.486C140.355 192.352 140.8 192.285 141.266 192.285C141.575 192.285 141.903 192.322 142.248 192.396C142.597 192.466 142.923 192.597 143.225 192.788C143.531 192.98 143.781 193.253 143.976 193.609C144.17 193.962 144.268 194.42 144.268 194.984V200.12H142.797V199.063H142.737C142.639 199.258 142.493 199.449 142.299 199.637C142.104 199.825 141.854 199.981 141.548 200.105C141.243 200.229 140.877 200.292 140.451 200.292ZM140.778 199.083C141.194 199.083 141.55 199.001 141.845 198.836C142.144 198.672 142.371 198.457 142.525 198.192C142.683 197.923 142.762 197.636 142.762 197.331V196.334C142.708 196.387 142.604 196.438 142.45 196.485C142.299 196.528 142.126 196.567 141.931 196.6C141.736 196.631 141.547 196.659 141.362 196.686C141.177 196.71 141.023 196.73 140.899 196.746C140.607 196.783 140.34 196.846 140.098 196.933C139.86 197.02 139.668 197.146 139.524 197.31C139.383 197.472 139.313 197.686 139.313 197.955C139.313 198.328 139.45 198.61 139.725 198.801C140.001 198.989 140.352 199.083 140.778 199.083ZM147.694 195.528V200.12H146.188V192.386H147.633V193.645H147.729C147.907 193.235 148.185 192.906 148.565 192.658C148.947 192.409 149.429 192.285 150.01 192.285C150.537 192.285 150.999 192.396 151.395 192.617C151.791 192.835 152.098 193.161 152.316 193.594C152.535 194.027 152.644 194.563 152.644 195.201V200.12H151.138V195.382C151.138 194.821 150.992 194.383 150.7 194.068C150.408 193.749 150.007 193.589 149.496 193.589C149.147 193.589 148.837 193.665 148.565 193.816C148.296 193.967 148.083 194.188 147.925 194.48C147.771 194.769 147.694 195.118 147.694 195.528ZM161.579 200.276C160.817 200.276 160.161 200.114 159.61 199.788C159.063 199.459 158.64 198.997 158.341 198.403C158.046 197.806 157.898 197.106 157.898 196.303C157.898 195.511 158.046 194.813 158.341 194.209C158.64 193.604 159.056 193.133 159.59 192.794C160.127 192.454 160.755 192.285 161.473 192.285C161.91 192.285 162.333 192.357 162.742 192.501C163.152 192.646 163.52 192.872 163.845 193.181C164.171 193.49 164.428 193.891 164.616 194.385C164.804 194.875 164.898 195.471 164.898 196.172V196.706H158.749V195.578H163.422C163.422 195.182 163.342 194.831 163.18 194.526C163.019 194.217 162.793 193.974 162.501 193.796C162.212 193.618 161.873 193.529 161.483 193.529C161.06 193.529 160.691 193.633 160.376 193.841C160.063 194.046 159.822 194.314 159.65 194.647C159.483 194.976 159.399 195.333 159.399 195.719V196.6C159.399 197.117 159.489 197.557 159.671 197.92C159.855 198.282 160.112 198.559 160.441 198.751C160.77 198.939 161.154 199.033 161.594 199.033C161.88 199.033 162.14 198.992 162.375 198.912C162.61 198.828 162.813 198.704 162.984 198.539C163.155 198.375 163.286 198.172 163.377 197.93L164.802 198.187C164.688 198.606 164.483 198.974 164.188 199.289C163.896 199.602 163.528 199.845 163.085 200.02C162.645 200.191 162.143 200.276 161.579 200.276ZM166.483 200.12V192.386H167.928V193.645H168.024C168.185 193.218 168.449 192.886 168.815 192.647C169.181 192.406 169.619 192.285 170.129 192.285C170.646 192.285 171.079 192.406 171.428 192.647C171.781 192.889 172.041 193.222 172.209 193.645H172.289C172.474 193.232 172.768 192.903 173.17 192.658C173.573 192.409 174.053 192.285 174.611 192.285C175.312 192.285 175.885 192.505 176.328 192.945C176.774 193.384 176.998 194.047 176.998 194.934V200.12H175.492V195.075C175.492 194.551 175.349 194.172 175.064 193.937C174.778 193.702 174.438 193.584 174.042 193.584C173.551 193.584 173.17 193.735 172.899 194.037C172.627 194.336 172.491 194.72 172.491 195.19V200.12H170.99V194.979C170.99 194.559 170.859 194.222 170.597 193.967C170.335 193.712 169.995 193.584 169.575 193.584C169.29 193.584 169.026 193.66 168.784 193.811C168.546 193.958 168.353 194.165 168.205 194.43C168.061 194.695 167.989 195.002 167.989 195.352V200.12H166.483ZM181.181 200.292C180.691 200.292 180.248 200.201 179.852 200.02C179.456 199.835 179.142 199.568 178.91 199.219C178.682 198.87 178.568 198.442 178.568 197.935C178.568 197.498 178.652 197.139 178.82 196.857C178.988 196.575 179.214 196.352 179.5 196.188C179.785 196.023 180.104 195.899 180.456 195.815C180.809 195.731 181.168 195.667 181.534 195.624C181.997 195.57 182.373 195.526 182.662 195.493C182.951 195.456 183.16 195.397 183.291 195.316C183.422 195.236 183.488 195.105 183.488 194.924V194.888C183.488 194.449 183.364 194.108 183.115 193.866C182.87 193.624 182.504 193.504 182.017 193.504C181.51 193.504 181.111 193.616 180.819 193.841C180.53 194.062 180.33 194.309 180.22 194.581L178.805 194.259C178.972 193.789 179.218 193.41 179.54 193.121C179.865 192.829 180.24 192.617 180.663 192.486C181.086 192.352 181.531 192.285 181.997 192.285C182.306 192.285 182.633 192.322 182.979 192.396C183.328 192.466 183.654 192.597 183.956 192.788C184.262 192.98 184.512 193.253 184.706 193.609C184.901 193.962 184.998 194.42 184.998 194.984V200.12H183.528V199.063H183.468C183.37 199.258 183.224 199.449 183.029 199.637C182.835 199.825 182.585 199.981 182.279 200.105C181.974 200.229 181.608 200.292 181.181 200.292ZM181.509 199.083C181.925 199.083 182.281 199.001 182.576 198.836C182.875 198.672 183.102 198.457 183.256 198.192C183.414 197.923 183.493 197.636 183.493 197.331V196.334C183.439 196.387 183.335 196.438 183.181 196.485C183.029 196.528 182.857 196.567 182.662 196.6C182.467 196.631 182.277 196.659 182.093 196.686C181.908 196.71 181.754 196.73 181.63 196.746C181.338 196.783 181.071 196.846 180.829 196.933C180.591 197.02 180.399 197.146 180.255 197.31C180.114 197.472 180.043 197.686 180.043 197.955C180.043 198.328 180.181 198.61 180.456 198.801C180.732 198.989 181.082 199.083 181.509 199.083ZM186.919 200.12V192.386H188.424V200.12H186.919ZM187.679 191.192C187.417 191.192 187.192 191.105 187.004 190.93C186.82 190.752 186.727 190.541 186.727 190.296C186.727 190.047 186.82 189.836 187.004 189.661C187.192 189.483 187.417 189.394 187.679 189.394C187.941 189.394 188.164 189.483 188.349 189.661C188.537 189.836 188.631 190.047 188.631 190.296C188.631 190.541 188.537 190.752 188.349 190.93C188.164 191.105 187.941 191.192 187.679 191.192ZM190.365 189.807H191.871V198.005C191.871 198.338 191.913 198.573 191.996 198.71C192.084 198.848 192.248 198.913 192.49 198.907C192.621 198.903 192.718 198.895 192.782 198.882C192.849 198.868 192.91 198.853 192.963 198.836L193.235 200.04C193.131 200.07 192.999 200.099 192.837 200.125C192.68 200.156 192.5 200.172 192.299 200.176C191.647 200.186 191.162 200.031 190.843 199.712C190.524 199.394 190.365 198.929 190.365 198.318V189.807Z" fill="white"/>
<g opacity="0.3">
<rect x="42.8" y="252" width="253.2" height="61.6285" rx="4.40348" fill="#F9DDE9"/>
<rect x="54.0289" y="263.229" width="39.1708" height="39.1708" rx="2.20174" fill="#F0B0CA"/>
<rect x="54.335" y="263.535" width="38.5587" height="38.5587" rx="2.14215" stroke="#F0B0CA" stroke-width="0.612044"/>
<rect x="102.832" y="269.879" width="82.0148" height="8.25652" rx="0.825652" fill="#F0B0CA" stroke="#F0B0CA" stroke-width="0.550435"/>
<rect x="102.832" y="287.493" width="82.0148" height="8.25652" rx="0.825652" fill="#F0B0CA" stroke="#F0B0CA" stroke-width="0.550435"/>
</g>
</svg>
