<svg width="206" height="62" viewBox="0 0 206 62" fill="none" xmlns="http://www.w3.org/2000/svg">
<path d="M53.36 61V27.4H59.408V61H53.36ZM74.126 61.384C72.27 61.384 70.638 60.968 69.23 60.136C67.854 59.272 66.782 58.088 66.014 56.584C65.246 55.08 64.862 53.352 64.862 51.4V37.192H70.91V50.92C70.91 52.712 71.342 54.056 72.206 54.952C73.102 55.848 74.366 56.296 75.998 56.296C77.854 56.296 79.294 55.688 80.318 54.472C81.342 53.224 81.854 51.496 81.854 49.288V37.192H87.902V61H81.95V57.88H81.086C80.702 58.68 79.982 59.464 78.926 60.232C77.87 61 76.27 61.384 74.126 61.384ZM93.5761 61V37.192H99.5281V39.784H100.392C100.808 38.984 101.496 38.296 102.456 37.72C103.416 37.112 104.68 36.808 106.248 36.808C107.944 36.808 109.304 37.144 110.328 37.816C111.352 38.456 112.136 39.304 112.68 40.36H113.544C114.088 39.336 114.856 38.488 115.848 37.816C116.84 37.144 118.248 36.808 120.072 36.808C121.544 36.808 122.872 37.128 124.056 37.768C125.272 38.376 126.232 39.32 126.936 40.6C127.672 41.848 128.04 43.432 128.04 45.352V61H121.992V45.784C121.992 44.472 121.656 43.496 120.984 42.856C120.312 42.184 119.368 41.848 118.152 41.848C116.776 41.848 115.704 42.296 114.936 43.192C114.2 44.056 113.832 45.304 113.832 46.936V61H107.784V45.784C107.784 44.472 107.448 43.496 106.776 42.856C106.104 42.184 105.16 41.848 103.944 41.848C102.568 41.848 101.496 42.296 100.728 43.192C99.9921 44.056 99.6241 45.304 99.6241 46.936V61H93.5761ZM147.793 61.672C145.649 61.672 144.001 61.304 142.849 60.568C141.697 59.832 140.849 59.016 140.305 58.12H139.441V61H133.489V27.4H139.537V39.928H140.401C140.753 39.352 141.217 38.808 141.793 38.296C142.401 37.784 143.185 37.368 144.145 37.048C145.137 36.696 146.353 36.52 147.793 36.52C149.713 36.52 151.489 37 153.121 37.96C154.753 38.888 156.065 40.264 157.057 42.088C158.049 43.912 158.545 46.12 158.545 48.712V49.48C158.545 52.072 158.049 54.28 157.057 56.104C156.065 57.928 154.753 59.32 153.121 60.28C151.489 61.208 149.713 61.672 147.793 61.672ZM145.969 56.392C147.825 56.392 149.377 55.8 150.625 54.616C151.873 53.4 152.497 51.64 152.497 49.336V48.856C152.497 46.552 151.873 44.808 150.625 43.624C149.409 42.408 147.857 41.8 145.969 41.8C144.113 41.8 142.561 42.408 141.313 43.624C140.065 44.808 139.441 46.552 139.441 48.856V49.336C139.441 51.64 140.065 53.4 141.313 54.616C142.561 55.8 144.113 56.392 145.969 56.392ZM173.89 61.672C171.522 61.672 169.426 61.176 167.602 60.184C165.81 59.16 164.402 57.736 163.378 55.912C162.386 54.056 161.89 51.88 161.89 49.384V48.808C161.89 46.312 162.386 44.152 163.378 42.328C164.37 40.472 165.762 39.048 167.554 38.056C169.346 37.032 171.426 36.52 173.794 36.52C176.13 36.52 178.162 37.048 179.89 38.104C181.618 39.128 182.962 40.568 183.922 42.424C184.882 44.248 185.362 46.376 185.362 48.808V50.872H168.034C168.098 52.504 168.706 53.832 169.858 54.856C171.01 55.88 172.418 56.392 174.082 56.392C175.778 56.392 177.026 56.024 177.826 55.288C178.626 54.552 179.234 53.736 179.65 52.84L184.594 55.432C184.146 56.264 183.49 57.176 182.626 58.168C181.794 59.128 180.674 59.96 179.266 60.664C177.858 61.336 176.066 61.672 173.89 61.672ZM168.082 46.36H179.218C179.09 44.984 178.53 43.88 177.538 43.048C176.578 42.216 175.314 41.8 173.746 41.8C172.114 41.8 170.818 42.216 169.858 43.048C168.898 43.88 168.306 44.984 168.082 46.36ZM189.689 61V37.192H195.641V39.88H196.505C196.857 38.92 197.433 38.216 198.233 37.768C199.065 37.32 200.025 37.096 201.113 37.096H203.993V42.472H201.017C199.481 42.472 198.217 42.888 197.225 43.72C196.233 44.52 195.737 45.768 195.737 47.464V61H189.689Z" fill="black"/>
<path d="M0 0H25.4359V12.7179H0V0Z" fill="#CF1A68"/>
<path d="M0 39.1342C0 31.3347 6.32273 25.0119 14.1222 25.0119L25.3476 25.012V36.6563H20.8168C18.0469 36.6563 15.6316 38.1743 14.3573 40.4237L14.1222 40.8741C13.658 41.8432 13.398 42.9288 13.398 44.0751V62H0V39.1342Z" fill="#CF1A68"/>
<path d="M30.9285 0.0265216C40.9278 0.0265216 49.0339 8.29597 49.0339 18.2953C49.0339 28.2946 40.9278 36.5641 30.9285 36.5641V25.2374H31.235C34.6655 25.2374 37.4464 22.4565 37.4464 19.026C37.4464 15.4263 34.5282 12.4493 30.9285 12.4493V0.0265216Z" fill="#CF1A68"/>
</svg>
