<svg width="346" height="324" viewBox="0 0 346 324" fill="none" xmlns="http://www.w3.org/2000/svg">
<line x1="174.5" y1="67" x2="174.5" y2="102" stroke="#BFC2C8"/>
<line x1="174.5" y1="150" x2="174.5" y2="181.2" stroke="#BFC2C8"/>
<g filter="url(#filter0_d_5796_14618)">
<rect x="10.8" y="10" width="325.2" height="56.52" rx="5.42" fill="white"/>
<path d="M30.3241 46.26L27.8521 29.46H30.4441L32.4601 44.508H32.8441L35.4361 29.46H39.9721L42.5641 44.508H42.9481L44.9401 29.46H47.5321L45.0601 46.26H40.5241L37.8841 30.996H37.5001L34.8841 46.26H30.3241ZM52.0133 46.26V29.46H54.6053V36.66H61.6613V29.46H64.2533V46.26H61.6613V39.012H54.6053V46.26H52.0133ZM69.6833 46.26V29.46H80.2673V31.812H72.2753V36.636H79.5953V38.988H72.2753V43.908H80.3873V46.26H69.6833ZM85.0095 46.26V29.46H90.0015L94.5615 44.532H94.9455V29.46H97.5136V46.26H92.5215L87.9615 31.164H87.5775V46.26H85.0095Z" fill="#CF1A68"/>
<path d="M125.517 32.947V43.26H124.087L118.845 35.6965H118.749V43.26H117.193V32.947H118.633L123.88 40.5206H123.976V32.947H125.517ZM130.914 43.4161C130.152 43.4161 129.496 43.2533 128.946 42.9277C128.398 42.5987 127.975 42.1371 127.677 41.5429C127.381 40.9453 127.233 40.2453 127.233 39.443C127.233 38.6507 127.381 37.9524 127.677 37.3482C127.975 36.7439 128.392 36.2722 128.925 35.9332C129.462 35.5941 130.09 35.4246 130.809 35.4246C131.245 35.4246 131.668 35.4967 132.078 35.6411C132.487 35.7854 132.855 36.0121 133.18 36.3209C133.506 36.6298 133.763 37.0309 133.951 37.5244C134.139 38.0146 134.233 38.6104 134.233 39.3121V39.8458H128.084V38.7179H132.757C132.757 38.3217 132.677 37.9709 132.516 37.6654C132.355 37.3566 132.128 37.1132 131.836 36.9353C131.547 36.7573 131.208 36.6684 130.819 36.6684C130.396 36.6684 130.026 36.7724 129.711 36.9806C129.399 37.1854 129.157 37.4539 128.986 37.7863C128.818 38.1153 128.734 38.4728 128.734 38.8589V39.7401C128.734 40.2571 128.825 40.6969 129.006 41.0594C129.191 41.422 129.447 41.699 129.776 41.8903C130.105 42.0783 130.49 42.1723 130.93 42.1723C131.215 42.1723 131.475 42.132 131.71 42.0515C131.945 41.9675 132.148 41.8433 132.319 41.6788C132.491 41.5143 132.622 41.3112 132.712 41.0695L134.137 41.3263C134.023 41.746 133.818 42.1136 133.523 42.4291C133.231 42.7413 132.863 42.9847 132.42 43.1593C131.98 43.3305 131.478 43.4161 130.914 43.4161ZM137.481 43.26L135.205 35.5253H136.761L138.277 41.2055H138.353L139.873 35.5253H141.429L142.94 41.1803H143.016L144.521 35.5253H146.077L143.806 43.26H142.27L140.699 37.6755H140.583L139.012 43.26H137.481ZM154.77 35.5253V36.7338H150.399V35.5253H154.77ZM151.597 43.26V34.6289C151.597 34.1455 151.703 33.7443 151.915 33.4254C152.126 33.1031 152.406 32.8631 152.756 32.7053C153.105 32.5442 153.484 32.4636 153.894 32.4636C154.196 32.4636 154.454 32.4888 154.669 32.5391C154.884 32.5861 155.043 32.6298 155.147 32.6701L154.795 33.8887C154.724 33.8685 154.634 33.845 154.523 33.8182C154.412 33.788 154.278 33.7729 154.12 33.7729C153.754 33.7729 153.492 33.8635 153.335 34.0448C153.18 34.2261 153.103 34.4879 153.103 34.8304V43.26H151.597ZM159.192 43.4161C158.466 43.4161 157.834 43.2499 157.293 42.9176C156.753 42.5852 156.333 42.1203 156.034 41.5227C155.736 40.9252 155.586 40.2269 155.586 39.4279C155.586 38.6255 155.736 37.9239 156.034 37.323C156.333 36.7221 156.753 36.2554 157.293 35.9231C157.834 35.5907 158.466 35.4246 159.192 35.4246C159.917 35.4246 160.55 35.5907 161.09 35.9231C161.631 36.2554 162.05 36.7221 162.349 37.323C162.648 37.9239 162.797 38.6255 162.797 39.4279C162.797 40.2269 162.648 40.9252 162.349 41.5227C162.05 42.1203 161.631 42.5852 161.09 42.9176C160.55 43.2499 159.917 43.4161 159.192 43.4161ZM159.197 42.1522C159.667 42.1522 160.056 42.028 160.365 41.7795C160.674 41.5311 160.902 41.2004 161.05 40.7875C161.201 40.3746 161.276 39.9197 161.276 39.4229C161.276 38.9294 161.201 38.4762 161.05 38.0632C160.902 37.647 160.674 37.3129 160.365 37.0611C160.056 36.8094 159.667 36.6835 159.197 36.6835C158.723 36.6835 158.331 36.8094 158.018 37.0611C157.709 37.3129 157.48 37.647 157.328 38.0632C157.181 38.4762 157.107 38.9294 157.107 39.4229C157.107 39.9197 157.181 40.3746 157.328 40.7875C157.48 41.2004 157.709 41.5311 158.018 41.7795C158.331 42.028 158.723 42.1522 159.197 42.1522ZM164.393 43.26V35.5253H165.848V36.754H165.929C166.07 36.3377 166.318 36.0104 166.674 35.772C167.033 35.5303 167.439 35.4095 167.892 35.4095C167.986 35.4095 168.097 35.4128 168.225 35.4195C168.356 35.4262 168.458 35.4346 168.532 35.4447V36.8849C168.472 36.8681 168.364 36.8496 168.21 36.8295C168.055 36.806 167.901 36.7943 167.746 36.7943C167.391 36.7943 167.073 36.8698 166.795 37.0209C166.519 37.1686 166.301 37.375 166.14 37.6402C165.979 37.9021 165.898 38.2009 165.898 38.5366V43.26H164.393ZM169.75 43.26V35.5253H171.195V36.7842H171.291C171.452 36.3578 171.715 36.0255 172.081 35.7871C172.447 35.5454 172.885 35.4246 173.396 35.4246C173.913 35.4246 174.346 35.5454 174.695 35.7871C175.047 36.0288 175.308 36.3612 175.475 36.7842H175.556C175.741 36.3713 176.034 36.0423 176.437 35.7972C176.84 35.5488 177.32 35.4246 177.877 35.4246C178.579 35.4246 179.151 35.6445 179.595 36.0842C180.041 36.524 180.264 37.187 180.264 38.0733V43.26H178.759V38.2143C178.759 37.6906 178.616 37.3112 178.331 37.0762C178.045 36.8413 177.705 36.7238 177.308 36.7238C176.818 36.7238 176.437 36.8748 176.165 37.177C175.893 37.4757 175.757 37.8601 175.757 38.3301V43.26H174.257V38.1186C174.257 37.699 174.126 37.3616 173.864 37.1065C173.602 36.8513 173.261 36.7238 172.842 36.7238C172.556 36.7238 172.293 36.7993 172.051 36.9504C171.813 37.0981 171.62 37.3045 171.472 37.5697C171.328 37.835 171.256 38.1421 171.256 38.4913V43.26H169.75ZM191.661 37.4136L190.296 37.6553C190.239 37.4808 190.149 37.3146 190.024 37.1568C189.904 36.999 189.739 36.8698 189.531 36.7691C189.323 36.6684 189.063 36.618 188.75 36.618C188.324 36.618 187.968 36.7137 187.683 36.905C187.397 37.093 187.255 37.3364 187.255 37.6352C187.255 37.8937 187.35 38.1018 187.542 38.2596C187.733 38.4174 188.042 38.5467 188.468 38.6474L189.697 38.9294C190.409 39.0939 190.939 39.3473 191.288 39.6897C191.637 40.0322 191.812 40.477 191.812 41.0242C191.812 41.4875 191.678 41.9004 191.409 42.263C191.144 42.6222 190.773 42.9042 190.296 43.1089C189.823 43.3137 189.274 43.4161 188.65 43.4161C187.784 43.4161 187.077 43.2315 186.53 42.8622C185.982 42.4896 185.647 41.9608 185.523 41.276L186.978 41.0544C187.068 41.4338 187.255 41.7208 187.537 41.9155C187.819 42.1068 188.186 42.2025 188.64 42.2025C189.133 42.2025 189.528 42.1001 189.823 41.8954C190.118 41.6872 190.266 41.4338 190.266 41.135C190.266 40.8933 190.175 40.6902 189.994 40.5257C189.816 40.3612 189.543 40.2369 189.173 40.153L187.864 39.866C187.142 39.7015 186.609 39.4396 186.263 39.0804C185.92 38.7212 185.749 38.2663 185.749 37.7158C185.749 37.2592 185.877 36.8597 186.132 36.5173C186.387 36.1749 186.739 35.908 187.189 35.7166C187.639 35.5219 188.155 35.4246 188.735 35.4246C189.571 35.4246 190.229 35.6058 190.709 35.9684C191.189 36.3276 191.507 36.8094 191.661 37.4136ZM198.282 40.0523V35.5253H199.793V43.26H198.312V41.9205H198.232C198.054 42.3335 197.768 42.6776 197.376 42.9528C196.986 43.2248 196.501 43.3607 195.92 43.3607C195.424 43.3607 194.984 43.2516 194.601 43.0334C194.222 42.8118 193.923 42.4845 193.705 42.0515C193.49 41.6184 193.382 41.0829 193.382 40.4451V35.5253H194.888V40.2638C194.888 40.7909 195.034 41.2105 195.326 41.5227C195.618 41.8349 195.998 41.991 196.464 41.991C196.746 41.991 197.027 41.9205 197.305 41.7795C197.587 41.6385 197.821 41.4254 198.005 41.14C198.193 40.8547 198.285 40.4921 198.282 40.0523ZM201.852 43.26V32.947H203.357V36.7791H203.448C203.535 36.618 203.661 36.4317 203.826 36.2202C203.99 36.0087 204.218 35.8241 204.51 35.6663C204.803 35.5051 205.189 35.4246 205.669 35.4246C206.293 35.4246 206.85 35.5823 207.34 35.8979C207.831 36.2135 208.215 36.6684 208.494 37.2626C208.776 37.8568 208.917 38.5718 208.917 39.4077C208.917 40.2437 208.777 40.9604 208.499 41.558C208.22 42.1522 207.837 42.6104 207.351 42.9327C206.864 43.2516 206.308 43.4111 205.684 43.4111C205.214 43.4111 204.829 43.3322 204.531 43.1744C204.235 43.0166 204.004 42.832 203.836 42.6205C203.668 42.409 203.539 42.221 203.448 42.0565H203.322V43.26H201.852ZM203.327 39.3926C203.327 39.9365 203.406 40.4132 203.564 40.8228C203.722 41.2323 203.95 41.5529 204.249 41.7846C204.547 42.0129 204.913 42.127 205.346 42.127C205.796 42.127 206.172 42.0078 206.474 41.7695C206.776 41.5278 207.005 41.2004 207.159 40.7875C207.317 40.3746 207.396 39.9096 207.396 39.3926C207.396 38.8824 207.319 38.4241 207.164 38.0179C207.013 37.6117 206.785 37.2911 206.479 37.0561C206.177 36.8211 205.8 36.7036 205.346 36.7036C204.91 36.7036 204.541 36.8161 204.239 37.041C203.94 37.2659 203.713 37.5798 203.559 37.9827C203.404 38.3855 203.327 38.8555 203.327 39.3926ZM210.522 43.26V35.5253H211.967V36.7842H212.063C212.224 36.3578 212.488 36.0255 212.854 35.7871C213.22 35.5454 213.658 35.4246 214.168 35.4246C214.685 35.4246 215.118 35.5454 215.467 35.7871C215.82 36.0288 216.08 36.3612 216.248 36.7842H216.328C216.513 36.3713 216.807 36.0423 217.21 35.7972C217.612 35.5488 218.093 35.4246 218.65 35.4246C219.351 35.4246 219.924 35.6445 220.367 36.0842C220.813 36.524 221.037 37.187 221.037 38.0733V43.26H219.531V38.2143C219.531 37.6906 219.388 37.3112 219.103 37.0762C218.818 36.8413 218.477 36.7238 218.081 36.7238C217.591 36.7238 217.21 36.8748 216.938 37.177C216.666 37.4757 216.53 37.8601 216.53 38.3301V43.26H215.029V38.1186C215.029 37.699 214.898 37.3616 214.636 37.1065C214.375 36.8513 214.034 36.7238 213.614 36.7238C213.329 36.7238 213.065 36.7993 212.824 36.9504C212.585 37.0981 212.392 37.3045 212.244 37.5697C212.1 37.835 212.028 38.1421 212.028 38.4913V43.26H210.522ZM222.97 43.26V35.5253H224.475V43.26H222.97ZM223.73 34.3318C223.468 34.3318 223.243 34.2445 223.055 34.07C222.871 33.892 222.778 33.6806 222.778 33.4355C222.778 33.1871 222.871 32.9756 223.055 32.801C223.243 32.6231 223.468 32.5341 223.73 32.5341C223.992 32.5341 224.215 32.6231 224.4 32.801C224.588 32.9756 224.682 33.1871 224.682 33.4355C224.682 33.6806 224.588 33.892 224.4 34.07C224.215 34.2445 223.992 34.3318 223.73 34.3318ZM232.212 37.4136L230.847 37.6553C230.79 37.4808 230.699 37.3146 230.575 37.1568C230.454 36.999 230.29 36.8698 230.082 36.7691C229.874 36.6684 229.613 36.618 229.301 36.618C228.875 36.618 228.519 36.7137 228.234 36.905C227.948 37.093 227.806 37.3364 227.806 37.6352C227.806 37.8937 227.901 38.1018 228.093 38.2596C228.284 38.4174 228.593 38.5467 229.019 38.6474L230.248 38.9294C230.96 39.0939 231.49 39.3473 231.839 39.6897C232.188 40.0322 232.363 40.477 232.363 41.0242C232.363 41.4875 232.229 41.9004 231.96 42.263C231.695 42.6222 231.324 42.9042 230.847 43.1089C230.374 43.3137 229.825 43.4161 229.2 43.4161C228.334 43.4161 227.628 43.2315 227.08 42.8622C226.533 42.4896 226.198 41.9608 226.073 41.276L227.529 41.0544C227.619 41.4338 227.806 41.7208 228.088 41.9155C228.37 42.1068 228.737 42.2025 229.19 42.2025C229.684 42.2025 230.078 42.1001 230.374 41.8954C230.669 41.6872 230.817 41.4338 230.817 41.135C230.817 40.8933 230.726 40.6902 230.545 40.5257C230.367 40.3612 230.093 40.2369 229.724 40.153L228.415 39.866C227.693 39.7015 227.159 39.4396 226.814 39.0804C226.471 38.7212 226.3 38.2663 226.3 37.7158C226.3 37.2592 226.428 36.8597 226.683 36.5173C226.938 36.1749 227.29 35.908 227.74 35.7166C228.19 35.5219 228.705 35.4246 229.286 35.4246C230.122 35.4246 230.78 35.6058 231.26 35.9684C231.74 36.3276 232.057 36.8094 232.212 37.4136ZM239.729 37.4136L238.365 37.6553C238.308 37.4808 238.217 37.3146 238.093 37.1568C237.972 36.999 237.807 36.8698 237.599 36.7691C237.391 36.6684 237.131 36.618 236.819 36.618C236.392 36.618 236.036 36.7137 235.751 36.905C235.466 37.093 235.323 37.3364 235.323 37.6352C235.323 37.8937 235.419 38.1018 235.61 38.2596C235.801 38.4174 236.11 38.5467 236.537 38.6474L237.765 38.9294C238.477 39.0939 239.007 39.3473 239.357 39.6897C239.706 40.0322 239.88 40.477 239.88 41.0242C239.88 41.4875 239.746 41.9004 239.477 42.263C239.212 42.6222 238.841 42.9042 238.365 43.1089C237.891 43.3137 237.342 43.4161 236.718 43.4161C235.852 43.4161 235.145 43.2315 234.598 42.8622C234.051 42.4896 233.715 41.9608 233.591 41.276L235.046 41.0544C235.137 41.4338 235.323 41.7208 235.605 41.9155C235.887 42.1068 236.255 42.2025 236.708 42.2025C237.201 42.2025 237.596 42.1001 237.891 41.8954C238.187 41.6872 238.334 41.4338 238.334 41.135C238.334 40.8933 238.244 40.6902 238.062 40.5257C237.885 40.3612 237.611 40.2369 237.242 40.153L235.932 39.866C235.211 39.7015 234.677 39.4396 234.331 39.0804C233.989 38.7212 233.817 38.2663 233.817 37.7158C233.817 37.2592 233.945 36.8597 234.2 36.5173C234.455 36.1749 234.808 35.908 235.258 35.7166C235.707 35.5219 236.223 35.4246 236.804 35.4246C237.639 35.4246 238.297 35.6058 238.778 35.9684C239.258 36.3276 239.575 36.8094 239.729 37.4136ZM241.451 43.26V35.5253H242.956V43.26H241.451ZM242.211 34.3318C241.949 34.3318 241.724 34.2445 241.536 34.07C241.352 33.892 241.259 33.6806 241.259 33.4355C241.259 33.1871 241.352 32.9756 241.536 32.801C241.724 32.6231 241.949 32.5341 242.211 32.5341C242.473 32.5341 242.696 32.6231 242.881 32.801C243.069 32.9756 243.163 33.1871 243.163 33.4355C243.163 33.6806 243.069 33.892 242.881 34.07C242.696 34.2445 242.473 34.3318 242.211 34.3318ZM248.155 43.4161C247.43 43.4161 246.797 43.2499 246.256 42.9176C245.716 42.5852 245.296 42.1203 244.998 41.5227C244.699 40.9252 244.549 40.2269 244.549 39.4279C244.549 38.6255 244.699 37.9239 244.998 37.323C245.296 36.7221 245.716 36.2554 246.256 35.9231C246.797 35.5907 247.43 35.4246 248.155 35.4246C248.88 35.4246 249.513 35.5907 250.053 35.9231C250.594 36.2554 251.013 36.7221 251.312 37.323C251.611 37.9239 251.76 38.6255 251.76 39.4279C251.76 40.2269 251.611 40.9252 251.312 41.5227C251.013 42.1203 250.594 42.5852 250.053 42.9176C249.513 43.2499 248.88 43.4161 248.155 43.4161ZM248.16 42.1522C248.63 42.1522 249.019 42.028 249.328 41.7795C249.637 41.5311 249.865 41.2004 250.013 40.7875C250.164 40.3746 250.24 39.9197 250.24 39.4229C250.24 38.9294 250.164 38.4762 250.013 38.0632C249.865 37.647 249.637 37.3129 249.328 37.0611C249.019 36.8094 248.63 36.6835 248.16 36.6835C247.687 36.6835 247.294 36.8094 246.982 37.0611C246.673 37.3129 246.443 37.647 246.292 38.0632C246.144 38.4762 246.07 38.9294 246.07 39.4229C246.07 39.9197 246.144 40.3746 246.292 40.7875C246.443 41.2004 246.673 41.5311 246.982 41.7795C247.294 42.028 247.687 42.1522 248.16 42.1522ZM254.862 38.6675V43.26H253.356V35.5253H254.801V36.7842H254.897C255.075 36.3746 255.353 36.0456 255.733 35.7972C256.116 35.5488 256.597 35.4246 257.178 35.4246C257.705 35.4246 258.167 35.5353 258.563 35.7569C258.959 35.9751 259.266 36.3008 259.484 36.7338C259.703 37.1669 259.812 37.7023 259.812 38.3402V43.26H258.306V38.5215C258.306 37.9608 258.16 37.5227 257.868 37.2072C257.576 36.8883 257.175 36.7288 256.664 36.7288C256.315 36.7288 256.005 36.8043 255.733 36.9554C255.464 37.1065 255.251 37.328 255.093 37.6201C254.939 37.9088 254.862 38.2579 254.862 38.6675Z" fill="#CF1A68"/>
</g>
<g filter="url(#filter1_d_5796_14618)">
<rect x="10.8" y="93.3418" width="325.2" height="56.52" rx="5.42" fill="white"/>
<path d="M32.8201 129.602V115.154H27.6601V112.802H40.5721V115.154H35.4121V129.602H32.8201ZM44.8414 129.602V112.802H47.4334V120.002H54.4894V112.802H57.0814V129.602H54.4894V122.354H47.4334V129.602H44.8414ZM62.5114 129.602V112.802H73.0954V115.154H65.1034V119.978H72.4234V122.33H65.1034V127.25H73.2154V129.602H62.5114ZM77.8377 129.602V112.802H82.8297L87.3897 127.874H87.7737V112.802H90.3417V129.602H85.3497L80.7897 114.506H80.4057V129.602H77.8377Z" fill="#CF1A68"/>
<path d="M122.818 118.998C122.764 118.521 122.543 118.152 122.153 117.89C121.764 117.625 121.274 117.492 120.683 117.492C120.26 117.492 119.894 117.559 119.585 117.694C119.276 117.825 119.036 118.006 118.865 118.238C118.697 118.466 118.613 118.726 118.613 119.018C118.613 119.263 118.67 119.475 118.784 119.653C118.902 119.831 119.055 119.98 119.243 120.101C119.434 120.218 119.639 120.317 119.857 120.398C120.075 120.475 120.285 120.539 120.486 120.589L121.494 120.851C121.822 120.932 122.16 121.041 122.506 121.178C122.851 121.316 123.172 121.497 123.467 121.722C123.763 121.947 124.001 122.226 124.183 122.558C124.367 122.891 124.459 123.288 124.459 123.752C124.459 124.336 124.308 124.854 124.006 125.308C123.708 125.761 123.273 126.118 122.702 126.38C122.135 126.642 121.448 126.773 120.642 126.773C119.87 126.773 119.202 126.65 118.638 126.405C118.074 126.16 117.633 125.813 117.314 125.363C116.995 124.91 116.819 124.373 116.785 123.752H118.346C118.376 124.124 118.497 124.435 118.709 124.683C118.924 124.928 119.197 125.111 119.53 125.232C119.865 125.35 120.233 125.408 120.632 125.408C121.072 125.408 121.463 125.34 121.806 125.202C122.151 125.061 122.423 124.866 122.621 124.618C122.82 124.366 122.919 124.072 122.919 123.737C122.919 123.431 122.831 123.181 122.657 122.986C122.486 122.792 122.252 122.63 121.957 122.503C121.665 122.375 121.334 122.263 120.965 122.165L119.746 121.833C118.92 121.608 118.266 121.277 117.782 120.841C117.302 120.405 117.062 119.827 117.062 119.109C117.062 118.515 117.223 117.996 117.546 117.553C117.868 117.11 118.304 116.766 118.855 116.52C119.405 116.272 120.026 116.148 120.718 116.148C121.416 116.148 122.032 116.27 122.566 116.515C123.103 116.76 123.526 117.098 123.835 117.528C124.144 117.954 124.305 118.444 124.318 118.998H122.818ZM129.724 118.867V120.076H125.499V118.867H129.724ZM126.632 117.014H128.137V124.331C128.137 124.623 128.181 124.843 128.268 124.99C128.355 125.135 128.468 125.234 128.606 125.288C128.747 125.338 128.899 125.363 129.064 125.363C129.185 125.363 129.29 125.355 129.381 125.338C129.472 125.321 129.542 125.308 129.593 125.298L129.865 126.541C129.777 126.575 129.653 126.609 129.492 126.642C129.331 126.679 129.129 126.699 128.888 126.703C128.491 126.709 128.122 126.639 127.78 126.491C127.437 126.343 127.16 126.115 126.949 125.806C126.737 125.497 126.632 125.11 126.632 124.643V117.014ZM134.479 126.758C133.754 126.758 133.121 126.592 132.581 126.259C132.04 125.927 131.62 125.462 131.322 124.865C131.023 124.267 130.873 123.569 130.873 122.77C130.873 121.967 131.023 121.266 131.322 120.665C131.62 120.064 132.04 119.597 132.581 119.265C133.121 118.933 133.754 118.766 134.479 118.766C135.204 118.766 135.837 118.933 136.377 119.265C136.918 119.597 137.337 120.064 137.636 120.665C137.935 121.266 138.084 121.967 138.084 122.77C138.084 123.569 137.935 124.267 137.636 124.865C137.337 125.462 136.918 125.927 136.377 126.259C135.837 126.592 135.204 126.758 134.479 126.758ZM134.484 125.494C134.954 125.494 135.343 125.37 135.652 125.121C135.961 124.873 136.189 124.542 136.337 124.129C136.488 123.716 136.564 123.262 136.564 122.765C136.564 122.271 136.488 121.818 136.337 121.405C136.189 120.989 135.961 120.655 135.652 120.403C135.343 120.151 134.954 120.025 134.484 120.025C134.011 120.025 133.618 120.151 133.306 120.403C132.997 120.655 132.767 120.989 132.616 121.405C132.468 121.818 132.394 122.271 132.394 122.765C132.394 123.262 132.468 123.716 132.616 124.129C132.767 124.542 132.997 124.873 133.306 125.121C133.618 125.37 134.011 125.494 134.484 125.494ZM139.68 126.602V118.867H141.135V120.096H141.216C141.357 119.679 141.605 119.352 141.961 119.114C142.32 118.872 142.727 118.751 143.18 118.751C143.274 118.751 143.385 118.755 143.512 118.761C143.643 118.768 143.745 118.776 143.819 118.787V120.227C143.759 120.21 143.651 120.191 143.497 120.171C143.343 120.148 143.188 120.136 143.034 120.136C142.678 120.136 142.361 120.212 142.082 120.363C141.807 120.51 141.589 120.717 141.427 120.982C141.266 121.244 141.186 121.543 141.186 121.878V126.602H139.68ZM148.094 126.758C147.332 126.758 146.675 126.595 146.125 126.269C145.578 125.94 145.155 125.479 144.856 124.885C144.56 124.287 144.413 123.587 144.413 122.785C144.413 121.993 144.56 121.294 144.856 120.69C145.155 120.086 145.571 119.614 146.105 119.275C146.642 118.936 147.27 118.766 147.988 118.766C148.424 118.766 148.847 118.839 149.257 118.983C149.667 119.127 150.034 119.354 150.36 119.663C150.685 119.972 150.942 120.373 151.13 120.866C151.318 121.356 151.412 121.952 151.412 122.654V123.188H145.264V122.06H149.937C149.937 121.664 149.856 121.313 149.695 121.007C149.534 120.698 149.307 120.455 149.015 120.277C148.727 120.099 148.388 120.01 147.998 120.01C147.575 120.01 147.206 120.114 146.89 120.322C146.578 120.527 146.336 120.796 146.165 121.128C145.997 121.457 145.913 121.815 145.913 122.201V123.082C145.913 123.599 146.004 124.039 146.185 124.401C146.37 124.764 146.627 125.041 146.956 125.232C147.285 125.42 147.669 125.514 148.109 125.514C148.394 125.514 148.654 125.474 148.889 125.393C149.124 125.309 149.328 125.185 149.499 125.021C149.67 124.856 149.801 124.653 149.892 124.411L151.317 124.668C151.202 125.088 150.998 125.455 150.702 125.771C150.41 126.083 150.043 126.327 149.599 126.501C149.16 126.672 148.658 126.758 148.094 126.758ZM159.561 126.753C158.937 126.753 158.379 126.593 157.889 126.274C157.402 125.952 157.02 125.494 156.741 124.9C156.466 124.302 156.328 123.585 156.328 122.75C156.328 121.914 156.467 121.199 156.746 120.604C157.028 120.01 157.414 119.555 157.904 119.24C158.394 118.924 158.95 118.766 159.571 118.766C160.051 118.766 160.437 118.847 160.729 119.008C161.025 119.166 161.253 119.35 161.414 119.562C161.579 119.773 161.706 119.96 161.797 120.121H161.887V116.289H163.393V126.602H161.923V125.398H161.797C161.706 125.563 161.575 125.751 161.404 125.962C161.236 126.174 161.005 126.358 160.709 126.516C160.414 126.674 160.031 126.753 159.561 126.753ZM159.893 125.469C160.326 125.469 160.692 125.355 160.991 125.126C161.293 124.895 161.522 124.574 161.676 124.165C161.834 123.755 161.913 123.278 161.913 122.734C161.913 122.197 161.835 121.727 161.681 121.324C161.527 120.922 161.3 120.608 161.001 120.383C160.702 120.158 160.333 120.045 159.893 120.045C159.44 120.045 159.062 120.163 158.76 120.398C158.458 120.633 158.23 120.954 158.075 121.36C157.924 121.766 157.849 122.224 157.849 122.734C157.849 123.251 157.926 123.716 158.081 124.129C158.235 124.542 158.463 124.87 158.765 125.111C159.071 125.35 159.447 125.469 159.893 125.469ZM167.708 126.773C167.218 126.773 166.775 126.682 166.379 126.501C165.982 126.316 165.669 126.05 165.437 125.7C165.209 125.351 165.094 124.923 165.094 124.416C165.094 123.98 165.178 123.621 165.346 123.339C165.514 123.057 165.741 122.833 166.026 122.669C166.311 122.504 166.63 122.38 166.983 122.296C167.335 122.212 167.695 122.149 168.06 122.105C168.524 122.051 168.9 122.008 169.188 121.974C169.477 121.937 169.687 121.878 169.818 121.798C169.949 121.717 170.014 121.586 170.014 121.405V121.37C170.014 120.93 169.89 120.589 169.642 120.348C169.397 120.106 169.031 119.985 168.544 119.985C168.037 119.985 167.637 120.097 167.345 120.322C167.057 120.544 166.857 120.791 166.746 121.063L165.331 120.74C165.499 120.27 165.744 119.891 166.066 119.602C166.392 119.31 166.766 119.099 167.189 118.968C167.612 118.833 168.057 118.766 168.524 118.766C168.833 118.766 169.16 118.803 169.506 118.877C169.855 118.948 170.18 119.079 170.483 119.27C170.788 119.461 171.038 119.735 171.233 120.091C171.428 120.443 171.525 120.901 171.525 121.465V126.602H170.055V125.544H169.994C169.897 125.739 169.751 125.93 169.556 126.118C169.361 126.306 169.111 126.462 168.806 126.587C168.5 126.711 168.134 126.773 167.708 126.773ZM168.035 125.564C168.452 125.564 168.807 125.482 169.103 125.318C169.402 125.153 169.628 124.938 169.783 124.673C169.94 124.405 170.019 124.118 170.019 123.812V122.815C169.966 122.869 169.862 122.919 169.707 122.966C169.556 123.01 169.383 123.048 169.188 123.082C168.994 123.112 168.804 123.141 168.619 123.168C168.435 123.191 168.28 123.211 168.156 123.228C167.864 123.265 167.597 123.327 167.355 123.414C167.117 123.502 166.926 123.627 166.781 123.792C166.64 123.953 166.57 124.168 166.57 124.436C166.57 124.809 166.708 125.091 166.983 125.282C167.258 125.47 167.609 125.564 168.035 125.564ZM177.056 118.867V120.076H172.831V118.867H177.056ZM173.964 117.014H175.47V124.331C175.47 124.623 175.513 124.843 175.601 124.99C175.688 125.135 175.8 125.234 175.938 125.288C176.079 125.338 176.232 125.363 176.396 125.363C176.517 125.363 176.623 125.355 176.713 125.338C176.804 125.321 176.875 125.308 176.925 125.298L177.197 126.541C177.11 126.575 176.985 126.609 176.824 126.642C176.663 126.679 176.462 126.699 176.22 126.703C175.824 126.709 175.455 126.639 175.112 126.491C174.77 126.343 174.493 126.115 174.281 125.806C174.07 125.497 173.964 125.11 173.964 124.643V117.014ZM180.887 126.773C180.397 126.773 179.954 126.682 179.558 126.501C179.162 126.316 178.848 126.05 178.616 125.7C178.388 125.351 178.274 124.923 178.274 124.416C178.274 123.98 178.358 123.621 178.526 123.339C178.693 123.057 178.92 122.833 179.205 122.669C179.491 122.504 179.81 122.38 180.162 122.296C180.515 122.212 180.874 122.149 181.24 122.105C181.703 122.051 182.079 122.008 182.368 121.974C182.656 121.937 182.866 121.878 182.997 121.798C183.128 121.717 183.194 121.586 183.194 121.405V121.37C183.194 120.93 183.069 120.589 182.821 120.348C182.576 120.106 182.21 119.985 181.723 119.985C181.216 119.985 180.817 120.097 180.525 120.322C180.236 120.544 180.036 120.791 179.925 121.063L178.51 120.74C178.678 120.27 178.923 119.891 179.246 119.602C179.571 119.31 179.946 119.099 180.369 118.968C180.792 118.833 181.236 118.766 181.703 118.766C182.012 118.766 182.339 118.803 182.685 118.877C183.034 118.948 183.36 119.079 183.662 119.27C183.967 119.461 184.217 119.735 184.412 120.091C184.607 120.443 184.704 120.901 184.704 121.465V126.602H183.234V125.544H183.173C183.076 125.739 182.93 125.93 182.735 126.118C182.541 126.306 182.291 126.462 181.985 126.587C181.68 126.711 181.314 126.773 180.887 126.773ZM181.215 125.564C181.631 125.564 181.987 125.482 182.282 125.318C182.581 125.153 182.807 124.938 182.962 124.673C183.12 124.405 183.199 124.118 183.199 123.812V122.815C183.145 122.869 183.041 122.919 182.886 122.966C182.735 123.01 182.562 123.048 182.368 123.082C182.173 123.112 181.983 123.141 181.799 123.168C181.614 123.191 181.46 123.211 181.335 123.228C181.043 123.265 180.776 123.327 180.535 123.414C180.296 123.502 180.105 123.627 179.961 123.792C179.82 123.953 179.749 124.168 179.749 124.436C179.749 124.809 179.887 125.091 180.162 125.282C180.437 125.47 180.788 125.564 181.215 125.564ZM190.292 126.602V118.867H191.798V126.602H190.292ZM191.053 117.674C190.791 117.674 190.566 117.586 190.378 117.412C190.193 117.234 190.101 117.022 190.101 116.777C190.101 116.529 190.193 116.317 190.378 116.143C190.566 115.965 190.791 115.876 191.053 115.876C191.315 115.876 191.538 115.965 191.722 116.143C191.91 116.317 192.004 116.529 192.004 116.777C192.004 117.022 191.91 117.234 191.722 117.412C191.538 117.586 191.315 117.674 191.053 117.674ZM195.244 122.009V126.602H193.738V118.867H195.184V120.126H195.279C195.457 119.716 195.736 119.387 196.115 119.139C196.498 118.891 196.98 118.766 197.561 118.766C198.088 118.766 198.549 118.877 198.945 119.099C199.341 119.317 199.649 119.643 199.867 120.076C200.085 120.509 200.194 121.044 200.194 121.682V126.602H198.689V121.863C198.689 121.303 198.542 120.865 198.25 120.549C197.958 120.23 197.557 120.071 197.047 120.071C196.698 120.071 196.387 120.146 196.115 120.297C195.847 120.448 195.634 120.67 195.476 120.962C195.321 121.251 195.244 121.6 195.244 122.009ZM208.047 126.773C207.557 126.773 207.114 126.682 206.718 126.501C206.321 126.316 206.008 126.05 205.776 125.7C205.548 125.351 205.434 124.923 205.434 124.416C205.434 123.98 205.517 123.621 205.685 123.339C205.853 123.057 206.08 122.833 206.365 122.669C206.65 122.504 206.969 122.38 207.322 122.296C207.674 122.212 208.034 122.149 208.4 122.105C208.863 122.051 209.239 122.008 209.528 121.974C209.816 121.937 210.026 121.878 210.157 121.798C210.288 121.717 210.353 121.586 210.353 121.405V121.37C210.353 120.93 210.229 120.589 209.981 120.348C209.736 120.106 209.37 119.985 208.883 119.985C208.376 119.985 207.977 120.097 207.684 120.322C207.396 120.544 207.196 120.791 207.085 121.063L205.67 120.74C205.838 120.27 206.083 119.891 206.405 119.602C206.731 119.31 207.105 119.099 207.528 118.968C207.951 118.833 208.396 118.766 208.863 118.766C209.172 118.766 209.499 118.803 209.845 118.877C210.194 118.948 210.52 119.079 210.822 119.27C211.127 119.461 211.377 119.735 211.572 120.091C211.767 120.443 211.864 120.901 211.864 121.465V126.602H210.394V125.544H210.333C210.236 125.739 210.09 125.93 209.895 126.118C209.7 126.306 209.45 126.462 209.145 126.587C208.839 126.711 208.473 126.773 208.047 126.773ZM208.374 125.564C208.791 125.564 209.146 125.482 209.442 125.318C209.741 125.153 209.967 124.938 210.122 124.673C210.28 124.405 210.358 124.118 210.358 123.812V122.815C210.305 122.869 210.201 122.919 210.046 122.966C209.895 123.01 209.722 123.048 209.528 123.082C209.333 123.112 209.143 123.141 208.958 123.168C208.774 123.191 208.619 123.211 208.495 123.228C208.203 123.265 207.936 123.327 207.695 123.414C207.456 123.502 207.265 123.627 207.12 123.792C206.979 123.953 206.909 124.168 206.909 124.436C206.909 124.809 207.047 125.091 207.322 125.282C207.597 125.47 207.948 125.564 208.374 125.564ZM221.063 118.867V120.076H216.838V118.867H221.063ZM217.971 117.014H219.476V124.331C219.476 124.623 219.52 124.843 219.607 124.99C219.695 125.135 219.807 125.234 219.945 125.288C220.086 125.338 220.239 125.363 220.403 125.363C220.524 125.363 220.63 125.355 220.72 125.338C220.811 125.321 220.881 125.308 220.932 125.298L221.204 126.541C221.116 126.575 220.992 126.609 220.831 126.642C220.67 126.679 220.468 126.699 220.227 126.703C219.831 126.709 219.461 126.639 219.119 126.491C218.777 126.343 218.5 126.115 218.288 125.806C218.077 125.497 217.971 125.11 217.971 124.643V117.014ZM224.894 126.773C224.404 126.773 223.961 126.682 223.565 126.501C223.169 126.316 222.855 126.05 222.623 125.7C222.395 125.351 222.281 124.923 222.281 124.416C222.281 123.98 222.365 123.621 222.532 123.339C222.7 123.057 222.927 122.833 223.212 122.669C223.498 122.504 223.816 122.38 224.169 122.296C224.521 122.212 224.881 122.149 225.247 122.105C225.71 122.051 226.086 122.008 226.375 121.974C226.663 121.937 226.873 121.878 227.004 121.798C227.135 121.717 227.2 121.586 227.2 121.405V121.37C227.2 120.93 227.076 120.589 226.828 120.348C226.583 120.106 226.217 119.985 225.73 119.985C225.223 119.985 224.824 120.097 224.532 120.322C224.243 120.544 224.043 120.791 223.932 121.063L222.517 120.74C222.685 120.27 222.93 119.891 223.252 119.602C223.578 119.31 223.952 119.099 224.375 118.968C224.798 118.833 225.243 118.766 225.71 118.766C226.019 118.766 226.346 118.803 226.692 118.877C227.041 118.948 227.367 119.079 227.669 119.27C227.974 119.461 228.224 119.735 228.419 120.091C228.614 120.443 228.711 120.901 228.711 121.465V126.602H227.241V125.544H227.18C227.083 125.739 226.937 125.93 226.742 126.118C226.547 126.306 226.297 126.462 225.992 126.587C225.686 126.711 225.32 126.773 224.894 126.773ZM225.221 125.564C225.638 125.564 225.994 125.482 226.289 125.318C226.588 125.153 226.814 124.938 226.969 124.673C227.127 124.405 227.205 124.118 227.205 123.812V122.815C227.152 122.869 227.048 122.919 226.893 122.966C226.742 123.01 226.569 123.048 226.375 123.082C226.18 123.112 225.99 123.141 225.806 123.168C225.621 123.191 225.466 123.211 225.342 123.228C225.05 123.265 224.783 123.327 224.542 123.414C224.303 123.502 224.112 123.627 223.968 123.792C223.827 123.953 223.756 124.168 223.756 124.436C223.756 124.809 223.894 125.091 224.169 125.282C224.444 125.47 224.795 125.564 225.221 125.564ZM230.752 126.602V116.289H232.258V120.121H232.349C232.436 119.96 232.562 119.773 232.726 119.562C232.891 119.35 233.119 119.166 233.411 119.008C233.703 118.847 234.089 118.766 234.569 118.766C235.194 118.766 235.751 118.924 236.241 119.24C236.731 119.555 237.116 120.01 237.394 120.604C237.676 121.199 237.817 121.914 237.817 122.75C237.817 123.585 237.678 124.302 237.399 124.9C237.121 125.494 236.738 125.952 236.251 126.274C235.764 126.593 235.209 126.753 234.584 126.753C234.114 126.753 233.73 126.674 233.431 126.516C233.136 126.358 232.904 126.174 232.736 125.962C232.568 125.751 232.439 125.563 232.349 125.398H232.223V126.602H230.752ZM232.228 122.734C232.228 123.278 232.307 123.755 232.464 124.165C232.622 124.574 232.85 124.895 233.149 125.126C233.448 125.355 233.814 125.469 234.247 125.469C234.697 125.469 235.073 125.35 235.375 125.111C235.677 124.87 235.905 124.542 236.06 124.129C236.218 123.716 236.297 123.251 236.297 122.734C236.297 122.224 236.219 121.766 236.065 121.36C235.914 120.954 235.686 120.633 235.38 120.398C235.078 120.163 234.7 120.045 234.247 120.045C233.811 120.045 233.441 120.158 233.139 120.383C232.84 120.608 232.614 120.922 232.459 121.324C232.305 121.727 232.228 122.197 232.228 122.734ZM239.423 116.289H240.929V124.487C240.929 124.819 240.971 125.054 241.054 125.192C241.142 125.329 241.306 125.395 241.548 125.388C241.679 125.385 241.776 125.376 241.84 125.363C241.907 125.35 241.968 125.335 242.021 125.318L242.293 126.521C242.189 126.551 242.057 126.58 241.895 126.607C241.738 126.637 241.558 126.654 241.357 126.657C240.705 126.667 240.22 126.513 239.901 126.194C239.582 125.875 239.423 125.41 239.423 124.799V116.289ZM246.535 126.758C245.773 126.758 245.117 126.595 244.566 126.269C244.019 125.94 243.596 125.479 243.297 124.885C243.002 124.287 242.854 123.587 242.854 122.785C242.854 121.993 243.002 121.294 243.297 120.69C243.596 120.086 244.012 119.614 244.546 119.275C245.083 118.936 245.711 118.766 246.429 118.766C246.866 118.766 247.289 118.839 247.698 118.983C248.108 119.127 248.475 119.354 248.801 119.663C249.127 119.972 249.384 120.373 249.572 120.866C249.76 121.356 249.854 121.952 249.854 122.654V123.188H243.705V122.06H248.378C248.378 121.664 248.297 121.313 248.136 121.007C247.975 120.698 247.749 120.455 247.457 120.277C247.168 120.099 246.829 120.01 246.439 120.01C246.016 120.01 245.647 120.114 245.332 120.322C245.019 120.527 244.778 120.796 244.606 121.128C244.439 121.457 244.355 121.815 244.355 122.201V123.082C244.355 123.599 244.445 124.039 244.627 124.401C244.811 124.764 245.068 125.041 245.397 125.232C245.726 125.42 246.11 125.514 246.55 125.514C246.835 125.514 247.096 125.474 247.331 125.393C247.566 125.309 247.769 125.185 247.94 125.021C248.111 124.856 248.242 124.653 248.333 124.411L249.758 124.668C249.644 125.088 249.439 125.455 249.143 125.771C248.851 126.083 248.484 126.327 248.041 126.501C247.601 126.672 247.099 126.758 246.535 126.758Z" fill="#CF1A68"/>
</g>
<g filter="url(#filter2_d_5796_14618)">
<rect x="10.8" y="177.86" width="325.2" height="56.52" rx="5.42" fill="white"/>
<path d="M32.8201 214.12V199.672H27.6601V197.32H40.5721V199.672H35.4121V214.12H32.8201ZM44.8414 214.12V197.32H47.4334V204.52H54.4894V197.32H57.0814V214.12H54.4894V206.872H47.4334V214.12H44.8414ZM62.5114 214.12V197.32H73.0954V199.672H65.1034V204.496H72.4234V206.848H65.1034V211.768H73.2154V214.12H62.5114ZM77.8377 214.12V197.32H82.8297L87.3897 212.392H87.7737V197.32H90.3417V214.12H85.3497L80.7897 199.024H80.4057V214.12H77.8377Z" fill="#CF1A68"/>
<path d="M115.818 202.517C115.764 202.04 115.543 201.671 115.153 201.409C114.764 201.144 114.274 201.011 113.683 201.011C113.26 201.011 112.894 201.078 112.585 201.212C112.276 201.343 112.036 201.525 111.865 201.756C111.697 201.984 111.613 202.245 111.613 202.537C111.613 202.782 111.67 202.993 111.784 203.171C111.902 203.349 112.055 203.499 112.243 203.619C112.434 203.737 112.639 203.836 112.857 203.916C113.075 203.994 113.285 204.057 113.486 204.108L114.494 204.37C114.822 204.45 115.16 204.559 115.506 204.697C115.851 204.835 116.172 205.016 116.467 205.241C116.763 205.466 117.001 205.744 117.183 206.077C117.367 206.409 117.459 206.807 117.459 207.27C117.459 207.854 117.308 208.373 117.006 208.826C116.708 209.279 116.273 209.637 115.702 209.899C115.135 210.161 114.448 210.292 113.642 210.292C112.87 210.292 112.202 210.169 111.638 209.924C111.074 209.679 110.633 209.331 110.314 208.882C109.995 208.428 109.819 207.891 109.785 207.27H111.346C111.376 207.643 111.497 207.953 111.709 208.202C111.924 208.447 112.197 208.63 112.53 208.751C112.865 208.868 113.233 208.927 113.632 208.927C114.072 208.927 114.463 208.858 114.806 208.72C115.151 208.579 115.423 208.385 115.621 208.136C115.82 207.885 115.919 207.591 115.919 207.255C115.919 206.95 115.831 206.699 115.657 206.505C115.486 206.31 115.252 206.149 114.957 206.021C114.665 205.894 114.334 205.781 113.965 205.684L112.746 205.352C111.92 205.127 111.266 204.796 110.782 204.36C110.302 203.923 110.062 203.346 110.062 202.627C110.062 202.033 110.223 201.514 110.546 201.071C110.868 200.628 111.304 200.284 111.855 200.039C112.405 199.791 113.026 199.666 113.718 199.666C114.416 199.666 115.032 199.789 115.566 200.034C116.103 200.279 116.526 200.616 116.835 201.046C117.144 201.472 117.305 201.963 117.318 202.517H115.818ZM122.447 210.276C121.684 210.276 121.028 210.114 120.478 209.788C119.93 209.459 119.507 208.997 119.209 208.403C118.913 207.806 118.766 207.106 118.766 206.303C118.766 205.511 118.913 204.813 119.209 204.209C119.507 203.604 119.924 203.133 120.457 202.794C120.995 202.454 121.622 202.285 122.341 202.285C122.777 202.285 123.2 202.357 123.61 202.501C124.019 202.646 124.387 202.872 124.713 203.181C125.038 203.49 125.295 203.891 125.483 204.385C125.671 204.875 125.765 205.471 125.765 206.172V206.706H119.617V205.578H124.29C124.29 205.182 124.209 204.831 124.048 204.526C123.887 204.217 123.66 203.974 123.368 203.796C123.079 203.618 122.74 203.529 122.351 203.529C121.928 203.529 121.559 203.633 121.243 203.841C120.931 204.046 120.689 204.314 120.518 204.647C120.35 204.976 120.266 205.333 120.266 205.719V206.6C120.266 207.117 120.357 207.557 120.538 207.92C120.723 208.282 120.98 208.559 121.308 208.751C121.637 208.939 122.022 209.033 122.462 209.033C122.747 209.033 123.007 208.992 123.242 208.912C123.477 208.828 123.68 208.704 123.851 208.539C124.023 208.375 124.154 208.172 124.244 207.93L125.669 208.187C125.555 208.606 125.35 208.974 125.055 209.289C124.763 209.602 124.395 209.845 123.952 210.02C123.512 210.191 123.011 210.276 122.447 210.276ZM128.856 205.528V210.12H127.351V202.386H128.796V203.645H128.891C129.069 203.235 129.348 202.906 129.727 202.658C130.11 202.409 130.592 202.285 131.173 202.285C131.7 202.285 132.161 202.396 132.557 202.617C132.954 202.835 133.261 203.161 133.479 203.594C133.697 204.027 133.806 204.563 133.806 205.201V210.12H132.301V205.382C132.301 204.821 132.155 204.383 131.862 204.068C131.57 203.749 131.169 203.589 130.659 203.589C130.31 203.589 129.999 203.665 129.727 203.816C129.459 203.967 129.246 204.188 129.088 204.48C128.933 204.769 128.856 205.118 128.856 205.528ZM138.636 210.271C138.011 210.271 137.454 210.112 136.964 209.793C136.477 209.471 136.095 209.013 135.816 208.418C135.541 207.821 135.403 207.104 135.403 206.268C135.403 205.432 135.542 204.717 135.821 204.123C136.103 203.529 136.489 203.074 136.979 202.758C137.469 202.443 138.025 202.285 138.646 202.285C139.126 202.285 139.512 202.365 139.804 202.527C140.1 202.684 140.328 202.869 140.489 203.081C140.654 203.292 140.781 203.478 140.872 203.639H140.962V199.807H142.468V210.12H140.998V208.917H140.872C140.781 209.081 140.65 209.269 140.479 209.481C140.311 209.692 140.079 209.877 139.784 210.035C139.489 210.193 139.106 210.271 138.636 210.271ZM138.968 208.987C139.401 208.987 139.767 208.873 140.066 208.645C140.368 208.413 140.596 208.093 140.751 207.683C140.909 207.274 140.988 206.797 140.988 206.253C140.988 205.716 140.91 205.246 140.756 204.843C140.601 204.44 140.375 204.126 140.076 203.901C139.777 203.676 139.408 203.564 138.968 203.564C138.515 203.564 138.137 203.681 137.835 203.916C137.533 204.151 137.305 204.472 137.15 204.878C136.999 205.284 136.924 205.743 136.924 206.253C136.924 206.77 137.001 207.235 137.155 207.648C137.31 208.061 137.538 208.388 137.84 208.63C138.146 208.868 138.522 208.987 138.968 208.987ZM150.451 210.292C149.96 210.292 149.517 210.201 149.121 210.02C148.725 209.835 148.411 209.568 148.179 209.219C147.951 208.87 147.837 208.442 147.837 207.935C147.837 207.498 147.921 207.139 148.089 206.857C148.257 206.575 148.483 206.352 148.769 206.188C149.054 206.023 149.373 205.899 149.725 205.815C150.078 205.731 150.437 205.667 150.803 205.624C151.266 205.57 151.642 205.526 151.931 205.493C152.22 205.456 152.43 205.397 152.56 205.316C152.691 205.236 152.757 205.105 152.757 204.924V204.888C152.757 204.449 152.633 204.108 152.384 203.866C152.139 203.624 151.773 203.504 151.286 203.504C150.78 203.504 150.38 203.616 150.088 203.841C149.799 204.062 149.6 204.309 149.489 204.581L148.074 204.259C148.242 203.789 148.487 203.41 148.809 203.121C149.135 202.829 149.509 202.617 149.932 202.486C150.355 202.352 150.8 202.285 151.266 202.285C151.575 202.285 151.902 202.322 152.248 202.396C152.597 202.466 152.923 202.597 153.225 202.788C153.531 202.98 153.781 203.253 153.976 203.609C154.17 203.962 154.268 204.42 154.268 204.984V210.12H152.797V209.063H152.737C152.639 209.258 152.493 209.449 152.299 209.637C152.104 209.825 151.854 209.981 151.548 210.105C151.243 210.229 150.877 210.292 150.451 210.292ZM150.778 209.083C151.194 209.083 151.55 209.001 151.845 208.836C152.144 208.672 152.371 208.457 152.525 208.192C152.683 207.923 152.762 207.636 152.762 207.331V206.334C152.708 206.387 152.604 206.438 152.45 206.485C152.299 206.528 152.126 206.567 151.931 206.6C151.736 206.631 151.547 206.659 151.362 206.686C151.177 206.71 151.023 206.73 150.899 206.746C150.607 206.783 150.34 206.846 150.098 206.933C149.86 207.02 149.668 207.146 149.524 207.31C149.383 207.472 149.313 207.686 149.313 207.955C149.313 208.328 149.45 208.61 149.725 208.801C150.001 208.989 150.352 209.083 150.778 209.083ZM157.694 205.528V210.12H156.188V202.386H157.633V203.645H157.729C157.907 203.235 158.185 202.906 158.565 202.658C158.947 202.409 159.429 202.285 160.01 202.285C160.537 202.285 160.999 202.396 161.395 202.617C161.791 202.835 162.098 203.161 162.316 203.594C162.535 204.027 162.644 204.563 162.644 205.201V210.12H161.138V205.382C161.138 204.821 160.992 204.383 160.7 204.068C160.408 203.749 160.007 203.589 159.496 203.589C159.147 203.589 158.837 203.665 158.565 203.816C158.296 203.967 158.083 204.188 157.925 204.48C157.771 204.769 157.694 205.118 157.694 205.528ZM171.579 210.276C170.817 210.276 170.161 210.114 169.61 209.788C169.063 209.459 168.64 208.997 168.341 208.403C168.046 207.806 167.898 207.106 167.898 206.303C167.898 205.511 168.046 204.813 168.341 204.209C168.64 203.604 169.056 203.133 169.59 202.794C170.127 202.454 170.755 202.285 171.473 202.285C171.91 202.285 172.333 202.357 172.742 202.501C173.152 202.646 173.52 202.872 173.845 203.181C174.171 203.49 174.428 203.891 174.616 204.385C174.804 204.875 174.898 205.471 174.898 206.172V206.706H168.749V205.578H173.422C173.422 205.182 173.342 204.831 173.18 204.526C173.019 204.217 172.793 203.974 172.501 203.796C172.212 203.618 171.873 203.529 171.483 203.529C171.06 203.529 170.691 203.633 170.376 203.841C170.063 204.046 169.822 204.314 169.65 204.647C169.483 204.976 169.399 205.333 169.399 205.719V206.6C169.399 207.117 169.489 207.557 169.671 207.92C169.855 208.282 170.112 208.559 170.441 208.751C170.77 208.939 171.154 209.033 171.594 209.033C171.88 209.033 172.14 208.992 172.375 208.912C172.61 208.828 172.813 208.704 172.984 208.539C173.155 208.375 173.286 208.172 173.377 207.93L174.802 208.187C174.688 208.606 174.483 208.974 174.188 209.289C173.896 209.602 173.528 209.845 173.085 210.02C172.645 210.191 172.143 210.276 171.579 210.276ZM176.483 210.12V202.386H177.928V203.645H178.024C178.185 203.218 178.449 202.886 178.815 202.647C179.181 202.406 179.619 202.285 180.129 202.285C180.646 202.285 181.079 202.406 181.428 202.647C181.781 202.889 182.041 203.222 182.209 203.645H182.289C182.474 203.232 182.768 202.903 183.17 202.658C183.573 202.409 184.053 202.285 184.611 202.285C185.312 202.285 185.885 202.505 186.328 202.945C186.774 203.384 186.998 204.047 186.998 204.934V210.12H185.492V205.075C185.492 204.551 185.349 204.172 185.064 203.937C184.778 203.702 184.438 203.584 184.042 203.584C183.551 203.584 183.17 203.735 182.899 204.037C182.627 204.336 182.491 204.72 182.491 205.19V210.12H180.99V204.979C180.99 204.559 180.859 204.222 180.597 203.967C180.335 203.712 179.995 203.584 179.575 203.584C179.29 203.584 179.026 203.66 178.784 203.811C178.546 203.958 178.353 204.165 178.205 204.43C178.061 204.695 177.989 205.002 177.989 205.352V210.12H176.483ZM191.181 210.292C190.691 210.292 190.248 210.201 189.852 210.02C189.456 209.835 189.142 209.568 188.91 209.219C188.682 208.87 188.568 208.442 188.568 207.935C188.568 207.498 188.652 207.139 188.82 206.857C188.988 206.575 189.214 206.352 189.499 206.188C189.785 206.023 190.104 205.899 190.456 205.815C190.809 205.731 191.168 205.667 191.534 205.624C191.997 205.57 192.373 205.526 192.662 205.493C192.951 205.456 193.16 205.397 193.291 205.316C193.422 205.236 193.488 205.105 193.488 204.924V204.888C193.488 204.449 193.364 204.108 193.115 203.866C192.87 203.624 192.504 203.504 192.017 203.504C191.51 203.504 191.111 203.616 190.819 203.841C190.53 204.062 190.33 204.309 190.22 204.581L188.805 204.259C188.972 203.789 189.217 203.41 189.54 203.121C189.865 202.829 190.24 202.617 190.663 202.486C191.086 202.352 191.531 202.285 191.997 202.285C192.306 202.285 192.633 202.322 192.979 202.396C193.328 202.466 193.654 202.597 193.956 202.788C194.262 202.98 194.512 203.253 194.706 203.609C194.901 203.962 194.998 204.42 194.998 204.984V210.12H193.528V209.063H193.468C193.37 209.258 193.224 209.449 193.029 209.637C192.835 209.825 192.585 209.981 192.279 210.105C191.974 210.229 191.608 210.292 191.181 210.292ZM191.509 209.083C191.925 209.083 192.281 209.001 192.576 208.836C192.875 208.672 193.102 208.457 193.256 208.192C193.414 207.923 193.493 207.636 193.493 207.331V206.334C193.439 206.387 193.335 206.438 193.181 206.485C193.029 206.528 192.857 206.567 192.662 206.6C192.467 206.631 192.277 206.659 192.093 206.686C191.908 206.71 191.754 206.73 191.63 206.746C191.338 206.783 191.071 206.846 190.829 206.933C190.591 207.02 190.399 207.146 190.255 207.31C190.114 207.472 190.043 207.686 190.043 207.955C190.043 208.328 190.181 208.61 190.456 208.801C190.732 208.989 191.082 209.083 191.509 209.083ZM196.919 210.12V202.386H198.424V210.12H196.919ZM197.679 201.192C197.417 201.192 197.192 201.105 197.004 200.93C196.82 200.752 196.727 200.541 196.727 200.296C196.727 200.047 196.82 199.836 197.004 199.661C197.192 199.483 197.417 199.394 197.679 199.394C197.941 199.394 198.164 199.483 198.349 199.661C198.537 199.836 198.631 200.047 198.631 200.296C198.631 200.541 198.537 200.752 198.349 200.93C198.164 201.105 197.941 201.192 197.679 201.192ZM200.365 199.807H201.871V208.005C201.871 208.338 201.913 208.573 201.996 208.71C202.084 208.848 202.248 208.913 202.49 208.907C202.621 208.903 202.718 208.895 202.782 208.882C202.849 208.868 202.91 208.853 202.963 208.836L203.235 210.04C203.131 210.07 202.999 210.099 202.837 210.125C202.68 210.156 202.5 210.172 202.299 210.176C201.647 210.186 201.162 210.031 200.843 209.712C200.524 209.394 200.365 208.929 200.365 208.318V199.807Z" fill="#CF1A68"/>
</g>
<g opacity="0.3">
<rect x="52.8" y="262" width="253.2" height="61.6285" rx="4.40348" fill="#F9DDE9"/>
<rect x="64.029" y="273.229" width="39.1708" height="39.1708" rx="2.20174" fill="#F0B0CA"/>
<rect x="64.335" y="273.535" width="38.5587" height="38.5587" rx="2.14215" stroke="#F0B0CA" stroke-width="0.612044"/>
<rect x="112.832" y="279.879" width="82.0148" height="8.25652" rx="0.825652" fill="#F0B0CA" stroke="#F0B0CA" stroke-width="0.550435"/>
<rect x="112.832" y="297.493" width="82.0148" height="8.25652" rx="0.825652" fill="#F0B0CA" stroke="#F0B0CA" stroke-width="0.550435"/>
</g>
<defs>
<filter id="filter0_d_5796_14618" x="0.800049" y="0" width="345.2" height="76.52" filterUnits="userSpaceOnUse" color-interpolation-filters="sRGB">
<feFlood flood-opacity="0" result="BackgroundImageFix"/>
<feColorMatrix in="SourceAlpha" type="matrix" values="0 0 0 0 0 0 0 0 0 0 0 0 0 0 0 0 0 0 127 0" result="hardAlpha"/>
<feOffset/>
<feGaussianBlur stdDeviation="5"/>
<feColorMatrix type="matrix" values="0 0 0 0 0.74902 0 0 0 0 0.74902 0 0 0 0 0.74902 0 0 0 0.5 0"/>
<feBlend mode="normal" in2="BackgroundImageFix" result="effect1_dropShadow_5796_14618"/>
<feBlend mode="normal" in="SourceGraphic" in2="effect1_dropShadow_5796_14618" result="shape"/>
</filter>
<filter id="filter1_d_5796_14618" x="0.800049" y="83.3418" width="345.2" height="76.52" filterUnits="userSpaceOnUse" color-interpolation-filters="sRGB">
<feFlood flood-opacity="0" result="BackgroundImageFix"/>
<feColorMatrix in="SourceAlpha" type="matrix" values="0 0 0 0 0 0 0 0 0 0 0 0 0 0 0 0 0 0 127 0" result="hardAlpha"/>
<feOffset/>
<feGaussianBlur stdDeviation="5"/>
<feColorMatrix type="matrix" values="0 0 0 0 0.74902 0 0 0 0 0.74902 0 0 0 0 0.74902 0 0 0 0.5 0"/>
<feBlend mode="normal" in2="BackgroundImageFix" result="effect1_dropShadow_5796_14618"/>
<feBlend mode="normal" in="SourceGraphic" in2="effect1_dropShadow_5796_14618" result="shape"/>
</filter>
<filter id="filter2_d_5796_14618" x="0.800049" y="167.86" width="345.2" height="76.52" filterUnits="userSpaceOnUse" color-interpolation-filters="sRGB">
<feFlood flood-opacity="0" result="BackgroundImageFix"/>
<feColorMatrix in="SourceAlpha" type="matrix" values="0 0 0 0 0 0 0 0 0 0 0 0 0 0 0 0 0 0 127 0" result="hardAlpha"/>
<feOffset/>
<feGaussianBlur stdDeviation="5"/>
<feColorMatrix type="matrix" values="0 0 0 0 0.74902 0 0 0 0 0.74902 0 0 0 0 0.74902 0 0 0 0.5 0"/>
<feBlend mode="normal" in2="BackgroundImageFix" result="effect1_dropShadow_5796_14618"/>
<feBlend mode="normal" in="SourceGraphic" in2="effect1_dropShadow_5796_14618" result="shape"/>
</filter>
</defs>
</svg>
