<svg width="72" height="37" viewBox="0 0 72 37" fill="none" xmlns="http://www.w3.org/2000/svg">
<path d="M0.00218627 22.4744H5.96632C5.99256 22.6318 6.01078 22.7951 6.05305 22.9525C6.19534 23.5757 6.62023 24.0939 7.19865 24.3496C8.18665 24.8411 9.33158 24.8946 10.36 24.4973C10.7639 24.3653 11.0383 23.9849 11.0399 23.5546C11.083 23.1008 10.8235 22.6732 10.4044 22.5077C9.82784 22.2624 9.23779 22.051 8.63721 21.8745C7.25695 21.4792 5.85264 21.1483 4.48331 20.7345C3.33838 20.4278 2.32197 19.754 1.58577 18.8136C0.934267 17.9422 0.533237 16.905 0.427051 15.8169C0.289834 14.8781 0.394524 13.9194 0.730942 13.0338C1.19786 11.9088 2.03517 10.9829 3.10013 10.4139C4.35745 9.71969 5.75161 9.31838 7.18116 9.23916C8.4795 9.11737 9.78884 9.22943 11.0487 9.57015C13.0469 10.1479 14.6298 11.2495 15.5247 13.2236C15.8214 13.897 15.986 14.6225 16.0093 15.3596H10.3075C10.2835 15.2694 10.2492 15.1653 10.2259 15.064C10.0956 14.3885 9.57464 13.8603 8.90831 13.7283C8.23149 13.5394 7.51126 13.5915 6.86779 13.876C6.47227 14.0252 6.21046 14.4086 6.21192 14.8365C6.18786 15.2772 6.43832 15.6862 6.83864 15.8598C7.26579 16.0484 7.7062 16.2045 8.15624 16.3267C9.49933 16.7064 10.8526 17.0374 12.1921 17.4349C13.3416 17.7367 14.403 18.3136 15.2871 19.1172C15.9993 19.7981 16.4852 20.6865 16.6776 21.6595C16.9264 22.6811 16.9073 23.7508 16.6222 24.7626C16.3172 25.7287 15.7333 26.5798 14.9461 27.2059C13.7604 28.1833 12.391 28.6747 10.8942 28.9236C9.33004 29.1964 7.7289 29.1636 6.17693 28.8269C4.38565 28.4264 2.78603 27.6447 1.54569 26.2365C0.6481 25.2323 0.105145 23.9542 0.00218627 22.603C-0.000728756 22.5602 -0.000728756 22.5172 0.00218627 22.4744Z" fill="#27313D"/>
<path d="M49.7872 16.0851V9.1915H43.6596C44.0017 12.4391 46.4268 15.1673 49.7872 16.0851Z" fill="#27313D"/>
<path d="M43.6596 28.3404H49.7872V21.4468C46.4049 22.3628 43.974 25.0975 43.6596 28.3404H43.6596Z" fill="#27313D"/>
<path d="M41.3602 22.2128C40.5169 21.0303 39.482 19.9958 38.2979 19.1516C39.4836 18.3061 40.5196 17.2698 41.3632 16.0851C42.2059 17.2681 43.2409 18.3027 44.4255 19.1463C43.2398 19.9917 42.2038 21.0281 41.3602 22.2128Z" fill="#CF0B15"/>
<path d="M33.5229 21.0779C32.8201 21.9625 31.7968 22.523 30.6831 22.6335C27.9159 22.9058 25.8491 21.0238 25.7447 18.4301C25.624 16.1652 27.0828 14.0116 29.6694 13.7664C31.5206 13.5896 33.1009 14.4434 33.9198 15.8899C37.1489 15.0407 39.5104 12.2309 39.8298 8.85815H34.048V10.6635C33.6895 10.2998 33.3105 9.95768 32.9128 9.63895C31.8441 8.89221 30.5854 8.47577 29.2888 8.43992C27.0157 8.30468 24.7883 9.12791 23.1322 10.7154C21.4819 12.2337 20.3961 14.2826 20.0569 16.518C19.8517 17.749 19.869 19.0077 20.108 20.2324C20.3398 21.4367 20.7871 22.5876 21.4276 23.6279C22.0725 24.6959 22.9227 25.6207 23.9275 26.3472C25.5133 27.5388 27.4653 28.1173 29.4332 27.9788C30.4311 27.9182 31.4044 27.6393 32.2863 27.1611C32.9682 26.8232 33.5576 26.3197 34.002 25.695L34.1013 25.7198C34.0554 26.8075 34.0716 27.9163 33.9458 29.004C33.8199 30.0917 33.1668 30.9079 32.1871 31.4164C31.3432 31.8506 30.3861 32.0038 29.4517 31.8542C28.0114 31.6609 26.9865 30.9184 26.4645 29.5223C26.4299 29.3729 26.287 29.2764 26.1379 29.3019H20.79C20.79 30.3896 21.3447 32.0204 22.0326 33.0103C23.1589 34.6201 24.7088 35.6205 26.5156 36.2246C28.0623 36.7181 29.6936 36.8767 31.3044 36.6902C32.9372 36.53 34.5004 36.1463 35.9162 35.2467C37.5607 34.2042 38.7764 32.5904 39.3373 30.7055C39.6107 29.8239 39.769 28.9097 39.8083 27.9863C39.3897 24.5519 36.8604 21.7719 33.5229 21.0779Z" fill="#27313D"/>
<rect x="43.6596" width="6.12766" height="6.12766" fill="#27313D"/>
<path d="M66.4623 21.4402C66.308 21.965 66.0624 22.4571 65.7372 22.8927C65.0869 23.8 64.0879 24.3794 62.9926 24.4845C61.9547 24.6446 60.8962 24.3954 60.0312 23.7875C59.2395 23.2206 58.6636 22.3914 58.4011 21.4402H52.8511C53.1725 23.023 53.85 24.5074 54.8299 25.776C55.671 26.8817 56.7561 27.7681 57.9965 28.3628C59.3743 29.0263 60.9148 29.253 62.4197 29.0138C63.6444 28.8534 64.7921 28.3149 65.7096 27.4701C65.9271 27.2663 66.1345 27.0438 66.3883 26.7866V28.6623H72V0H66.3724V11.3822C65.9989 11.0072 65.6025 10.6571 65.1853 10.3338C63.0542 8.89475 60.7621 8.76648 58.4417 9.69622C55.8625 10.7305 54.2186 12.736 53.2673 15.351C53.1049 15.7989 52.972 16.2574 52.8692 16.7233H67.0975C67.9216 16.7233 68.683 17.1729 69.0951 17.9026C69.5071 18.6323 69.5071 19.5313 69.0951 20.261C68.683 20.9907 67.9216 21.4402 67.0975 21.4402" fill="#27313D"/>
</svg>
