
<svg fill="none" height="20" viewBox="0 0 73 20" width="73" xmlns="http://www.w3.org/2000/svg" xmlns:xlink="http://www.w3.org/1999/xlink"><clipPath id="a"><path d="m.100006 2.5h72.8v16h-72.8z"/></clipPath><g clip-path="url(#a)" fill="#CF1A68"><path d="m4.11886 15.1432c-2.00749 0-3.428066-.6843-4.0501039-1.2601l1.3323239-1.9799c.83453.7199 1.86527 1.0803 2.71778 1.0803.72827 0 1.04787-.2162 1.04787-.6122 0-.3057-.24847-.5401-1.02988-.7199l-1.5808-.3778c-1.54567-.3612-2.27395-1.31555-2.27395-2.62942 0-1.80016 1.42058-2.8622 3.5343-2.8622 1.63392 0 2.94826.50367 3.58829 1.08027l-1.33233 1.97993c-.58606-.54015-1.43857-.93612-2.25596-.93612-.67516 0-.97674.23446-.97674.59397 0 .3595.31958.55838.92362.70165l1.58081.36038c1.61592.36038 2.39817 1.24184 2.39817 2.53834 0 1.854-1.3683 3.0428-3.6234 3.0428zm9.48474-.1806h2.6647v-4.8422c0-1.18792.5681-1.92605 1.6699-1.92605 1.0479 0 1.5989.61221 1.5989 1.92605v4.843h2.6646v-5.52725c0-2.41238-1.1901-3.65417-3.2328-3.65417-1.1721 0-2.0606.46806-2.6997 1.38594v-.57573c0-.39599-.2305-.63045-.6221-.63045h-2.0426v9.00086zm19.3972-9.00086v7.79466c0 3.3841-2.1669 4.7344-4.8315 4.7344-1.7762 0-3.2508-.4681-4.1384-1.2783l1.3854-2.0884c.5862.5757 1.5277 1.0985 2.753 1.0985 1.3675 0 2.1669-.8823 2.1669-2.1059v-.5757c-.6393.8102-1.5629 1.1697-2.6998 1.1697-2.1489 0-4.0141-1.9078-4.0141-4.4643 0-2.55658 1.8652-4.46442 4.0141-4.46442 1.1369 0 2.0956.43246 2.6998 1.35034v-.54013c0-.39599.2313-.63045.6219-.63045zm-2.5756 4.28466c0-1.16976-.8705-2.08852-2.0777-2.08852-1.1189 0-2.0247.91789-2.0247 2.08852 0 1.1697.9058 2.0884 2.0247 2.0884 1.2072 0 2.0777-.9187 2.0777-2.0884zm14.2273.2162c0 2.7727-1.8654 4.6806-4.1745 4.6806-1.208 0-2.1667-.3604-2.8599-1.1697v4.3028h-2.6646v-12.31456h2.0433c.3908 0 .6221.23446.6221.63045v.54013c.6571-.91788 1.6519-1.35034 2.86-1.35034 2.3091 0 4.1736 1.90784 4.1736 4.68062zm-2.6999 0c0-1.35036-.9415-2.30472-2.1848-2.30472-1.2611 0-2.2379.95436-2.2379 2.30472 0 1.3503.9768 2.3047 2.2379 2.3047 1.244-.0009 2.1848-.9552 2.1848-2.3047zm13.5349-4.50086v9.00086h-2.6646v-1.1698c-.6571.9179-1.6519 1.3504-2.86 1.3504-2.309 0-4.1744-1.9079-4.1744-4.6806 0-2.77278 1.8654-4.68062 4.1744-4.68062 1.2081 0 2.2029.43246 2.86 1.35034v-.54013c0-.39599.2313-.63045.6221-.63045zm-2.5756 4.50086c0-1.35036-.9767-2.30472-2.2379-2.30472-1.2433 0-2.1848.95436-2.1848 2.30472 0 1.3503.9415 2.3047 2.1848 2.3047 1.2612-.0009 2.2379-.9552 2.2379-2.3047zm7.9761 4.6806c2.256 0 3.6234-1.188 3.6234-3.042 0-1.2965-.7814-2.17788-2.3983-2.53826l-1.5808-.36038c-.604-.14415-.9236-.34215-.9236-.70167 0-.35951.3017-.59397.9767-.59397.8175 0 1.67.39599 2.256.93611l1.3325-1.97991c-.6393-.57574-1.9536-1.08027-3.5885-1.08027-2.1137 0-3.5343 1.06204-3.5343 2.86221 0 1.31385.7283 2.26824 2.274 2.62854l1.5808.3778c.7814.1798 1.0299.4142 1.0299.7199 0 .396-.3195.6122-1.0478.6122-.8526 0-1.8825-.3604-2.7178-1.0803l-1.3323 1.9799c.622.5758 2.0425 1.2601 4.0501 1.2601zm8.4188 0c2.256 0 3.6235-1.188 3.6235-3.042 0-1.2965-.7814-2.17788-2.3982-2.53826l-1.5808-.36038c-.6041-.14415-.9237-.34215-.9237-.70167 0-.35951.3016-.59397.9768-.59397.8174 0 1.6699.39599 2.2559.93611l1.3325-1.97991c-.6393-.57574-1.9535-1.08027-3.5884-1.08027-2.1137 0-3.5343 1.06204-3.5343 2.86221 0 1.31385.7282 2.26824 2.274 2.62854l1.5808.3778c.7813.1798 1.0298.4142 1.0298.7199 0 .396-.3196.6122-1.0479.6122-.8525 0-1.8824-.3604-2.7177-1.0803l-1.3323 1.9799c.6221.5758 2.0434 1.2601 4.05 1.2601z"/><path d="m10.3715 8.84163c.8705 0 1.5457-.68429 1.5457-1.56657s-.6752-1.56656-1.5457-1.56656c-.87053 0-1.54569.68428-1.54569 1.56656.00084.88228.67516 1.56657 1.54569 1.56657zm-1.66993 6.12037h3.33893l-.7103-5.59848c-.5329.1624-1.38541.1624-1.91835 0z"/></g></svg>