<svg width="452" height="356" viewBox="0 0 452 356" fill="none" xmlns="http://www.w3.org/2000/svg">
<rect width="452" height="356" fill="white"/>
<g opacity="0.7">
<g filter="url(#filter0_d_6066_13794)">
<rect x="6" y="227" width="115" height="28.26" rx="2.71" fill="white"/>
</g>
<line x1="64" y1="255.26" x2="64" y2="272.76" stroke="#E9EAEE"/>
<g filter="url(#filter1_d_6066_13794)">
<rect x="6" y="272.76" width="115" height="28.26" rx="2.71" fill="white"/>
</g>
</g>
<g opacity="0.7">
<g filter="url(#filter2_d_6066_13794)">
<rect x="331" y="69" width="115" height="28.26" rx="2.71" fill="white"/>
</g>
<line x1="389" y1="97.2598" x2="389" y2="114.76" stroke="#E9EAEE"/>
<g filter="url(#filter3_d_6066_13794)">
<rect x="331" y="114.76" width="115" height="28.26" rx="2.71" fill="white"/>
</g>
</g>
<g filter="url(#filter4_d_6066_13794)">
<rect x="84" y="33" width="271" height="56.52" rx="5.42" fill="white"/>
<path d="M109.578 56.0779V66.2598H107.734V57.8727H107.674L105.293 59.394V57.7037L107.823 56.0779H109.578ZM114.596 66.3691C114.294 66.3691 114.036 66.2631 113.82 66.051C113.605 65.8388 113.499 65.5803 113.502 65.2754C113.499 64.9771 113.605 64.7219 113.82 64.5098C114.036 64.2976 114.294 64.1916 114.596 64.1916C114.887 64.1916 115.141 64.2976 115.356 64.5098C115.575 64.7219 115.686 64.9771 115.69 65.2754C115.686 65.4776 115.633 65.6615 115.53 65.8272C115.431 65.993 115.298 66.1255 115.133 66.225C114.97 66.3211 114.791 66.3691 114.596 66.3691ZM130.631 56.0779V66.2598H128.991L124.193 59.3244H124.108V66.2598H122.264V56.0779H123.915L128.707 63.0183H128.797V56.0779H130.631ZM133.761 66.2598V56.0779H140.383V57.6241H135.605V60.3883H140.04V61.9345H135.605V64.7136H140.423V66.2598H133.761ZM145.528 66.2598L142.654 56.0779H144.638L146.472 63.5602H146.567L148.526 56.0779H150.33L152.294 63.5652H152.383L154.218 56.0779H156.202L153.328 66.2598H151.508L149.47 59.1156H149.391L147.347 66.2598H145.528ZM163.193 66.2598V56.0779H169.716V57.6241H165.038V60.3883H169.269V61.9345H165.038V66.2598H163.193ZM181.614 61.1689C181.614 62.2659 181.409 63.2056 180.998 63.9877C180.59 64.7666 180.033 65.3632 179.327 65.7775C178.625 66.1918 177.828 66.399 176.936 66.399C176.045 66.399 175.246 66.1918 174.54 65.7775C173.837 65.3599 173.28 64.7617 172.869 63.9828C172.462 63.2006 172.258 62.2626 172.258 61.1689C172.258 60.0718 172.462 59.1338 172.869 58.3549C173.28 57.5727 173.837 56.9745 174.54 56.5602C175.246 56.1459 176.045 55.9387 176.936 55.9387C177.828 55.9387 178.625 56.1459 179.327 56.5602C180.033 56.9745 180.59 57.5727 180.998 58.3549C181.409 59.1338 181.614 60.0718 181.614 61.1689ZM179.76 61.1689C179.76 60.3966 179.639 59.7453 179.397 59.215C179.158 58.6814 178.827 58.2787 178.403 58.0069C177.978 57.7318 177.49 57.5943 176.936 57.5943C176.383 57.5943 175.894 57.7318 175.469 58.0069C175.045 58.2787 174.712 58.6814 174.47 59.215C174.232 59.7453 174.112 60.3966 174.112 61.1689C174.112 61.9411 174.232 62.594 174.47 63.1277C174.712 63.658 175.045 64.0607 175.469 64.3358C175.894 64.6075 176.383 64.7434 176.936 64.7434C177.49 64.7434 177.978 64.6075 178.403 64.3358C178.827 64.0607 179.158 63.658 179.397 63.1277C179.639 62.594 179.76 61.9411 179.76 61.1689ZM184.478 66.2598V56.0779H188.296C189.079 56.0779 189.735 56.2138 190.265 56.4856C190.799 56.7574 191.201 57.1386 191.473 57.6291C191.748 58.1163 191.886 58.6847 191.886 59.3343C191.886 59.9873 191.747 60.554 191.468 61.0346C191.193 61.5119 190.787 61.8815 190.25 62.1433C189.713 62.4018 189.054 62.5311 188.271 62.5311H185.552V60.9998H188.023C188.48 60.9998 188.855 60.9368 189.146 60.8109C189.438 60.6816 189.654 60.4944 189.793 60.2491C189.935 60.0005 190.007 59.6956 190.007 59.3343C190.007 58.9731 189.935 58.6648 189.793 58.4096C189.65 58.1511 189.433 57.9556 189.142 57.823C188.85 57.6871 188.474 57.6191 188.013 57.6191H186.323V66.2598H184.478ZM189.738 61.6461L192.259 66.2598H190.2L187.725 61.6461H189.738ZM194.704 56.0779H196.961L199.983 63.4558H200.103L203.126 56.0779H205.383V66.2598H203.613V59.2647H203.518L200.704 66.2299H199.382L196.568 59.2498H196.474V66.2598H194.704V56.0779ZM213.104 66.2598V56.0779H216.922C217.704 56.0779 218.36 56.2138 218.891 56.4856C219.424 56.7574 219.827 57.1386 220.099 57.6291C220.374 58.1163 220.511 58.6847 220.511 59.3343C220.511 59.9873 220.372 60.554 220.094 61.0346C219.819 61.5119 219.413 61.8815 218.876 62.1433C218.339 62.4018 217.679 62.5311 216.897 62.5311H214.178V60.9998H216.649C217.106 60.9998 217.48 60.9368 217.772 60.8109C218.064 60.6816 218.279 60.4944 218.418 60.2491C218.561 60.0005 218.632 59.6956 218.632 59.3343C218.632 58.9731 218.561 58.6648 218.418 58.4096C218.276 58.1511 218.059 57.9556 217.767 57.823C217.475 57.6871 217.099 57.6191 216.639 57.6191H214.948V66.2598H213.104ZM218.364 61.6461L220.884 66.2598H218.826L216.35 61.6461H218.364ZM223.329 66.2598V56.0779H229.951V57.6241H225.174V60.3883H229.608V61.9345H225.174V64.7136H229.991V66.2598H223.329ZM238.487 58.877C238.44 58.4428 238.245 58.1047 237.9 57.8627C237.559 57.6208 237.114 57.4998 236.568 57.4998C236.183 57.4998 235.853 57.5578 235.578 57.6738C235.303 57.7898 235.093 57.9473 234.947 58.1461C234.801 58.345 234.726 58.572 234.723 58.8272C234.723 59.0394 234.771 59.2233 234.867 59.3791C234.967 59.5349 235.101 59.6674 235.27 59.7768C235.439 59.8829 235.626 59.9724 235.832 60.0453C236.037 60.1182 236.244 60.1795 236.453 60.2292L237.408 60.4679C237.792 60.5574 238.162 60.6783 238.516 60.8308C238.874 60.9833 239.194 61.1755 239.476 61.4075C239.761 61.6395 239.986 61.9196 240.152 62.2477C240.318 62.5758 240.401 62.9603 240.401 63.4011C240.401 63.9977 240.248 64.523 239.943 64.9771C239.638 65.4279 239.197 65.7808 238.621 66.036C238.047 66.2879 237.353 66.4139 236.538 66.4139C235.746 66.4139 235.058 66.2913 234.474 66.046C233.894 65.8007 233.44 65.4428 233.112 64.9721C232.787 64.5015 232.612 63.9281 232.585 63.252H234.4C234.426 63.6066 234.536 63.9016 234.728 64.1369C234.92 64.3722 235.171 64.5479 235.479 64.6639C235.79 64.7799 236.138 64.8379 236.523 64.8379C236.924 64.8379 237.275 64.7782 237.577 64.6589C237.882 64.5363 238.12 64.3672 238.293 64.1518C238.465 63.9331 238.553 63.6779 238.556 63.3862C238.553 63.121 238.475 62.9023 238.322 62.7299C238.17 62.5543 237.956 62.4084 237.681 62.2924C237.409 62.1731 237.091 62.0671 236.727 61.9743L235.568 61.676C234.73 61.4605 234.067 61.1341 233.58 60.6966C233.096 60.2557 232.854 59.6708 232.854 58.9416C232.854 58.3417 233.016 57.8163 233.341 57.3656C233.669 56.9148 234.115 56.5652 234.678 56.3166C235.242 56.0647 235.88 55.9387 236.592 55.9387C237.315 55.9387 237.948 56.0647 238.492 56.3166C239.038 56.5652 239.468 56.9115 239.779 57.3556C240.091 57.7965 240.251 58.3036 240.261 58.877H238.487ZM243.165 66.2598V56.0779H246.983C247.765 56.0779 248.422 56.2238 248.952 56.5154C249.486 56.8071 249.888 57.2082 250.16 57.7186C250.435 58.2257 250.573 58.8024 250.573 59.4487C250.573 60.1016 250.435 60.6816 250.16 61.1887C249.885 61.6958 249.479 62.0952 248.942 62.3869C248.405 62.6752 247.744 62.8194 246.958 62.8194H244.428V61.3031H246.71C247.167 61.3031 247.542 61.2235 247.833 61.0645C248.125 60.9054 248.34 60.6866 248.48 60.4082C248.622 60.1298 248.693 59.81 248.693 59.4487C248.693 59.0874 248.622 58.7692 248.48 58.4941C248.34 58.219 248.123 58.0053 247.828 57.8528C247.537 57.697 247.16 57.6191 246.7 57.6191H245.009V66.2598H243.165ZM262.393 61.1689C262.393 62.2659 262.187 63.2056 261.776 63.9877C261.369 64.7666 260.812 65.3632 260.106 65.7775C259.403 66.1918 258.606 66.399 257.714 66.399C256.823 66.399 256.024 66.1918 255.318 65.7775C254.616 65.3599 254.059 64.7617 253.648 63.9828C253.24 63.2006 253.036 62.2626 253.036 61.1689C253.036 60.0718 253.24 59.1338 253.648 58.3549C254.059 57.5727 254.616 56.9745 255.318 56.5602C256.024 56.1459 256.823 55.9387 257.714 55.9387C258.606 55.9387 259.403 56.1459 260.106 56.5602C260.812 56.9745 261.369 57.5727 261.776 58.3549C262.187 59.1338 262.393 60.0718 262.393 61.1689ZM260.538 61.1689C260.538 60.3966 260.417 59.7453 260.175 59.215C259.937 58.6814 259.605 58.2787 259.181 58.0069C258.757 57.7318 258.268 57.5943 257.714 57.5943C257.161 57.5943 256.672 57.7318 256.248 58.0069C255.824 58.2787 255.491 58.6814 255.249 59.215C255.01 59.7453 254.891 60.3966 254.891 61.1689C254.891 61.9411 255.01 62.594 255.249 63.1277C255.491 63.658 255.824 64.0607 256.248 64.3358C256.672 64.6075 257.161 64.7434 257.714 64.7434C258.268 64.7434 258.757 64.6075 259.181 64.3358C259.605 64.0607 259.937 63.658 260.175 63.1277C260.417 62.594 260.538 61.9411 260.538 61.1689ZM273.624 56.0779V66.2598H271.983L267.185 59.3244H267.101V66.2598H265.257V56.0779H266.907L271.7 63.0183H271.789V56.0779H273.624ZM282.287 58.877C282.24 58.4428 282.045 58.1047 281.7 57.8627C281.359 57.6208 280.915 57.4998 280.368 57.4998C279.983 57.4998 279.654 57.5578 279.378 57.6738C279.103 57.7898 278.893 57.9473 278.747 58.1461C278.601 58.345 278.527 58.572 278.523 58.8272C278.523 59.0394 278.571 59.2233 278.668 59.3791C278.767 59.5349 278.901 59.6674 279.07 59.7768C279.239 59.8829 279.427 59.9724 279.632 60.0453C279.838 60.1182 280.045 60.1795 280.253 60.2292L281.208 60.4679C281.592 60.5574 281.962 60.6783 282.317 60.8308C282.675 60.9833 282.994 61.1755 283.276 61.4075C283.561 61.6395 283.787 61.9196 283.952 62.2477C284.118 62.5758 284.201 62.9603 284.201 63.4011C284.201 63.9977 284.048 64.523 283.744 64.9771C283.439 65.4279 282.998 65.7808 282.421 66.036C281.848 66.2879 281.153 66.4139 280.338 66.4139C279.546 66.4139 278.858 66.2913 278.275 66.046C277.695 65.8007 277.241 65.4428 276.913 64.9721C276.588 64.5015 276.412 63.9281 276.386 63.252H278.2C278.227 63.6066 278.336 63.9016 278.528 64.1369C278.721 64.3722 278.971 64.5479 279.279 64.6639C279.591 64.7799 279.939 64.8379 280.323 64.8379C280.724 64.8379 281.075 64.7782 281.377 64.6589C281.682 64.5363 281.921 64.3672 282.093 64.1518C282.265 63.9331 282.353 63.6779 282.356 63.3862C282.353 63.121 282.275 62.9023 282.123 62.7299C281.97 62.5543 281.757 62.4084 281.481 62.2924C281.21 62.1731 280.892 62.0671 280.527 61.9743L279.369 61.676C278.53 61.4605 277.867 61.1341 277.38 60.6966C276.896 60.2557 276.654 59.6708 276.654 58.9416C276.654 58.3417 276.816 57.8163 277.141 57.3656C277.469 56.9148 277.915 56.5652 278.479 56.3166C279.042 56.0647 279.68 55.9387 280.393 55.9387C281.115 55.9387 281.748 56.0647 282.292 56.3166C282.839 56.5652 283.268 56.9115 283.579 57.3556C283.891 57.7965 284.052 58.3036 284.062 58.877H282.287ZM286.965 66.2598V56.0779H293.587V57.6241H288.81V60.3883H293.244V61.9345H288.81V64.7136H293.627V66.2598H286.965Z" fill="#7B849C"/>
</g>
<line x1="220.5" y1="89.5195" x2="220.5" y2="124.52" stroke="#E9EAEE" stroke-width="2"/>
<g filter="url(#filter5_d_6066_13794)">
<rect x="84" y="124.52" width="271" height="56.52" rx="5.42" fill="white"/>
<path d="M104.388 157.779V156.447L107.923 152.982C108.261 152.64 108.542 152.337 108.768 152.072C108.993 151.807 109.162 151.55 109.275 151.301C109.388 151.053 109.444 150.788 109.444 150.506C109.444 150.184 109.371 149.909 109.225 149.681C109.079 149.449 108.879 149.27 108.624 149.144C108.368 149.018 108.078 148.955 107.754 148.955C107.419 148.955 107.126 149.024 106.874 149.164C106.622 149.299 106.426 149.493 106.287 149.745C106.151 149.997 106.083 150.297 106.083 150.645H104.328C104.328 149.999 104.476 149.437 104.771 148.96C105.066 148.482 105.472 148.113 105.989 147.851C106.509 147.589 107.106 147.458 107.779 147.458C108.461 147.458 109.061 147.586 109.578 147.841C110.095 148.096 110.496 148.446 110.781 148.89C111.07 149.334 111.214 149.841 111.214 150.411C111.214 150.793 111.141 151.167 110.995 151.535C110.849 151.903 110.592 152.311 110.225 152.758C109.86 153.205 109.348 153.747 108.688 154.384L106.933 156.169V156.238H111.368V157.779H104.388ZM114.596 157.889C114.294 157.889 114.036 157.783 113.82 157.57C113.605 157.358 113.499 157.1 113.502 156.795C113.499 156.497 113.605 156.241 113.82 156.029C114.036 155.817 114.294 155.711 114.596 155.711C114.887 155.711 115.141 155.817 115.356 156.029C115.575 156.241 115.686 156.497 115.69 156.795C115.686 156.997 115.633 157.181 115.53 157.347C115.431 157.512 115.298 157.645 115.133 157.744C114.97 157.841 114.791 157.889 114.596 157.889ZM127.797 150.396C127.751 149.962 127.555 149.624 127.211 149.382C126.869 149.14 126.425 149.019 125.878 149.019C125.494 149.019 125.164 149.077 124.889 149.193C124.614 149.309 124.403 149.467 124.258 149.666C124.112 149.865 124.037 150.092 124.034 150.347C124.034 150.559 124.082 150.743 124.178 150.899C124.278 151.054 124.412 151.187 124.581 151.296C124.75 151.402 124.937 151.492 125.143 151.565C125.348 151.638 125.555 151.699 125.764 151.749L126.719 151.987C127.103 152.077 127.473 152.198 127.827 152.35C128.185 152.503 128.505 152.695 128.787 152.927C129.072 153.159 129.297 153.439 129.463 153.767C129.629 154.095 129.711 154.48 129.711 154.921C129.711 155.517 129.559 156.043 129.254 156.497C128.949 156.947 128.508 157.3 127.932 157.556C127.358 157.807 126.664 157.933 125.849 157.933C125.056 157.933 124.369 157.811 123.785 157.566C123.205 157.32 122.751 156.962 122.423 156.492C122.098 156.021 121.923 155.448 121.896 154.771H123.711C123.737 155.126 123.847 155.421 124.039 155.656C124.231 155.892 124.481 156.067 124.79 156.183C125.101 156.299 125.449 156.357 125.834 156.357C126.235 156.357 126.586 156.298 126.888 156.178C127.193 156.056 127.431 155.887 127.604 155.671C127.776 155.453 127.864 155.197 127.867 154.906C127.864 154.641 127.786 154.422 127.633 154.249C127.481 154.074 127.267 153.928 126.992 153.812C126.72 153.693 126.402 153.587 126.037 153.494L124.879 153.195C124.041 152.98 123.378 152.654 122.89 152.216C122.407 151.775 122.165 151.19 122.165 150.461C122.165 149.861 122.327 149.336 122.652 148.885C122.98 148.434 123.426 148.085 123.989 147.836C124.553 147.584 125.191 147.458 125.903 147.458C126.626 147.458 127.259 147.584 127.802 147.836C128.349 148.085 128.778 148.431 129.09 148.875C129.402 149.316 129.562 149.823 129.572 150.396H127.797ZM132.476 157.779V147.597H139.098V149.144H134.32V151.908H138.755V153.454H134.32V156.233H139.138V157.779H132.476ZM150.467 147.597V157.779H148.826L144.029 150.844H143.944V157.779H142.1V147.597H143.75L148.543 154.538H148.632V147.597H150.467ZM157.047 157.779H153.597V147.597H157.117C158.127 147.597 158.996 147.801 159.722 148.209C160.451 148.613 161.011 149.195 161.402 149.954C161.793 150.713 161.989 151.621 161.989 152.678C161.989 153.739 161.792 154.651 161.397 155.413C161.006 156.175 160.441 156.76 159.702 157.168C158.966 157.575 158.081 157.779 157.047 157.779ZM155.441 156.183H156.957C157.667 156.183 158.258 156.054 158.732 155.796C159.206 155.534 159.563 155.144 159.801 154.627C160.04 154.107 160.159 153.457 160.159 152.678C160.159 151.9 160.04 151.253 159.801 150.74C159.563 150.222 159.21 149.836 158.742 149.581C158.278 149.323 157.702 149.193 157.012 149.193H155.441V156.183ZM169.454 157.779V147.597H176.076V149.144H171.298V151.908H175.733V153.454H171.298V156.233H176.116V157.779H169.454ZM179.078 147.597H181.335L184.358 154.975H184.477L187.5 147.597H189.757V157.779H187.987V150.784H187.892L185.078 157.749H183.756L180.942 150.769H180.848V157.779H179.078V147.597ZM194.193 157.779H192.224L195.809 147.597H198.086L201.675 157.779H199.706L196.987 149.686H196.907L194.193 157.779ZM194.257 153.787H199.627V155.269H194.257V153.787ZM205.981 147.597V157.779H204.136V147.597H205.981ZM209.098 157.779V147.597H210.942V156.233H215.427V157.779H209.098Z" fill="#7B849C"/>
</g>
<line x1="220.5" y1="181.04" x2="220.5" y2="216.04" stroke="#E9EAEE" stroke-width="2"/>
<g filter="url(#filter6_d_6066_13794)">
<rect x="84" y="216.04" width="271" height="56.52" rx="5.42" fill="white"/>
<path d="M107.833 249.439C107.117 249.439 106.481 249.316 105.924 249.071C105.371 248.826 104.933 248.484 104.612 248.047C104.29 247.609 104.119 247.104 104.1 246.531H105.969C105.985 246.806 106.077 247.046 106.242 247.252C106.408 247.454 106.628 247.611 106.904 247.724C107.179 247.836 107.487 247.893 107.828 247.893C108.193 247.893 108.516 247.83 108.798 247.704C109.079 247.575 109.3 247.396 109.459 247.167C109.618 246.938 109.696 246.675 109.693 246.377C109.696 246.068 109.616 245.796 109.454 245.561C109.292 245.326 109.056 245.142 108.748 245.009C108.443 244.877 108.075 244.81 107.644 244.81H106.744V243.389H107.644C107.999 243.389 108.309 243.327 108.574 243.205C108.842 243.082 109.053 242.91 109.205 242.688C109.358 242.462 109.432 242.202 109.429 241.907C109.432 241.619 109.368 241.368 109.235 241.156C109.106 240.941 108.922 240.774 108.683 240.654C108.448 240.535 108.171 240.475 107.853 240.475C107.542 240.475 107.253 240.532 106.988 240.644C106.723 240.757 106.509 240.918 106.347 241.127C106.184 241.332 106.098 241.577 106.088 241.862H104.313C104.327 241.292 104.491 240.792 104.806 240.361C105.124 239.927 105.548 239.589 106.078 239.347C106.609 239.101 107.203 238.979 107.863 238.979C108.542 238.979 109.132 239.106 109.633 239.362C110.137 239.613 110.526 239.953 110.801 240.381C111.076 240.808 111.214 241.281 111.214 241.798C111.217 242.371 111.048 242.852 110.707 243.239C110.369 243.627 109.925 243.881 109.374 244V244.08C110.09 244.179 110.639 244.444 111.02 244.875C111.404 245.303 111.595 245.835 111.592 246.471C111.592 247.041 111.429 247.551 111.105 248.002C110.783 248.45 110.339 248.801 109.772 249.056C109.209 249.311 108.562 249.439 107.833 249.439ZM114.596 249.409C114.294 249.409 114.036 249.303 113.82 249.091C113.605 248.879 113.499 248.62 113.502 248.315C113.499 248.017 113.605 247.762 113.82 247.55C114.036 247.338 114.294 247.232 114.596 247.232C114.887 247.232 115.141 247.338 115.356 247.55C115.575 247.762 115.686 248.017 115.69 248.315C115.686 248.518 115.633 248.702 115.53 248.867C115.431 249.033 115.298 249.166 115.133 249.265C114.97 249.361 114.791 249.409 114.596 249.409ZM130.979 242.553H129.12C129.067 242.248 128.969 241.978 128.827 241.743C128.684 241.504 128.507 241.302 128.295 241.136C128.082 240.971 127.84 240.846 127.569 240.764C127.3 240.677 127.01 240.634 126.699 240.634C126.145 240.634 125.655 240.774 125.227 241.052C124.8 241.327 124.465 241.731 124.223 242.265C123.981 242.795 123.86 243.443 123.86 244.209C123.86 244.988 123.981 245.644 124.223 246.178C124.468 246.708 124.803 247.109 125.227 247.381C125.655 247.649 126.144 247.783 126.694 247.783C126.999 247.783 127.284 247.744 127.549 247.664C127.817 247.581 128.058 247.46 128.27 247.301C128.485 247.142 128.666 246.947 128.812 246.715C128.961 246.483 129.064 246.217 129.12 245.919L130.979 245.929C130.91 246.413 130.759 246.867 130.527 247.291C130.298 247.716 129.998 248.09 129.627 248.415C129.256 248.736 128.822 248.988 128.324 249.171C127.827 249.35 127.275 249.439 126.669 249.439C125.774 249.439 124.975 249.232 124.273 248.818C123.57 248.403 123.016 247.805 122.612 247.023C122.208 246.241 122.006 245.303 122.006 244.209C122.006 243.112 122.209 242.174 122.617 241.395C123.025 240.613 123.58 240.015 124.282 239.6C124.985 239.186 125.781 238.979 126.669 238.979C127.236 238.979 127.763 239.058 128.25 239.217C128.737 239.377 129.171 239.61 129.552 239.918C129.934 240.223 130.247 240.598 130.492 241.042C130.741 241.483 130.903 241.987 130.979 242.553ZM133.788 249.3V239.118H137.607C138.389 239.118 139.045 239.254 139.575 239.526C140.109 239.797 140.512 240.179 140.783 240.669C141.058 241.156 141.196 241.725 141.196 242.374C141.196 243.027 141.057 243.594 140.778 244.075C140.503 244.552 140.097 244.921 139.56 245.183C139.023 245.442 138.364 245.571 137.582 245.571H134.862V244.04H137.333C137.79 244.04 138.165 243.977 138.457 243.851C138.748 243.722 138.964 243.534 139.103 243.289C139.245 243.041 139.317 242.736 139.317 242.374C139.317 242.013 139.245 241.705 139.103 241.45C138.96 241.191 138.743 240.996 138.452 240.863C138.16 240.727 137.784 240.659 137.323 240.659H135.633V249.3H133.788ZM139.048 244.686L141.569 249.3H139.511L137.035 244.686H139.048ZM144.014 249.3V239.118H150.636V240.664H145.858V243.428H150.293V244.975H145.858V247.754H150.676V249.3H144.014ZM154.945 249.3H152.976L156.561 239.118H158.838L162.427 249.3H160.459L157.739 241.206H157.66L154.945 249.3ZM155.01 245.308H160.379V246.789H155.01V245.308ZM163.211 240.664V239.118H171.334V240.664H168.187V249.3H166.358V240.664H163.211ZM174.02 249.3V239.118H180.642V240.664H175.865V243.428H180.299V244.975H175.865V247.754H180.682V249.3H174.02ZM188.237 249.3V239.118H192.055C192.837 239.118 193.493 239.254 194.024 239.526C194.557 239.797 194.96 240.179 195.232 240.669C195.507 241.156 195.645 241.725 195.645 242.374C195.645 243.027 195.505 243.594 195.227 244.075C194.952 244.552 194.546 244.921 194.009 245.183C193.472 245.442 192.812 245.571 192.03 245.571H189.311V244.04H191.782C192.239 244.04 192.613 243.977 192.905 243.851C193.197 243.722 193.412 243.534 193.551 243.289C193.694 243.041 193.765 242.736 193.765 242.374C193.765 242.013 193.694 241.705 193.551 241.45C193.409 241.191 193.192 240.996 192.9 240.863C192.609 240.727 192.232 240.659 191.772 240.659H190.081V249.3H188.237ZM193.497 244.686L196.017 249.3H193.959L191.483 244.686H193.497ZM207.56 244.209C207.56 245.306 207.355 246.246 206.944 247.028C206.536 247.807 205.979 248.403 205.273 248.818C204.571 249.232 203.774 249.439 202.882 249.439C201.99 249.439 201.192 249.232 200.486 248.818C199.783 248.4 199.226 247.802 198.815 247.023C198.408 246.241 198.204 245.303 198.204 244.209C198.204 243.112 198.408 242.174 198.815 241.395C199.226 240.613 199.783 240.015 200.486 239.6C201.192 239.186 201.99 238.979 202.882 238.979C203.774 238.979 204.571 239.186 205.273 239.6C205.979 240.015 206.536 240.613 206.944 241.395C207.355 242.174 207.56 243.112 207.56 244.209ZM205.706 244.209C205.706 243.437 205.585 242.785 205.343 242.255C205.104 241.721 204.773 241.319 204.349 241.047C203.924 240.772 203.436 240.634 202.882 240.634C202.329 240.634 201.84 240.772 201.415 241.047C200.991 241.319 200.658 241.721 200.416 242.255C200.178 242.785 200.058 243.437 200.058 244.209C200.058 244.981 200.178 245.634 200.416 246.168C200.658 246.698 200.991 247.101 201.415 247.376C201.84 247.648 202.329 247.783 202.882 247.783C203.436 247.783 203.924 247.648 204.349 247.376C204.773 247.101 205.104 246.698 205.343 246.168C205.585 245.634 205.706 244.981 205.706 244.209ZM212.307 249.3L209.434 239.118H211.417L213.252 246.6H213.346L215.305 239.118H217.11L219.073 246.605H219.163L220.997 239.118H222.981L220.108 249.3H218.288L216.25 242.156H216.17L214.127 249.3H212.307ZM231.817 239.118V249.3H229.973V239.118H231.817ZM243.302 239.118V249.3H241.661L236.863 242.364H236.779V249.3H234.934V239.118H236.585L241.378 246.058H241.467V239.118H243.302ZM250.577 240.664V239.118H258.7V240.664H255.553V249.3H253.724V240.664H250.577ZM261.463 249.3H259.495L263.079 239.118H265.356L268.946 249.3H266.977L264.257 241.206H264.178L261.463 249.3ZM261.528 245.308H266.897V246.789H261.528V245.308ZM271.407 249.3V239.118H275.304C276.04 239.118 276.652 239.234 277.139 239.466C277.629 239.695 277.996 240.008 278.238 240.406C278.483 240.803 278.606 241.254 278.606 241.758C278.606 242.172 278.526 242.527 278.367 242.822C278.208 243.113 277.994 243.35 277.726 243.533C277.457 243.715 277.157 243.846 276.826 243.926V244.025C277.187 244.045 277.533 244.156 277.865 244.358C278.2 244.557 278.473 244.839 278.685 245.203C278.897 245.568 279.003 246.009 279.003 246.526C279.003 247.053 278.876 247.527 278.62 247.948C278.365 248.365 277.981 248.695 277.467 248.937C276.953 249.179 276.307 249.3 275.528 249.3H271.407ZM273.251 247.759H275.235C275.904 247.759 276.387 247.631 276.682 247.376C276.98 247.117 277.129 246.786 277.129 246.381C277.129 246.08 277.054 245.808 276.905 245.566C276.756 245.321 276.544 245.129 276.269 244.989C275.994 244.847 275.666 244.776 275.285 244.776H273.251V247.759ZM273.251 243.448H275.076C275.394 243.448 275.681 243.39 275.936 243.274C276.191 243.155 276.392 242.988 276.537 242.772C276.687 242.553 276.761 242.295 276.761 241.997C276.761 241.602 276.622 241.277 276.343 241.022C276.068 240.767 275.659 240.639 275.115 240.639H273.251V243.448ZM281.728 249.3V239.118H283.572V247.754H288.057V249.3H281.728ZM290.778 249.3V239.118H297.4V240.664H292.622V243.428H297.057V244.975H292.622V247.754H297.439V249.3H290.778Z" fill="#7B849C"/>
</g>
<defs>
<filter id="filter0_d_6066_13794" x="1" y="222" width="125" height="38.2598" filterUnits="userSpaceOnUse" color-interpolation-filters="sRGB">
<feFlood flood-opacity="0" result="BackgroundImageFix"/>
<feColorMatrix in="SourceAlpha" type="matrix" values="0 0 0 0 0 0 0 0 0 0 0 0 0 0 0 0 0 0 127 0" result="hardAlpha"/>
<feOffset/>
<feGaussianBlur stdDeviation="2.5"/>
<feColorMatrix type="matrix" values="0 0 0 0 0.74902 0 0 0 0 0.74902 0 0 0 0 0.74902 0 0 0 0.5 0"/>
<feBlend mode="normal" in2="BackgroundImageFix" result="effect1_dropShadow_6066_13794"/>
<feBlend mode="normal" in="SourceGraphic" in2="effect1_dropShadow_6066_13794" result="shape"/>
</filter>
<filter id="filter1_d_6066_13794" x="1" y="267.76" width="125" height="38.2598" filterUnits="userSpaceOnUse" color-interpolation-filters="sRGB">
<feFlood flood-opacity="0" result="BackgroundImageFix"/>
<feColorMatrix in="SourceAlpha" type="matrix" values="0 0 0 0 0 0 0 0 0 0 0 0 0 0 0 0 0 0 127 0" result="hardAlpha"/>
<feOffset/>
<feGaussianBlur stdDeviation="2.5"/>
<feColorMatrix type="matrix" values="0 0 0 0 0.74902 0 0 0 0 0.74902 0 0 0 0 0.74902 0 0 0 0.5 0"/>
<feBlend mode="normal" in2="BackgroundImageFix" result="effect1_dropShadow_6066_13794"/>
<feBlend mode="normal" in="SourceGraphic" in2="effect1_dropShadow_6066_13794" result="shape"/>
</filter>
<filter id="filter2_d_6066_13794" x="326" y="64" width="125" height="38.2598" filterUnits="userSpaceOnUse" color-interpolation-filters="sRGB">
<feFlood flood-opacity="0" result="BackgroundImageFix"/>
<feColorMatrix in="SourceAlpha" type="matrix" values="0 0 0 0 0 0 0 0 0 0 0 0 0 0 0 0 0 0 127 0" result="hardAlpha"/>
<feOffset/>
<feGaussianBlur stdDeviation="2.5"/>
<feColorMatrix type="matrix" values="0 0 0 0 0.74902 0 0 0 0 0.74902 0 0 0 0 0.74902 0 0 0 0.5 0"/>
<feBlend mode="normal" in2="BackgroundImageFix" result="effect1_dropShadow_6066_13794"/>
<feBlend mode="normal" in="SourceGraphic" in2="effect1_dropShadow_6066_13794" result="shape"/>
</filter>
<filter id="filter3_d_6066_13794" x="326" y="109.76" width="125" height="38.2598" filterUnits="userSpaceOnUse" color-interpolation-filters="sRGB">
<feFlood flood-opacity="0" result="BackgroundImageFix"/>
<feColorMatrix in="SourceAlpha" type="matrix" values="0 0 0 0 0 0 0 0 0 0 0 0 0 0 0 0 0 0 127 0" result="hardAlpha"/>
<feOffset/>
<feGaussianBlur stdDeviation="2.5"/>
<feColorMatrix type="matrix" values="0 0 0 0 0.74902 0 0 0 0 0.74902 0 0 0 0 0.74902 0 0 0 0.5 0"/>
<feBlend mode="normal" in2="BackgroundImageFix" result="effect1_dropShadow_6066_13794"/>
<feBlend mode="normal" in="SourceGraphic" in2="effect1_dropShadow_6066_13794" result="shape"/>
</filter>
<filter id="filter4_d_6066_13794" x="74" y="23" width="291" height="76.5195" filterUnits="userSpaceOnUse" color-interpolation-filters="sRGB">
<feFlood flood-opacity="0" result="BackgroundImageFix"/>
<feColorMatrix in="SourceAlpha" type="matrix" values="0 0 0 0 0 0 0 0 0 0 0 0 0 0 0 0 0 0 127 0" result="hardAlpha"/>
<feOffset/>
<feGaussianBlur stdDeviation="5"/>
<feColorMatrix type="matrix" values="0 0 0 0 0.74902 0 0 0 0 0.74902 0 0 0 0 0.74902 0 0 0 0.5 0"/>
<feBlend mode="normal" in2="BackgroundImageFix" result="effect1_dropShadow_6066_13794"/>
<feBlend mode="normal" in="SourceGraphic" in2="effect1_dropShadow_6066_13794" result="shape"/>
</filter>
<filter id="filter5_d_6066_13794" x="74" y="114.52" width="291" height="76.5195" filterUnits="userSpaceOnUse" color-interpolation-filters="sRGB">
<feFlood flood-opacity="0" result="BackgroundImageFix"/>
<feColorMatrix in="SourceAlpha" type="matrix" values="0 0 0 0 0 0 0 0 0 0 0 0 0 0 0 0 0 0 127 0" result="hardAlpha"/>
<feOffset/>
<feGaussianBlur stdDeviation="5"/>
<feColorMatrix type="matrix" values="0 0 0 0 0.74902 0 0 0 0 0.74902 0 0 0 0 0.74902 0 0 0 0.5 0"/>
<feBlend mode="normal" in2="BackgroundImageFix" result="effect1_dropShadow_6066_13794"/>
<feBlend mode="normal" in="SourceGraphic" in2="effect1_dropShadow_6066_13794" result="shape"/>
</filter>
<filter id="filter6_d_6066_13794" x="74" y="206.04" width="291" height="76.5195" filterUnits="userSpaceOnUse" color-interpolation-filters="sRGB">
<feFlood flood-opacity="0" result="BackgroundImageFix"/>
<feColorMatrix in="SourceAlpha" type="matrix" values="0 0 0 0 0 0 0 0 0 0 0 0 0 0 0 0 0 0 127 0" result="hardAlpha"/>
<feOffset/>
<feGaussianBlur stdDeviation="5"/>
<feColorMatrix type="matrix" values="0 0 0 0 0.74902 0 0 0 0 0.74902 0 0 0 0 0.74902 0 0 0 0.5 0"/>
<feBlend mode="normal" in2="BackgroundImageFix" result="effect1_dropShadow_6066_13794"/>
<feBlend mode="normal" in="SourceGraphic" in2="effect1_dropShadow_6066_13794" result="shape"/>
</filter>
</defs>
</svg>
