<?xml version="1.0" standalone="no"?>
<!DOCTYPE svg PUBLIC "-//W3C//DTD SVG 20010904//EN"
 "http://www.w3.org/TR/2001/REC-SVG-20010904/DTD/svg10.dtd">
<svg version="1.0" xmlns="http://www.w3.org/2000/svg"
 width="512.000000pt" height="512.000000pt" viewBox="0 0 512.000000 512.000000"
 preserveAspectRatio="xMidYMid meet">

<g transform="translate(0.000000,512.000000) scale(0.100000,-0.100000)"
fill="#000000" stroke="none">
<path d="M1858 4317 l-688 -412 0 -202 c0 -112 3 -203 6 -203 3 0 311 182 684
405 373 223 685 407 693 410 8 4 234 -130 528 -313 l514 -319 3 -919 2 -920
-415 -268 c-229 -148 -418 -272 -420 -276 -6 -9 301 -203 313 -198 5 1 201
127 435 278 l427 274 -2 1079 -3 1079 -683 459 c-376 253 -689 459 -695 458
-7 0 -321 -186 -699 -412z"/>
<path d="M1575 3456 l-980 -603 -3 -754 -2 -754 671 -455 c370 -250 685 -463
701 -474 l29 -18 154 102 c85 57 155 106 155 109 0 3 -306 213 -680 466 l-680
460 2 564 3 563 808 493 809 493 381 -245 c210 -135 388 -248 395 -250 10 -4
12 36 10 193 l-3 198 -393 258 c-216 142 -394 258 -395 257 -1 0 -443 -272
-982 -603z"/>
<path d="M4180 2267 l0 -744 -551 -367 c-437 -291 -556 -366 -570 -359 -10 4
-358 240 -773 523 l-755 515 -3 447 -3 447 -172 -107 -173 -107 0 -430 0 -430
931 -625 c511 -344 938 -629 948 -634 15 -6 169 89 745 464 l726 472 -2 730
-3 731 -135 86 c-74 48 -152 97 -172 110 l-38 23 0 -745z"/>
</g>
</svg>
