<svg enable-background="new 0 0 512 512"  fill="none"  viewBox="0 0 512 512" xmlns="http://www.w3.org/2000/svg"><path d="m270 513c-89.978165 0-179.456329 0-268.967248 0 0-170.60318 0-341.20639 0-511.904794h511.809594v511.904794c-80.715423 0-161.5289 0-242.842346 0m-90.729492-194.265442c22.720276 14.458435 45.465774 28.877442 68.149322 43.39325 10.168305 6.506988 10.014008 6.443054 19.98642.010315 21.001984-13.547425 42.092529-26.958222 63.206604-40.330597 4.343781-2.751068 7.046906-5.628968 6.577301-11.556-.721283-9.103485-.177978-18.306214-.203827-27.466766-.003418-1.21634-.197632-2.43216-.328094-3.931031-1.3573.575135-2.311219.828247-3.101075 1.336365-16.249816 10.453796-32.473358 20.948395-48.718933 31.408813-8.185089 5.270295-16.324005 10.622071-24.678344 15.611207-1.54123.920379-4.537659 1.122863-5.977616.229919-15.583099-9.66333-30.957107-19.662842-46.455856-29.463593-9.166428-5.796478-18.453659-11.401916-28.02269-17.781982-2.778229-2.530304-2.70311-.382629-2.703033 1.647644.000412 11.052002-.052506 22.104645.085128 33.154938.013031 1.047088 1.219361 2.079345 2.184693 3.737518m30.227646 149.266663c5.631012-3.712311 11.29924-7.369721 16.881714-11.153626 4.834167-3.276642 4.727676-5.906555-.298462-9.32254-19.732956-13.411438-39.467102-26.821167-59.224106-40.197144-22.480087-15.219604-44.988518-30.397308-67.473259-45.610046-2.05027-1.387146-3.500176-2.807098-3.48613-5.867554.16066-34.99411.056038-69.989471.23291-104.983398.009262-1.834397 1.451676-4.395722 3.008606-5.371979 12.404129-7.778168 25.033371-15.195892 37.525856-22.834915 40.127991-24.537888 80.226883-49.123352 120.331024-73.686798 26.563019 17.010666 52.92685 33.893768 80.003907 51.233597 0-9.026917.036224-16.850891-.012146-24.674347-.034974-5.655716 1.496093-12.147415-.78125-16.715988-2.022919-4.058197-8.327027-5.981919-12.739136-8.851304-.138184-.089843-.239533-.236206-.377594-.326324-20.942261-13.670868-41.846344-27.40136-62.907593-40.886429-1.650421-1.056732-4.970627-1.348701-6.548416-.395866-19.716858 11.907028-39.229446 24.151542-58.84584 36.225944-22.419587 13.799805-44.898331 27.503418-67.337281 41.27182-21.735618 13.336792-43.486648 26.649445-65.111091 40.164429-1.604943 1.003037-3.188012 3.547745-3.194664 5.3815-.174122 47.992295-.167683 95.985428-.017517 143.97789.005298 1.693848 1.379379 3.976593 2.816913 4.981537 15.239643 10.653778 30.569477 21.181091 45.975765 31.593323 27.946762 18.887634 56.178971 37.36441 83.793778 56.723419 6.727569 4.716278 11.535019 5.213837 17.784012-.675201m185.501327-282.501221c-.000183-16.664383-.065918-33.329254.060822-49.992661.02243-2.945022-.702057-4.785446-3.339813-6.453643-7.087159-4.48214-13.887574-9.414933-20.858002-14.084877-36.640564-24.547844-73.345856-48.999802-109.8703-73.719025-3.307343-2.238342-5.611405-1.734501-8.41124-.076355-8.920899 5.283215-17.849152 10.554497-26.738419 15.890606-34.84938 20.919605-69.657348 41.908565-104.582573 62.700672-2.545089 1.51516-3.358177 2.986961-3.312576 5.749863.142998 8.662895.052239 17.329643.052078 25.994911-.000076 4.058517-.000023 8.11702-.000023 12.808838 13.632126-8.006577 26.415146-15.410782 39.097565-22.98349 32.4944-19.402496 64.923187-38.915146 97.481171-58.210022 1.435196-.850556 4.261398-.656357 5.799087.200592 5.742035 3.20002 11.201508 6.904335 16.794953 10.374321 26.001953 16.130661 51.995971 32.274193 78.042572 48.332497 3.342987 2.061035 4.919647 4.355667 4.905822 8.638549-.18048 55.823685-.261474 111.648926.051758 167.471436.041138 7.334595-1.169067 12.620666-8.356445 15.701263-3.129883 1.341523-5.835754 3.668671-8.742157 5.535858-16.609985 10.670685-33.249023 21.296509-49.819061 32.02887-5.579712 3.613983-10.986237 7.495239-16.901886 11.54895 1.974334 1.708191 3.206939 3.07251 4.70346 4.019928 8.199982 5.191376 16.407624 10.37732 24.766846 15.303498 1.296448.764007 3.836456.883545 5.045807.113891 26.371033-16.782104 52.588959-33.80484 78.969604-50.571625 3.899415-2.478424 5.316559-5.106475 5.296723-9.848693-.216797-51.824006-.135803-103.649247-.135773-156.474152m-240.999557 113c0-19.383026 0-38.766052 0-58.77533-2.366425 1.064057-3.942231 1.567963-5.30214 2.417481-8.513855 5.318497-16.821518 10.992081-25.539001 15.947235-3.482994 1.979767-4.246498 4.172424-4.228294 7.798767.130462 25.994995.123046 51.99118.000007 77.986237-.01474 3.114013.742913 5.144775 3.434273 6.91986 17.714943 11.683808 35.353889 23.48346 52.969292 35.317322 24.864044 16.703522 49.676315 33.484101 74.529571 50.203736 18.158798 12.216003 36.398514 24.312805 54.472702 36.652343 2.945221 2.010804 5.043579 2.009552 7.889801.032227 5.671845-3.940338 11.592407-7.521088 17.382691-11.292725 40.395599-26.312805 80.755127-52.681183 121.229705-78.871917 3.257111-2.107605 4.246247-4.362641 4.236268-8.07248-.116761-43.49237-.30365-86.987518.13565-130.475769.079285-7.850464-1.760498-12.638305-8.903076-16.3945-9.50235-4.997178-18.351013-11.237427-28.307556-17.460587v6.905945c-.000061 46.15892-.041229 92.317978.08081 138.476547.009369 3.542633-.938079 5.656494-3.983123 7.66214-31.608857 20.819275-63.104218 41.810944-94.63028 62.755859-3.694183 2.454285-7.392609 6.849091-11.072082 6.831299-3.684266-.017822-7.351197-4.433807-11.018891-6.932037-26.510772-18.057678-53.02359-36.112396-79.528213-54.179108-20.255463-13.806976-40.484787-27.652405-60.770691-41.41452-2.251038-1.52713-3.216339-3.228912-3.148621-6.043945.200302-8.327118.071366-16.66214.071198-25.99408z"/><g fill="#3b2ea4"><path d="m209.226334 468.244324c-5.977173 5.645935-10.784623 5.148376-17.512192.432098-27.614807-19.359009-55.847016-37.835785-83.793778-56.723419-15.406288-10.412232-30.736122-20.939545-45.975765-31.593323-1.437534-1.004944-2.811615-3.287689-2.816913-4.981537-.150166-47.992462-.156605-95.985595.017517-143.97789.006652-1.833755 1.589721-4.378463 3.194664-5.3815 21.624443-13.514984 43.375473-26.827637 65.111091-40.164429 22.43895-13.768402 44.917694-27.472015 67.337281-41.27182 19.616394-12.074402 39.128982-24.318916 58.84584-36.225944 1.577789-.952835 4.897995-.660866 6.548416.395866 21.061249 13.485069 41.965332 27.215561 62.907593 40.886429.138061.090118.23941.236481.377594.326324 4.412109 2.869385 10.716217 4.793107 12.739136 8.851304 2.277343 4.568573.746276 11.060272.78125 16.715988.04837 7.823456.012146 15.64743.012146 24.674347-27.077057-17.339829-53.440888-34.222931-80.003907-51.233597-40.104141 24.563446-80.203033 49.14891-120.331024 73.686798-12.492485 7.639023-25.121727 15.056747-37.525856 22.834915-1.55693.976257-2.999344 3.537582-3.008606 5.371979-.176872 34.993927-.07225 69.989288-.23291 104.983398-.014046 3.060456 1.43586 4.480408 3.48613 5.867554 22.484741 15.212738 44.993172 30.390442 67.473259 45.610046 19.757004 13.375977 39.49115 26.785706 59.224106 40.197144 5.026138 3.415985 5.132629 6.045898.298462 9.32254-5.582474 3.783905-11.250702 7.441315-17.153534 11.396729z"/><path d="m394.999481 186c-.00003 52.324905-.081024 104.150146.135773 155.974152.019836 4.742218-1.397308 7.370269-5.296723 9.848693-26.380645 16.766785-52.598571 33.789521-78.969604 50.571625-1.209351.769654-3.749359.650116-5.045807-.113891-8.359222-4.926178-16.566864-10.112122-24.766846-15.303498-1.496521-.947418-2.729126-2.311737-4.70346-4.019928 5.915649-4.053711 11.322174-7.934967 16.901886-11.54895 16.570038-10.732361 33.209076-21.358185 49.819061-32.02887 2.906403-1.867187 5.612274-4.194335 8.742157-5.535858 7.187378-3.080597 8.397583-8.366668 8.356445-15.701263-.313232-55.82251-.232238-111.647751-.051758-167.471436.013825-4.282882-1.562835-6.577514-4.905822-8.638549-26.046601-16.058304-52.040619-32.201836-78.042572-48.332497-5.593445-3.469986-11.052918-7.174301-16.794953-10.374321-1.537689-.856949-4.363891-1.051148-5.799087-.200592-32.557984 19.294876-64.986771 38.807526-97.481171 58.210022-12.682419 7.572708-25.465439 14.976913-39.097565 22.98349 0-4.691818-.000053-8.750321.000023-12.808838.000161-8.665268.09092-17.332016-.052078-25.994911-.045601-2.762902.767487-4.234703 3.312576-5.749863 34.925225-20.792107 69.733193-41.781067 104.582573-62.700672 8.889267-5.336109 17.81752-10.607391 26.738419-15.890606 2.799835-1.658146 5.103897-2.161987 8.41124.076355 36.524444 24.719223 73.229736 49.171181 109.8703 73.719025 6.970428 4.669944 13.770843 9.602737 20.858002 14.084877 2.637756 1.668197 3.362243 3.508621 3.339813 6.453643-.12674 16.663407-.061005 33.328278-.060822 50.492661z"/><path d="m153.999924 299c.000168 8.83194.129104 17.166962-.071198 25.49408-.067718 2.815033.897583 4.516815 3.148621 6.043945 20.285904 13.762115 40.515228 27.607544 60.770691 41.41452 26.504623 18.066712 53.017441 36.12143 79.528213 54.179108 3.667694 2.49823 7.334625 6.914215 11.018891 6.932037 3.679473.017792 7.377899-4.377014 11.072082-6.831299 31.526062-20.944915 63.021423-41.936584 94.63028-62.755859 3.045044-2.005646 3.992492-4.119507 3.983123-7.66214-.122039-46.158569-.080871-92.317627-.08081-138.476547 0-1.948273 0-3.896546 0-6.905945 9.956543 6.22316 18.805206 12.463409 28.307556 17.460587 7.142578 3.756195 8.982361 8.544036 8.903076 16.3945-.4393 43.488251-.252411 86.983399-.13565 130.475769.009979 3.709839-.979157 5.964875-4.236268 8.07248-40.474578 26.190734-80.834106 52.559112-121.229705 78.871917-5.790284 3.771637-11.710846 7.352387-17.382691 11.292725-2.846222 1.977325-4.94458 1.978577-7.889801-.032227-18.074188-12.339538-36.313904-24.43634-54.472702-36.652343-24.853256-16.719635-49.665527-33.500214-74.529571-50.203736-17.615403-11.833862-35.254349-23.633514-52.969292-35.317322-2.69136-1.775085-3.449013-3.805847-3.434273-6.91986.123039-25.995057.130455-51.991242-.000007-77.986237-.018204-3.626343.7453-5.819 4.228294-7.798767 8.717483-4.955154 17.025146-10.628738 25.539001-15.947235 1.359909-.849518 2.935715-1.353424 5.30214-2.417481z"/></g><path d="m180.039841 280.883148c9.23291 5.691376 18.520141 11.296814 27.686569 17.093292 15.498749 9.800751 30.872757 19.800263 46.455856 29.463593 1.439957.892944 4.436386.69046 5.977616-.229919 8.354339-4.989136 16.493255-10.340912 24.678344-15.611207 16.245575-10.460418 32.469117-20.955017 48.718933-31.408813.789856-.508118 1.743775-.76123 3.101075-1.336365.130462 1.498871.324676 2.714691.328094 3.931031.025849 9.160552-.517456 18.363281.203827 27.466766.469605 5.927032-2.23352 8.804932-6.577301 11.556-21.114075 13.372375-42.20462 26.783172-63.206604 40.330597-9.972412 6.432739-9.818115 6.496673-19.98642-.010315-22.683548-14.515808-45.429046-28.934815-68.296859-44.178711.207275-12.878968.562072-24.972443.91687-37.065949z" fill="#877cee"/><path d="m179.87178 280.538818c-.186737 12.437836-.541534 24.531311-.905304 37.100769-.6613-.563202-1.86763-1.595459-1.880661-2.642547-.137634-11.050293-.084716-22.102936-.085128-33.154938-.000077-2.030273-.075196-4.177948 2.871093-1.303284z" fill="#867cee"/></svg>