<svg width="256" height="256" viewBox="0 0 256 256" fill="none" xmlns="http://www.w3.org/2000/svg">
<path d="M242.1 79.5L131.5 139.2C130.4 139.8 129.2 140.1 128 140.1C126.8 140.1 125.6 139.8 124.5 139.2L15.1 79.5C12.7 78.2 11.2 75.6 11.3 72.9C11.3 70.2 12.9 67.6 15.3 66.4L125.9 10.7C128 9.6 130.5 9.6 132.5 10.7L242 66.4C244.4 67.7 246 70.1 246 72.9C246 75.7 244.5 78.2 242.1 79.5ZM129.2 25.6L34.5 73.3L128 124.4L222.6 73.3L129.2 25.6ZM240.9 133.8L130.3 193.5C129.2 194.1 128 194.4 126.8 194.4C125.6 194.4 124.4 194.1 123.3 193.5L13.9 133.8C11.5 132.5 10 129.9 10 127.2C10 124.5 11.6 121.9 14.1 120.7L37.2 109.1L52.9 117.7L33.2 127.6L126.8 178.7L221.4 127.6L203 118.2L218.8 109.7L240.7 120.8C243.1 122.1 244.7 124.5 244.7 127.3C244.8 129.9 243.3 132.5 240.9 133.8ZM240.9 185.5L130.3 245.2C129.2 245.8 128 246.1 126.8 246.1C125.6 246.1 124.4 245.8 123.3 245.2L13.9 185.5C11.5 184.2 10 181.6 10 178.9C10 176.2 11.6 173.6 14.1 172.4L35.8 162.4L51.5 171L33.2 179.3L126.8 230.4L221.4 179.3L204.1 170.8L219.9 162.2L240.6 172.4C243.1 173.7 244.6 176.1 244.6 178.9C244.8 181.7 243.3 184.2 240.9 185.5Z" fill="#CF1A68"/>
</svg>
