<svg width="24" height="24" viewBox="0 0 24 24" fill="none" xmlns="http://www.w3.org/2000/svg">
<path d="M21.9999 7.99899C21.9998 7.82052 21.9518 7.64535 21.8611 7.49166C21.7703 7.33798 21.6401 7.21137 21.4839 7.12499L12.4619 2.12499C12.3137 2.04332 12.1472 2.00049 11.9779 2.00049C11.8087 2.00049 11.6422 2.04332 11.4939 2.12499L2.51594 7.08499C2.35998 7.17136 2.22994 7.29785 2.13929 7.45136C2.04864 7.60487 2.00067 7.77983 2.00037 7.95811C2.00006 8.13639 2.04742 8.31151 2.13754 8.46534C2.22767 8.61916 2.35727 8.7461 2.51294 8.83299L11.5349 13.873C11.6835 13.9564 11.8509 14.0004 12.0213 14.0005C12.1917 14.0007 12.3592 13.9571 12.5079 13.874L21.4859 8.87399C21.6419 8.78727 21.7718 8.6604 21.8622 8.50654C21.9526 8.35268 22.0001 8.17744 21.9999 7.99899ZM12.0229 11.854L5.05994 7.96499L11.9769 4.14299L18.9409 8.00199L12.0229 11.854Z" fill="#CF1A68"/>
<path d="M20.5149 11.126L11.9999 15.856L3.48494 11.126L2.51394 12.874L11.5139 17.874C11.6625 17.9565 11.8296 17.9998 11.9994 17.9998C12.1693 17.9998 12.3364 17.9565 12.4849 17.874L21.4849 12.874L20.5149 11.126Z" fill="#CF1A68"/>
<path d="M20.5149 15.126L11.9999 19.856L3.48494 15.126L2.51394 16.874L11.5139 21.874C11.6625 21.9565 11.8296 21.9998 11.9994 21.9998C12.1693 21.9998 12.3364 21.9565 12.4849 21.874L21.4849 16.874L20.5149 15.126Z" fill="#CF1A68"/>
</svg>
