<svg width="32" height="32" viewBox="0 0 32 32" fill="none" xmlns="http://www.w3.org/2000/svg">
<path d="M5.33366 28H26.5243C27.995 28 29.191 26.804 29.191 25.3333V9.33333V6.66667C29.191 5.196 27.995 4 26.5243 4H5.33366C3.86299 4 2.66699 5.196 2.66699 6.66667V25.3333C2.66699 26.804 3.86299 28 5.33366 28ZM5.33366 25.3333V18.6667H10.667V25.3333H5.33366ZM18.667 9.33333V16H13.3337V9.33333H18.667ZM10.667 9.33333V16H5.33366V9.33333H10.667ZM13.3337 25.3333V18.6667H18.667V25.3333H13.3337ZM21.3337 25.3333V18.6667H26.5257V25.3333H21.3337ZM26.5243 16H21.3337V9.33333H26.5243V16Z" fill="#CF1A68"/>
</svg>
