<svg width="80" height="81" viewBox="0 0 80 81" fill="none" xmlns="http://www.w3.org/2000/svg">
<g clip-path="url(#clip0_743_31654)">
<path d="M-17.9406 21.1527C-17.2142 19.603 -16.2754 18.1653 -15.1521 16.8823C-14.1228 15.7216 -12.9222 14.7003 -11.4176 14.2684C-10.0208 13.8267 -8.50083 14.0708 -7.30694 14.9288C-6.08838 15.8427 -5.33832 17.2936 -4.92613 18.7444C-4.53762 20.2466 -4.37213 21.799 -4.4351 23.3507C-4.46663 25.2037 -4.63782 27.0498 -4.72341 28.9006C-4.84192 30.6997 -4.7717 32.5064 -4.51394 34.2905C-4.26842 35.7916 -3.85623 37.4458 -2.84939 38.6317C-1.9185 39.6648 -0.543392 40.1629 0.822056 39.9615C2.19153 39.7787 3.42586 39.0155 4.45522 38.113C6.7617 36.0932 8.18298 33.2143 9.44658 30.4542C10.798 27.5205 11.9535 24.484 13.6293 21.717C14.4355 20.3614 15.3915 19.1035 16.4786 17.9676C17.5666 16.848 18.8392 15.8198 20.3078 15.2738C21.6865 14.7243 23.2359 14.8334 24.5266 15.5708C25.7136 16.2677 26.6146 17.4329 27.2588 18.6576C28.0291 20.1153 28.4931 21.7559 28.8805 23.3552C29.3193 25.1624 29.5952 27.0062 29.7049 28.864C29.7589 29.7551 29.774 30.6477 29.7499 31.5418C29.7499 31.5784 29.804 31.5784 29.8062 31.5418C29.9008 27.837 29.3401 24.145 28.1507 20.6409C27.3106 18.1801 25.7136 15.3857 22.9476 14.9288C21.5173 14.6866 20.096 15.171 18.882 15.9204C17.6068 16.7409 16.4699 17.7638 15.5146 18.9501C13.4334 21.4451 12.0459 24.4223 10.7417 27.3857C9.43758 30.3491 8.21676 33.3971 6.30445 35.995C4.63541 38.2593 1.7005 40.8183 -1.28846 39.6507C-2.87867 39.0292 -3.65126 37.5007 -4.09724 35.9241C-4.57045 34.0932 -4.77761 32.202 -4.71215 30.3103C-4.68512 28.4413 -4.50943 26.5792 -4.42384 24.7124C-4.34951 23.0993 -4.32023 21.4703 -4.60854 19.8754C-5.09956 17.1519 -6.7168 14.1131 -9.78911 14.0034C-12.8997 13.8914 -15.2535 16.5624 -16.8077 18.9844C-17.249 19.6722 -17.6462 20.388 -17.9969 21.1275C-18.0127 21.1595 -17.9632 21.1892 -17.9474 21.1549L-17.9406 21.1527Z" fill="black" stroke="black"/>
<g filter="url(#filter0_d_743_31654)">
<path fill-rule="evenodd" clip-rule="evenodd" d="M15.6533 44.3718C15.6525 29.6407 27.5935 17.698 42.3246 17.6968C49.3993 17.6962 56.1844 20.5062 61.1871 25.5085C66.1899 30.5108 69.0004 37.2957 69.0004 44.3703C69.0004 59.1014 57.0587 71.0435 42.3276 71.0439C27.5965 71.0443 15.6542 59.103 15.6533 44.3718ZM27.8533 44.3702C27.8533 52.3631 34.3329 58.8426 42.3258 58.8426C50.3187 58.8426 56.7982 52.3631 56.7982 44.3702C56.7982 36.3773 50.3187 29.8977 42.3258 29.8977C34.3329 29.8977 27.8533 36.3773 27.8533 44.3702Z" fill="#F9DDE9"/>
<path d="M35.3027 18.6316L37.719 30.6516C40.7081 29.6462 43.9441 29.6462 46.9332 30.6516L49.3494 18.6316C44.7524 17.3858 39.9066 17.3858 35.3095 18.6316H35.3027Z" fill="#CF1A68"/>
<path d="M49.3494 70.1088L46.9332 58.0889C43.9441 59.0942 40.7081 59.0942 37.719 58.0889L35.3027 70.1088C39.8998 71.3546 44.7456 71.3546 49.3426 70.1088H49.3494Z" fill="#CF1A68"/>
<path d="M27.8545 44.3702C27.8541 42.8041 28.1088 41.2484 28.6086 39.7642L16.5886 37.3457C15.3402 41.9424 15.3402 46.7889 16.5886 51.3856L28.6086 48.9762C28.1088 47.492 27.8541 45.9363 27.8545 44.3702Z" fill="#CF1A68"/>
<path d="M56.7961 44.3704C56.7965 45.9365 56.5418 47.4922 56.042 48.9764L68.0619 51.3949C69.3103 46.7982 69.3103 41.9517 68.0619 37.355L56.042 39.7735C56.5408 41.2548 56.7955 42.8074 56.7961 44.3704Z" fill="#CF1A68"/>
<path d="M42.3246 17.6968L42.3246 17.1968L42.3246 17.6968ZM69.0004 44.3703H69.5004H69.0004ZM42.3246 17.1968C27.3173 17.1981 15.1525 29.3646 15.1533 44.3719L16.1533 44.3718C16.1525 29.9168 27.8697 18.198 42.3246 18.1968L42.3246 17.1968ZM15.1533 44.3719C15.1542 59.3791 27.3204 71.5443 42.3276 71.5439L42.3276 70.5439C27.8726 70.5443 16.1541 58.8268 16.1533 44.3718L15.1533 44.3719ZM42.3276 71.5439C57.3349 71.5435 69.5004 59.3776 69.5004 44.3703H68.5004C68.5004 58.8253 56.7826 70.5435 42.3276 70.5439L42.3276 71.5439ZM69.5004 44.3703C69.5004 37.1631 66.6372 30.251 61.5407 25.1549L60.8336 25.862C65.7425 30.7706 68.5004 37.4283 68.5004 44.3703H69.5004ZM61.5407 25.1549C56.4441 20.0588 49.5318 17.1962 42.3246 17.1968L42.3246 18.1968C49.2667 18.1962 55.9246 20.9535 60.8336 25.862L61.5407 25.1549ZM42.3258 58.3426C34.609 58.3426 28.3533 52.0869 28.3533 44.3702H27.3533C27.3533 52.6392 34.0567 59.3426 42.3258 59.3426V58.3426ZM28.3533 44.3702C28.3533 36.6534 34.609 30.3977 42.3258 30.3977V29.3977C34.0567 29.3977 27.3533 36.1011 27.3533 44.3702H28.3533ZM42.3258 30.3977C50.0425 30.3977 56.2982 36.6534 56.2982 44.3702H57.2982C57.2982 36.1011 50.5948 29.3977 42.3258 29.3977V30.3977ZM56.2982 44.3702C56.2982 52.0869 50.0425 58.3426 42.3258 58.3426V59.3426C50.5948 59.3426 57.2982 52.6392 57.2982 44.3702H56.2982Z" fill="black"/>
</g>
<path d="M25.0461 24.0834C24.236 25.8525 25.4572 27.6743 26.5509 29.1685C27.6447 30.6626 29.0245 32.0261 30.9427 32.8141C31.4446 33.0318 31.982 33.1907 32.5388 33.2861C32.7244 33.3156 32.9153 33.2628 33.04 33.1475C33.1648 33.0322 33.2046 32.8718 33.1446 32.7263C33.1302 32.6971 33.0725 32.7107 33.0869 32.74C33.1759 32.9242 33.0698 33.1325 32.8465 33.212C32.623 33.29 32.3658 33.2003 32.1254 33.1476C31.657 33.0317 31.2044 32.8774 30.7744 32.6873C29.9102 32.2992 29.1292 31.7998 28.462 31.2088C27.7828 30.6026 27.1826 29.9411 26.6711 29.2348C26.1092 28.5112 25.632 27.7465 25.2456 26.9507C24.825 26.0281 24.6735 25.0372 25.1038 24.0951C25.1158 24.0658 25.0581 24.0541 25.0461 24.0834Z" fill="black" stroke="black"/>
<path d="M26.4657 22.4207C26.4501 23.3858 26.715 24.3372 27.2329 25.1768C27.7942 26.0812 28.4066 26.9581 29.0675 27.8037C29.7108 28.6356 30.3962 29.4383 31.1237 30.2118C31.7837 30.9145 32.489 31.6215 33.3777 32.0856C33.6048 32.2056 33.8442 32.3045 34.0925 32.3812C34.261 32.4644 34.4599 32.4787 34.6405 32.4206C34.7665 32.3604 34.8467 32.2419 34.8497 32.1114C34.8527 31.981 34.7779 31.8594 34.6548 31.7945C34.6214 31.7792 34.5905 31.8273 34.6238 31.8426C34.7005 31.8791 34.7573 31.943 34.7808 32.0194C34.8043 32.0957 34.7923 32.1775 34.7477 32.2454C34.6381 32.4315 34.438 32.4184 34.2426 32.368C33.8031 32.2458 33.3886 32.058 33.0155 31.812C32.2486 31.2799 31.5599 30.6589 30.9665 29.9644C29.6386 28.5255 28.45 26.9829 27.414 25.3541C26.8236 24.4683 26.5141 23.4485 26.5205 22.4098C26.5167 22.3976 26.5046 22.3892 26.4907 22.3892C26.4769 22.3892 26.4647 22.3976 26.4609 22.4098L26.4657 22.4207Z" fill="black" stroke="black"/>
<path d="M27.3128 21.5654C27.2685 21.9511 27.3379 22.3403 27.5143 22.6962C27.704 23.0881 27.9406 23.4677 28.1561 23.8473C28.6113 24.6523 29.1254 25.4308 29.6953 26.1783C30.2578 26.9159 30.8728 27.6222 31.5366 28.2929C32.1891 28.9805 32.9095 29.6171 33.6895 30.1952C34.0628 30.4895 34.5241 30.6855 35.0201 30.7606C35.225 30.805 35.442 30.761 35.6034 30.6422C35.7171 30.5414 35.7171 30.3798 35.6034 30.2789C35.5729 30.2585 35.5331 30.2932 35.5612 30.3157C35.6127 30.3568 35.6404 30.4159 35.6368 30.4767C35.6332 30.5375 35.5986 30.5937 35.5425 30.63C35.4349 30.6999 35.3011 30.732 35.1677 30.7198C34.9236 30.7092 34.6846 30.6557 34.4649 30.5626C34.0565 30.383 33.6839 30.1473 33.3615 29.8646C32.683 29.3126 32.0431 28.7258 31.4452 28.1072C30.2285 26.8567 29.1837 25.4866 28.3318 24.0249C28.0976 23.631 27.8633 23.235 27.6595 22.835C27.4363 22.4446 27.3415 22.008 27.3854 21.5735C27.3854 21.5409 27.3315 21.5429 27.3268 21.5735L27.3128 21.5654Z" fill="black" stroke="black"/>
</g>
<defs>
<filter id="filter0_d_743_31654" x="15.1533" y="17.1968" width="54.3467" height="58.3472" filterUnits="userSpaceOnUse" color-interpolation-filters="sRGB">
<feFlood flood-opacity="0" result="BackgroundImageFix"/>
<feColorMatrix in="SourceAlpha" type="matrix" values="0 0 0 0 0 0 0 0 0 0 0 0 0 0 0 0 0 0 127 0" result="hardAlpha"/>
<feOffset dy="4"/>
<feComposite in2="hardAlpha" operator="out"/>
<feColorMatrix type="matrix" values="0 0 0 0 0 0 0 0 0 0 0 0 0 0 0 0 0 0 1 0"/>
<feBlend mode="normal" in2="BackgroundImageFix" result="effect1_dropShadow_743_31654"/>
<feBlend mode="normal" in="SourceGraphic" in2="effect1_dropShadow_743_31654" result="shape"/>
</filter>
<clipPath id="clip0_743_31654">
<rect width="80" height="80" fill="white" transform="translate(0 0.5)"/>
</clipPath>
</defs>
</svg>
