<svg width="80" height="81" viewBox="0 0 80 81" fill="none" xmlns="http://www.w3.org/2000/svg">
<g clip-path="url(#clip0_2608_2897)">
<path d="M-17.9406 20.7337C-17.2142 19.184 -16.2754 17.7464 -15.1521 16.4634C-14.1228 15.3027 -12.9222 14.2813 -11.4176 13.8495C-10.0208 13.4077 -8.50083 13.6519 -7.30694 14.5098C-6.08838 15.4238 -5.33832 16.8746 -4.92613 18.3255C-4.53762 19.8276 -4.37213 21.3801 -4.4351 22.9317C-4.46663 24.7847 -4.63782 26.6309 -4.72341 28.4816C-4.84192 30.2807 -4.7717 32.0875 -4.51394 33.8715C-4.26842 35.3727 -3.85623 37.0269 -2.84939 38.2127C-1.9185 39.2459 -0.543392 39.7439 0.822056 39.5425C2.19153 39.3597 3.42586 38.5966 4.45522 37.6941C6.7617 35.6743 8.18298 32.7954 9.44658 30.0353C10.798 27.1016 11.9535 24.065 13.6293 21.2981C14.4355 19.9425 15.3915 18.6846 16.4786 17.5487C17.5666 16.4291 18.8392 15.4009 20.3078 14.8548C21.6865 14.3053 23.2359 14.4144 24.5266 15.1519C25.7136 15.8487 26.6146 17.014 27.2588 18.2387C28.0291 19.6964 28.4931 21.3369 28.8805 22.9363C29.3193 24.7434 29.5952 26.5873 29.7049 28.445C29.7589 29.3361 29.774 30.2287 29.7499 31.1229C29.7499 31.1594 29.804 31.1594 29.8062 31.1229C29.9008 27.4181 29.3401 23.7261 28.1507 20.2219C27.3106 17.7611 25.7136 14.9668 22.9476 14.5098C21.5173 14.2676 20.096 14.752 18.882 15.5014C17.6068 16.3219 16.4699 17.3448 15.5146 18.5311C13.4334 21.0262 12.0459 24.0033 10.7417 26.9668C9.43758 29.9302 8.21676 32.9782 6.30445 35.576C4.63541 37.8403 1.7005 40.3993 -1.28846 39.2318C-2.87867 38.6103 -3.65126 37.0817 -4.09724 35.5052C-4.57045 33.6742 -4.77761 31.783 -4.71215 29.8914C-4.68512 28.0224 -4.50943 26.1602 -4.42384 24.2935C-4.34951 22.6804 -4.32023 21.0513 -4.60854 19.4565C-5.09956 16.733 -6.7168 13.6941 -9.78911 13.5845C-12.8997 13.4725 -15.2535 16.1435 -16.8077 18.5654C-17.249 19.2532 -17.6462 19.9691 -17.9969 20.7086C-18.0127 20.7406 -17.9632 20.7703 -17.9474 20.736L-17.9406 20.7337Z" fill="black" stroke="black" stroke-width="0.5"/>
<path fill-rule="evenodd" clip-rule="evenodd" d="M15.6533 43.9529C15.6525 29.2218 27.5935 17.2791 42.3246 17.2778C49.3993 17.2772 56.1844 20.0872 61.1871 25.0895C66.1899 30.0919 69.0004 36.8767 69.0004 43.9514C69.0004 58.6825 57.0587 70.6245 42.3276 70.6249C27.5965 70.6254 15.6542 58.684 15.6533 43.9529ZM27.8533 43.9512C27.8533 51.9441 34.3329 58.4236 42.3258 58.4236C50.3187 58.4236 56.7982 51.9441 56.7982 43.9512C56.7982 35.9583 50.3187 29.4788 42.3258 29.4788C34.3329 29.4788 27.8533 35.9583 27.8533 43.9512Z" fill="#F0B0CA"/>
<path d="M35.3026 18.2127L37.7188 30.2326C40.708 29.2273 43.9439 29.2273 46.9331 30.2326L49.3493 18.2127C44.7522 16.9669 39.9065 16.9669 35.3094 18.2127H35.3026Z" fill="#CF1A68"/>
<path d="M49.3493 69.6899L46.9331 57.6699C43.9439 58.6753 40.708 58.6753 37.7188 57.6699L35.3026 69.6899C39.8997 70.9357 44.7455 70.9357 49.3425 69.6899H49.3493Z" fill="#CF1A68"/>
<path d="M27.8545 43.9512C27.8541 42.3851 28.1088 40.8294 28.6086 39.3452L16.5886 36.9268C15.3402 41.5235 15.3402 46.37 16.5886 50.9667L28.6086 48.5572C28.1088 47.073 27.8541 45.5173 27.8545 43.9512Z" fill="#CF1A68"/>
<path d="M56.796 43.9515C56.7964 45.5176 56.5417 47.0733 56.0419 48.5575L68.0619 50.9759C69.3103 46.3792 69.3103 41.5328 68.0619 36.936L56.0419 39.3545C56.5408 40.8358 56.7954 42.3884 56.796 43.9515Z" fill="#CF1A68"/>
<path d="M25.0462 23.6644C24.2361 25.4336 25.4572 27.2554 26.551 28.7495C27.6447 30.2437 29.0245 31.6071 30.9428 32.3951C31.4447 32.6128 31.9821 32.7718 32.5389 32.8672C32.7245 32.8966 32.9153 32.8438 33.0401 32.7285C33.1648 32.6133 33.2047 32.4529 33.1447 32.3074C33.1302 32.2781 33.0726 32.2918 33.087 32.321C33.1759 32.5052 33.0698 32.7135 32.8466 32.7931C32.623 32.8711 32.3658 32.7814 32.1255 32.7287C31.6571 32.6127 31.2045 32.4585 30.7745 32.2684C29.9102 31.8802 29.1293 31.3809 28.462 30.7898C27.7828 30.1837 27.1827 29.5222 26.6712 28.8159C26.1093 28.0922 25.6321 27.3275 25.2457 26.5317C24.825 25.6091 24.6736 24.6182 25.1039 23.6761C25.1159 23.6469 25.0582 23.6352 25.0462 23.6644Z" fill="black" stroke="black" stroke-width="0.5"/>
<path d="M26.4657 22.0018C26.4501 22.9668 26.715 23.9182 27.2329 24.7579C27.7942 25.6623 28.4066 26.5391 29.0675 27.3848C29.7108 28.2167 30.3962 29.0193 31.1237 29.7928C31.7837 30.4955 32.489 31.2026 33.3777 31.6667C33.6048 31.7866 33.8442 31.8856 34.0925 31.9622C34.261 32.0455 34.4599 32.0598 34.6405 32.0016C34.7665 31.9415 34.8467 31.8229 34.8497 31.6925C34.8527 31.562 34.7779 31.4405 34.6548 31.3755C34.6214 31.3602 34.5905 31.4084 34.6238 31.4237C34.7005 31.4601 34.7573 31.5241 34.7808 31.6004C34.8043 31.6767 34.7923 31.7586 34.7477 31.8265C34.6381 32.0126 34.438 31.9994 34.2426 31.9491C33.8031 31.8269 33.3886 31.639 33.0155 31.393C32.2486 30.861 31.5599 30.2399 30.9665 29.5454C29.6386 28.1065 28.45 26.5639 27.414 24.9352C26.8236 24.0493 26.5141 23.0296 26.5205 21.9909C26.5167 21.9786 26.5046 21.9702 26.4907 21.9702C26.4769 21.9702 26.4647 21.9786 26.4609 21.9909L26.4657 22.0018Z" fill="black" stroke="black" stroke-width="0.5"/>
<path d="M27.3128 21.1464C27.2685 21.5321 27.3379 21.9213 27.5143 22.2772C27.704 22.6691 27.9406 23.0488 28.1561 23.4284C28.6113 24.2333 29.1254 25.0119 29.6953 25.7594C30.2578 26.497 30.8728 27.2032 31.5366 27.874C32.1891 28.5616 32.9095 29.1981 33.6895 29.7763C34.0628 30.0705 34.5241 30.2666 35.0201 30.3417C35.225 30.386 35.442 30.342 35.6034 30.2233C35.7171 30.1225 35.7171 29.9608 35.6034 29.86C35.5729 29.8396 35.5331 29.8743 35.5612 29.8967C35.6127 29.9379 35.6404 29.9969 35.6368 30.0577C35.6332 30.1185 35.5986 30.1748 35.5425 30.2111C35.4349 30.2809 35.3011 30.313 35.1677 30.3009C34.9236 30.2902 34.6846 30.2368 34.4649 30.1437C34.0565 29.9641 33.6839 29.7284 33.3615 29.4456C32.683 28.8937 32.0431 28.3068 31.4452 27.6882C30.2285 26.4377 29.1837 25.0677 28.3318 23.606C28.0976 23.212 27.8633 22.8161 27.6595 22.416C27.4363 22.0256 27.3415 21.589 27.3854 21.1546C27.3854 21.1219 27.3315 21.124 27.3268 21.1546L27.3128 21.1464Z" fill="black" stroke="black" stroke-width="0.5"/>
</g>
<defs>
<clipPath id="clip0_2608_2897">
<rect width="80" height="80" fill="white" transform="translate(0 0.0810547)"/>
</clipPath>
</defs>
</svg>
