<svg width="80" height="81" viewBox="0 0 80 81" fill="none" xmlns="http://www.w3.org/2000/svg">
<g clip-path="url(#clip0_2608_2839)">
<path d="M59.9761 68.02H61.6583C61.8462 68.02 61.9986 68.1724 61.9986 68.3604V69.6592H59.6514V68.3604C59.6512 68.1783 59.7943 68.0284 59.9761 68.02Z" fill="#CF1A68"/>
<path d="M63.4927 68.02H65.1749C65.3629 68.02 65.5153 68.1724 65.5153 68.3604V69.6592H63.168V68.3604C63.1678 68.1783 63.3109 68.0284 63.4927 68.02Z" fill="#CF1A68"/>
<path d="M67.0104 68.02H68.6926C68.8805 68.02 69.0329 68.1724 69.0329 68.3604V69.6592H66.6857V68.3604C66.6855 68.1783 66.8286 68.0284 67.0104 68.02Z" fill="#CF1A68"/>
<path d="M70.523 68.02H72.2052C72.3931 68.02 72.5455 68.1724 72.5455 68.3604V69.6592H70.1983V68.3604C70.1981 68.1783 70.3411 68.0284 70.523 68.02Z" fill="#CF1A68"/>
<path d="M74.0396 68.02H75.7217C75.9097 68.02 76.0621 68.1724 76.0621 68.3604V69.6592H73.7149V68.3604C73.7147 68.1783 73.8577 68.0284 74.0396 68.02Z" fill="#CF1A68"/>
<path d="M77.5572 68.02H79.2393C79.4273 68.02 79.5797 68.1724 79.5797 68.3604V69.6592H77.2325V68.3604C77.2323 68.1783 77.3753 68.0284 77.5572 68.02Z" fill="#CF1A68"/>
<rect x="7" y="14.9141" width="63.8704" height="42.3141" rx="3.3" fill="#F0B0CA"/>
<path d="M10.1875 52.8958V53.6782C10.1896 53.7854 10.276 53.8717 10.3831 53.8738C10.4903 53.8717 10.5767 53.7854 10.5787 53.6782V52.8958C10.5767 52.7886 10.4903 52.7023 10.3831 52.7002C10.276 52.7023 10.1896 52.7886 10.1875 52.8958Z" fill="black"/>
<path d="M11.666 52.8958V53.6782C11.6681 53.7854 11.7545 53.8717 11.8617 53.8738C11.9688 53.8717 12.0552 53.7854 12.0573 53.6782V52.8958C12.0552 52.7886 11.9688 52.7023 11.8617 52.7002C11.7545 52.7023 11.6681 52.7886 11.666 52.8958H11.666Z" fill="black"/>
<path d="M13.1768 52.8958V53.6782C13.1788 53.7854 13.2652 53.8717 13.3724 53.8738C13.4795 53.8717 13.5659 53.7854 13.568 53.6782V52.8958C13.5659 52.7886 13.4795 52.7023 13.3724 52.7002C13.2652 52.7023 13.1788 52.7886 13.1768 52.8958H13.1768Z" fill="black"/>
<path d="M14.6707 52.8958V53.6782C14.6728 53.7854 14.7591 53.8717 14.8663 53.8738C14.9734 53.8717 15.0598 53.7854 15.0619 53.6782V52.8958C15.0598 52.7886 14.9734 52.7023 14.8663 52.7002C14.7591 52.7023 14.6728 52.7886 14.6707 52.8958Z" fill="black"/>
<path d="M16.165 52.8958V53.6782C16.1671 53.7854 16.2535 53.8717 16.3606 53.8738C16.4678 53.8717 16.5542 53.7854 16.5562 53.6782V52.8958C16.5562 52.7878 16.4687 52.7002 16.3606 52.7002C16.2526 52.7002 16.165 52.7878 16.165 52.8958Z" fill="black"/>
<rect x="29.9276" y="47.5674" width="11.8653" height="23.5232" rx="2.56" fill="#F0B0CA"/>
<rect x="26.5244" y="69.3501" width="21.532" height="1.74085" rx="0.870426" fill="black"/>
<path d="M58.6471 68.8687H100.936C101.219 68.8687 101.489 68.9808 101.689 69.1803C101.888 69.3799 102.001 69.6505 102.001 69.9327V71.1063H57.583V69.9327C57.583 69.6505 57.6951 69.3799 57.8947 69.1803C58.0942 68.9808 58.3649 68.8687 58.6471 68.8687Z" fill="#CF1A68"/>
</g>
<defs>
<clipPath id="clip0_2608_2839">
<rect width="80" height="80" fill="white" transform="translate(0 0.0810547)"/>
</clipPath>
</defs>
</svg>
