<svg width="565" height="102" viewBox="0 0 565 102" fill="none" xmlns="http://www.w3.org/2000/svg">
<g filter="url(#filter0_d_2382_1446)">
<rect x="9" y="9" width="546.72" height="83.7216" rx="6.9768" fill="white"/>
<rect x="9.43605" y="9.43605" width="545.848" height="82.8495" rx="6.54075" stroke="#EDEDED" stroke-width="0.8721"/>
<rect x="23.3896" y="23.3892" width="54.9423" height="54.9423" rx="3.05235" stroke="#BFC2C8" stroke-width="0.8721"/>
<g clip-path="url(#clip0_2382_1446)">
<path fill-rule="evenodd" clip-rule="evenodd" d="M40.3958 50.8606H61.326V40.3955H40.3958V50.8606Z" fill="#2F60CE"/>
<path fill-rule="evenodd" clip-rule="evenodd" d="M40.3956 57.8158H56.0932V50.8608H40.3956V57.8158Z" fill="#05E3AB"/>
<path fill-rule="evenodd" clip-rule="evenodd" d="M40.3958 50.8606H50.8937V40.3955H40.3958V50.8606Z" fill="#23489B"/>
<path fill-rule="evenodd" clip-rule="evenodd" d="M40.3956 61.3259H50.8934V50.8608H40.3956V61.3259Z" fill="#04AA80"/>
</g>
<path d="M95.4098 41.7441L92.9817 32.8646H94.0743L95.93 40.0966H96.0168L97.9071 32.8646H99.1211L101.012 40.0966H101.098L102.954 32.8646H104.047L101.619 41.7441H100.509L98.5488 34.6682H98.4794L96.5197 41.7441H95.4098ZM106.197 37.7379V41.7441H105.174V32.8646H106.197V36.125H106.284C106.44 35.7811 106.674 35.5079 106.987 35.3056C107.302 35.1004 107.721 34.9978 108.244 34.9978C108.698 34.9978 109.095 35.0888 109.436 35.2709C109.777 35.4501 110.042 35.7262 110.23 36.099C110.42 36.469 110.516 36.9402 110.516 37.5125V41.7441H109.493V37.5818C109.493 37.0529 109.355 36.6439 109.081 36.3548C108.809 36.0629 108.432 35.9169 107.949 35.9169C107.614 35.9169 107.313 35.9877 107.047 36.1294C106.784 36.271 106.576 36.4777 106.423 36.7494C106.273 37.0211 106.197 37.3506 106.197 37.7379ZM115.107 41.8829C114.465 41.8829 113.912 41.7413 113.446 41.458C112.984 41.1718 112.627 40.7729 112.375 40.2613C112.127 39.7468 112.002 39.1485 112.002 38.4663C112.002 37.7842 112.127 37.183 112.375 36.6627C112.627 36.1395 112.976 35.7319 113.425 35.44C113.875 35.1452 114.401 34.9978 115.003 34.9978C115.35 34.9978 115.692 35.0556 116.03 35.1712C116.368 35.2868 116.676 35.4747 116.954 35.7348C117.231 35.9921 117.452 36.3332 117.617 36.7581C117.782 37.183 117.864 37.7061 117.864 38.3276V38.7612H112.731V37.8767H116.824C116.824 37.5009 116.749 37.1656 116.598 36.8708C116.451 36.576 116.24 36.3433 115.965 36.1727C115.694 36.0022 115.373 35.9169 115.003 35.9169C114.595 35.9169 114.243 36.0181 113.945 36.2204C113.65 36.4199 113.423 36.68 113.264 37.0009C113.105 37.3217 113.026 37.6657 113.026 38.0328V38.6224C113.026 39.1254 113.112 39.5517 113.286 39.9015C113.462 40.2483 113.706 40.5128 114.019 40.6949C114.331 40.8741 114.693 40.9637 115.107 40.9637C115.376 40.9637 115.618 40.9261 115.835 40.851C116.055 40.7729 116.244 40.6573 116.403 40.5041C116.562 40.348 116.685 40.1544 116.772 39.9231L117.76 40.2006C117.656 40.5359 117.481 40.8307 117.236 41.0851C116.99 41.3366 116.686 41.5331 116.325 41.6748C115.964 41.8135 115.558 41.8829 115.107 41.8829ZM120.371 37.7379V41.7441H119.348V35.0845H120.336V36.125H120.423C120.579 35.7869 120.816 35.5151 121.134 35.3099C121.452 35.1018 121.862 34.9978 122.365 34.9978C122.816 34.9978 123.211 35.0902 123.549 35.2752C123.887 35.4573 124.15 35.7348 124.338 36.1077C124.526 36.4777 124.62 36.9459 124.62 37.5125V41.7441H123.597V37.5818C123.597 37.0587 123.461 36.6511 123.189 36.3592C122.917 36.0643 122.544 35.9169 122.07 35.9169C121.744 35.9169 121.452 35.9877 121.195 36.1294C120.94 36.271 120.739 36.4777 120.592 36.7494C120.445 37.0211 120.371 37.3506 120.371 37.7379Z" fill="#686868"/>
<path d="M102.027 57.8285V67.9766H100.62L95.4618 60.534H95.3676V67.9766H93.8365V57.8285H95.2537L100.417 65.281H100.511V57.8285H102.027ZM107.338 68.1302C106.589 68.1302 105.943 67.97 105.401 67.6495C104.863 67.3258 104.446 66.8716 104.152 66.2869C103.862 65.6989 103.716 65.0101 103.716 64.2206C103.716 63.441 103.862 62.7539 104.152 62.1593C104.446 61.5646 104.856 61.1005 105.381 60.7669C105.91 60.4332 106.527 60.2664 107.234 60.2664C107.664 60.2664 108.08 60.3374 108.483 60.4795C108.886 60.6215 109.248 60.8445 109.568 61.1484C109.889 61.4523 110.141 61.8471 110.326 62.3327C110.511 62.815 110.604 63.4013 110.604 64.0918V64.617H104.554V63.507H109.152C109.152 63.1172 109.073 62.772 108.914 62.4714C108.756 62.1675 108.533 61.928 108.245 61.7529C107.961 61.5779 107.628 61.4903 107.244 61.4903C106.828 61.4903 106.465 61.5927 106.154 61.7975C105.847 61.999 105.609 62.2633 105.441 62.5904C105.275 62.9141 105.193 63.2659 105.193 63.6458V64.5129C105.193 65.0217 105.282 65.4544 105.46 65.8112C105.642 66.1679 105.895 66.4405 106.219 66.6288C106.542 66.8138 106.921 66.9063 107.353 66.9063C107.634 66.9063 107.89 66.8666 108.121 66.7873C108.353 66.7047 108.552 66.5825 108.721 66.4207C108.889 66.2588 109.018 66.0589 109.107 65.8211L110.51 66.0738C110.397 66.4867 110.196 66.8484 109.905 67.159C109.618 67.4662 109.256 67.7057 108.82 67.8775C108.387 68.0459 107.893 68.1302 107.338 68.1302ZM113.8 67.9766L111.561 60.3655H113.092L114.583 65.9549H114.658L116.154 60.3655H117.685L119.172 65.9301H119.246L120.728 60.3655H122.259L120.024 67.9766H118.513L116.967 62.4813H116.853L115.307 67.9766H113.8ZM127.309 67.9766V57.8285H133.602V59.1465H128.84V62.2385H133.151V63.5516H128.84V67.9766H127.309ZM137.93 68.1302C137.216 68.1302 136.593 67.9667 136.062 67.6396C135.53 67.3126 135.117 66.8551 134.823 66.267C134.529 65.679 134.382 64.9919 134.382 64.2057C134.382 63.4162 134.529 62.7258 134.823 62.1345C135.117 61.5432 135.53 61.084 136.062 60.757C136.593 60.4299 137.216 60.2664 137.93 60.2664C138.643 60.2664 139.266 60.4299 139.798 60.757C140.33 61.084 140.743 61.5432 141.037 62.1345C141.331 62.7258 141.478 63.4162 141.478 64.2057C141.478 64.9919 141.331 65.679 141.037 66.267C140.743 66.8551 140.33 67.3126 139.798 67.6396C139.266 67.9667 138.643 68.1302 137.93 68.1302ZM137.935 66.8864C138.397 66.8864 138.78 66.7642 139.084 66.5198C139.388 66.2753 139.613 65.9499 139.758 65.5436C139.907 65.1373 139.981 64.6897 139.981 64.2008C139.981 63.7152 139.907 63.2692 139.758 62.8629C139.613 62.4533 139.388 62.1246 139.084 61.8768C138.78 61.6291 138.397 61.5052 137.935 61.5052C137.469 61.5052 137.082 61.6291 136.775 61.8768C136.471 62.1246 136.245 62.4533 136.096 62.8629C135.951 63.2692 135.878 63.7152 135.878 64.2008C135.878 64.6897 135.951 65.1373 136.096 65.5436C136.245 65.9499 136.471 66.2753 136.775 66.5198C137.082 66.7642 137.469 66.8864 137.935 66.8864ZM143.048 67.9766V60.3655H144.48V61.5746H144.559C144.698 61.1649 144.942 60.8428 145.292 60.6083C145.646 60.3705 146.045 60.2515 146.491 60.2515C146.584 60.2515 146.693 60.2548 146.818 60.2614C146.947 60.2681 147.048 60.2763 147.121 60.2862V61.7034C147.061 61.6869 146.956 61.6687 146.804 61.6489C146.652 61.6258 146.5 61.6142 146.348 61.6142C145.998 61.6142 145.685 61.6885 145.411 61.8372C145.14 61.9825 144.926 62.1857 144.767 62.4467C144.608 62.7043 144.529 62.9983 144.529 63.3287V67.9766H143.048ZM148.319 67.9766V60.3655H149.741V61.6043H149.835C149.994 61.1848 150.253 60.8577 150.613 60.6232C150.973 60.3853 151.405 60.2664 151.907 60.2664C152.415 60.2664 152.841 60.3853 153.185 60.6232C153.532 60.861 153.788 61.1881 153.953 61.6043H154.032C154.214 61.198 154.503 60.8742 154.9 60.6331C155.296 60.3886 155.768 60.2664 156.317 60.2664C157.007 60.2664 157.57 60.4828 158.006 60.9155C158.446 61.3483 158.665 62.0007 158.665 62.8728V67.9766H157.184V63.0115C157.184 62.4962 157.043 62.1229 156.763 61.8917C156.482 61.6604 156.147 61.5448 155.757 61.5448C155.274 61.5448 154.9 61.6935 154.632 61.9908C154.364 62.2848 154.231 62.663 154.231 63.1255V67.9766H152.754V62.9174C152.754 62.5045 152.625 62.1725 152.367 61.9214C152.11 61.6704 151.774 61.5448 151.362 61.5448C151.081 61.5448 150.821 61.6192 150.584 61.7678C150.349 61.9132 150.159 62.1163 150.014 62.3773C149.872 62.6383 149.801 62.9405 149.801 63.2841V67.9766H148.319ZM166.221 60.4943C166.168 60.0253 165.95 59.6619 165.567 59.4042C165.184 59.1432 164.702 59.0128 164.12 59.0128C163.704 59.0128 163.344 59.0788 163.04 59.211C162.736 59.3398 162.5 59.5182 162.331 59.7461C162.166 59.9707 162.084 60.2268 162.084 60.5142C162.084 60.7553 162.14 60.9634 162.252 61.1385C162.368 61.3136 162.518 61.4606 162.703 61.5795C162.891 61.6951 163.093 61.7926 163.308 61.8719C163.522 61.9478 163.729 62.0106 163.927 62.0602L164.918 62.3178C165.242 62.3971 165.574 62.5045 165.914 62.6399C166.254 62.7753 166.57 62.9537 166.86 63.1751C167.151 63.3964 167.386 63.6706 167.564 63.9976C167.746 64.3246 167.837 64.7161 167.837 65.172C167.837 65.7468 167.688 66.2571 167.391 66.7031C167.097 67.1491 166.669 67.5009 166.107 67.7585C165.549 68.0162 164.873 68.145 164.081 68.145C163.321 68.145 162.663 68.0245 162.108 67.7833C161.554 67.5422 161.119 67.2003 160.805 66.7576C160.491 66.3116 160.318 65.7831 160.285 65.172H161.821C161.851 65.5386 161.97 65.8442 162.178 66.0887C162.389 66.3298 162.658 66.5098 162.986 66.6288C163.316 66.7444 163.678 66.8022 164.071 66.8022C164.503 66.8022 164.888 66.7345 165.225 66.599C165.565 66.4603 165.833 66.2687 166.028 66.0242C166.223 65.7765 166.32 65.4874 166.32 65.1571C166.32 64.8565 166.234 64.6104 166.063 64.4188C165.894 64.2272 165.665 64.0686 165.374 63.9431C165.086 63.8176 164.761 63.7069 164.398 63.6111L163.199 63.2841C162.386 63.0627 161.742 62.7374 161.266 62.3079C160.794 61.8785 160.558 61.3103 160.558 60.6034C160.558 60.0186 160.716 59.5083 161.033 59.0722C161.35 58.6362 161.78 58.2976 162.322 58.0564C162.863 57.812 163.474 57.6897 164.155 57.6897C164.842 57.6897 165.448 57.8103 165.973 58.0515C166.502 58.2926 166.918 58.6246 167.222 59.0474C167.526 59.467 167.685 59.9493 167.698 60.4943H166.221ZM173.869 68.1153C172.954 68.1153 172.149 67.9039 171.456 67.4811C170.762 67.0582 170.222 66.4586 169.835 65.6823C169.449 64.9027 169.256 63.9778 169.256 62.9075C169.256 62.0981 169.369 61.3714 169.597 60.7272C169.829 60.0831 170.151 59.5364 170.564 59.0871C170.977 58.6345 171.462 58.2893 172.02 58.0515C172.579 57.8103 173.185 57.6897 173.839 57.6897C174.387 57.6897 174.901 57.7707 175.38 57.9325C175.862 58.0944 176.293 58.324 176.673 58.6213C177.053 58.9153 177.367 59.2671 177.615 59.6767C177.866 60.0864 178.034 60.5389 178.12 61.0344H176.549C176.46 60.7338 176.333 60.4646 176.168 60.2268C176.003 59.9856 175.803 59.7808 175.568 59.6123C175.337 59.4406 175.078 59.3101 174.79 59.2209C174.503 59.1317 174.191 59.0871 173.854 59.0871C173.279 59.0871 172.759 59.2341 172.293 59.5281C171.827 59.8221 171.457 60.2532 171.183 60.8214C170.912 61.3863 170.777 62.0783 170.777 62.8976C170.777 63.7201 170.911 64.4155 171.178 64.9837C171.446 65.5519 171.812 65.983 172.278 66.277C172.744 66.571 173.274 66.718 173.869 66.718C174.437 66.718 174.932 66.599 175.355 66.3612C175.778 66.1233 176.105 65.7947 176.336 65.3751C176.571 64.9556 176.688 64.4749 176.688 63.9332L176.931 64.0472H174.102V62.7836H178.19V67.9766H177.01L176.872 66.7626H176.822C176.449 67.1953 176.026 67.529 175.553 67.7635C175.084 67.998 174.523 68.1153 173.869 68.1153ZM189.239 62.2237L187.896 62.4615C187.84 62.2897 187.751 62.1262 187.629 61.971C187.51 61.8157 187.348 61.6885 187.143 61.5894C186.938 61.4903 186.682 61.4408 186.375 61.4408C185.956 61.4408 185.606 61.5349 185.325 61.7232C185.044 61.9082 184.904 62.1477 184.904 62.4417C184.904 62.6961 184.998 62.9009 185.186 63.0561C185.374 63.2114 185.678 63.3386 186.098 63.4377L187.307 63.7152C188.007 63.877 188.529 64.1264 188.873 64.4634C189.216 64.8003 189.388 65.238 189.388 65.7765C189.388 66.2324 189.256 66.6387 188.992 66.9954C188.731 67.3489 188.366 67.6264 187.896 67.8279C187.431 68.0294 186.891 68.1302 186.276 68.1302C185.424 68.1302 184.728 67.9485 184.19 67.5851C183.652 67.2184 183.321 66.6981 183.199 66.0242L184.631 65.8062C184.72 66.1795 184.904 66.4619 185.181 66.6535C185.459 66.8418 185.82 66.936 186.266 66.936C186.752 66.936 187.14 66.8352 187.431 66.6337C187.721 66.4289 187.867 66.1795 187.867 65.8855C187.867 65.6477 187.778 65.4478 187.599 65.2859C187.424 65.1241 187.155 65.0018 186.791 64.9193L185.503 64.6368C184.793 64.4749 184.268 64.2173 183.927 63.8638C183.59 63.5104 183.422 63.0627 183.422 62.521C183.422 62.0717 183.547 61.6786 183.799 61.3417C184.05 61.0047 184.396 60.7421 184.839 60.5538C185.282 60.3622 185.789 60.2664 186.36 60.2664C187.183 60.2664 187.83 60.4448 188.303 60.8016C188.775 61.155 189.087 61.6291 189.239 62.2237ZM195.755 64.8202V60.3655H197.241V67.9766H195.784V66.6585H195.705C195.53 67.0648 195.249 67.4034 194.863 67.6743C194.479 67.9419 194.002 68.0757 193.431 68.0757C192.942 68.0757 192.509 67.9683 192.132 67.7536C191.759 67.5356 191.465 67.2135 191.25 66.7873C191.039 66.3612 190.933 65.8343 190.933 65.2067V60.3655H192.415V65.0283C192.415 65.5469 192.558 65.9598 192.846 66.267C193.133 66.5743 193.507 66.7279 193.966 66.7279C194.243 66.7279 194.519 66.6585 194.793 66.5198C195.071 66.381 195.3 66.1712 195.482 65.8905C195.667 65.6097 195.758 65.2529 195.755 64.8202ZM199.267 67.9766V57.8285H200.749V61.5993H200.838C200.924 61.4408 201.048 61.2574 201.209 61.0493C201.371 60.8412 201.596 60.6595 201.883 60.5043C202.171 60.3457 202.551 60.2664 203.023 60.2664C203.637 60.2664 204.186 60.4217 204.668 60.7322C205.15 61.0427 205.529 61.4903 205.803 62.075C206.08 62.6597 206.219 63.3634 206.219 64.1859C206.219 65.0084 206.082 65.7137 205.808 66.3017C205.534 66.8864 205.157 67.3374 204.678 67.6545C204.199 67.9683 203.652 68.1252 203.038 68.1252C202.575 68.1252 202.197 68.0476 201.903 67.8923C201.612 67.7371 201.384 67.5554 201.219 67.3473C201.054 67.1391 200.927 66.9542 200.838 66.7923H200.714V67.9766H199.267ZM200.719 64.171C200.719 64.7062 200.796 65.1753 200.952 65.5783C201.107 65.9813 201.332 66.2968 201.626 66.5247C201.92 66.7493 202.28 66.8617 202.706 66.8617C203.148 66.8617 203.518 66.7444 203.816 66.5098C204.113 66.272 204.338 65.9499 204.49 65.5436C204.645 65.1373 204.723 64.6798 204.723 64.171C204.723 63.6689 204.647 63.218 204.495 62.8183C204.346 62.4186 204.121 62.1031 203.821 61.8719C203.523 61.6406 203.152 61.525 202.706 61.525C202.276 61.525 201.913 61.6357 201.616 61.857C201.322 62.0783 201.099 62.3872 200.947 62.7836C200.795 63.18 200.719 63.6425 200.719 64.171ZM207.799 67.9766V60.3655H209.221V61.6043H209.315C209.474 61.1848 209.733 60.8577 210.093 60.6232C210.453 60.3853 210.884 60.2664 211.386 60.2664C211.895 60.2664 212.321 60.3853 212.665 60.6232C213.012 60.861 213.268 61.1881 213.433 61.6043H213.512C213.694 61.198 213.983 60.8742 214.379 60.6331C214.776 60.3886 215.248 60.2664 215.797 60.2664C216.487 60.2664 217.05 60.4828 217.486 60.9155C217.926 61.3483 218.145 62.0007 218.145 62.8728V67.9766H216.664V63.0115C216.664 62.4962 216.523 62.1229 216.242 61.8917C215.962 61.6604 215.626 61.5448 215.237 61.5448C214.754 61.5448 214.379 61.6935 214.112 61.9908C213.844 62.2848 213.71 62.663 213.71 63.1255V67.9766H212.234V62.9174C212.234 62.5045 212.105 62.1725 211.847 61.9214C211.59 61.6704 211.254 61.5448 210.841 61.5448C210.561 61.5448 210.301 61.6192 210.063 61.7678C209.829 61.9132 209.639 62.1163 209.494 62.3773C209.352 62.6383 209.281 62.9405 209.281 63.2841V67.9766H207.799ZM220.047 67.9766V60.3655H221.529V67.9766H220.047ZM220.796 59.1911C220.538 59.1911 220.317 59.1053 220.132 58.9335C219.95 58.7584 219.859 58.5503 219.859 58.3091C219.859 58.0647 219.95 57.8566 220.132 57.6848C220.317 57.5097 220.538 57.4222 220.796 57.4222C221.053 57.4222 221.273 57.5097 221.455 57.6848C221.64 57.8566 221.732 58.0647 221.732 58.3091C221.732 58.5503 221.64 58.7584 221.455 58.9335C221.273 59.1053 221.053 59.1911 220.796 59.1911ZM229.142 62.2237L227.799 62.4615C227.743 62.2897 227.653 62.1262 227.531 61.971C227.412 61.8157 227.25 61.6885 227.046 61.5894C226.841 61.4903 226.585 61.4408 226.278 61.4408C225.858 61.4408 225.508 61.5349 225.227 61.7232C224.946 61.9082 224.806 62.1477 224.806 62.4417C224.806 62.6961 224.9 62.9009 225.088 63.0561C225.277 63.2114 225.581 63.3386 226 63.4377L227.209 63.7152C227.909 63.877 228.431 64.1264 228.775 64.4634C229.119 64.8003 229.29 65.238 229.29 65.7765C229.29 66.2324 229.158 66.6387 228.894 66.9954C228.633 67.3489 228.268 67.6264 227.799 67.8279C227.333 68.0294 226.793 68.1302 226.179 68.1302C225.326 68.1302 224.631 67.9485 224.092 67.5851C223.554 67.2184 223.224 66.6981 223.101 66.0242L224.533 65.8062C224.623 66.1795 224.806 66.4619 225.083 66.6535C225.361 66.8418 225.723 66.936 226.169 66.936C226.654 66.936 227.042 66.8352 227.333 66.6337C227.624 66.4289 227.769 66.1795 227.769 65.8855C227.769 65.6477 227.68 65.4478 227.502 65.2859C227.326 65.1241 227.057 65.0018 226.694 64.9193L225.406 64.6368C224.695 64.4749 224.17 64.2173 223.83 63.8638C223.493 63.5104 223.324 63.0627 223.324 62.521C223.324 62.0717 223.45 61.6786 223.701 61.3417C223.952 61.0047 224.299 60.7421 224.742 60.5538C225.184 60.3622 225.691 60.2664 226.263 60.2664C227.085 60.2664 227.733 60.4448 228.205 60.8016C228.678 61.155 228.99 61.6291 229.142 62.2237ZM236.539 62.2237L235.196 62.4615C235.14 62.2897 235.051 62.1262 234.929 61.971C234.81 61.8157 234.648 61.6885 234.443 61.5894C234.238 61.4903 233.982 61.4408 233.675 61.4408C233.255 61.4408 232.905 61.5349 232.624 61.7232C232.344 61.9082 232.203 62.1477 232.203 62.4417C232.203 62.6961 232.297 62.9009 232.486 63.0561C232.674 63.2114 232.978 63.3386 233.397 63.4377L234.606 63.7152C235.307 63.877 235.829 64.1264 236.172 64.4634C236.516 64.8003 236.688 65.238 236.688 65.7765C236.688 66.2324 236.555 66.6387 236.291 66.9954C236.03 67.3489 235.665 67.6264 235.196 67.8279C234.73 68.0294 234.19 68.1302 233.576 68.1302C232.723 68.1302 232.028 67.9485 231.49 67.5851C230.951 67.2184 230.621 66.6981 230.499 66.0242L231.931 65.8062C232.02 66.1795 232.203 66.4619 232.481 66.6535C232.758 66.8418 233.12 66.936 233.566 66.936C234.051 66.936 234.44 66.8352 234.73 66.6337C235.021 66.4289 235.166 66.1795 235.166 65.8855C235.166 65.6477 235.077 65.4478 234.899 65.2859C234.724 65.1241 234.454 65.0018 234.091 64.9193L232.803 64.6368C232.093 64.4749 231.567 64.2173 231.227 63.8638C230.89 63.5104 230.722 63.0627 230.722 62.521C230.722 62.0717 230.847 61.6786 231.098 61.3417C231.349 61.0047 231.696 60.7421 232.139 60.5538C232.581 60.3622 233.089 60.2664 233.66 60.2664C234.483 60.2664 235.13 60.4448 235.602 60.8016C236.075 61.155 236.387 61.6291 236.539 62.2237ZM238.233 67.9766V60.3655H239.714V67.9766H238.233ZM238.981 59.1911C238.723 59.1911 238.502 59.1053 238.317 58.9335C238.135 58.7584 238.045 58.5503 238.045 58.3091C238.045 58.0647 238.135 57.8566 238.317 57.6848C238.502 57.5097 238.723 57.4222 238.981 57.4222C239.239 57.4222 239.458 57.5097 239.64 57.6848C239.825 57.8566 239.918 58.0647 239.918 58.3091C239.918 58.5503 239.825 58.7584 239.64 58.9335C239.458 59.1053 239.239 59.1911 238.981 59.1911ZM244.83 68.1302C244.116 68.1302 243.494 67.9667 242.962 67.6396C242.43 67.3126 242.017 66.8551 241.723 66.267C241.429 65.679 241.282 64.9919 241.282 64.2057C241.282 63.4162 241.429 62.7258 241.723 62.1345C242.017 61.5432 242.43 61.084 242.962 60.757C243.494 60.4299 244.116 60.2664 244.83 60.2664C245.543 60.2664 246.166 60.4299 246.698 60.757C247.23 61.084 247.643 61.5432 247.937 62.1345C248.231 62.7258 248.378 63.4162 248.378 64.2057C248.378 64.9919 248.231 65.679 247.937 66.267C247.643 66.8551 247.23 67.3126 246.698 67.6396C246.166 67.9667 245.543 68.1302 244.83 68.1302ZM244.835 66.8864C245.297 66.8864 245.68 66.7642 245.984 66.5198C246.288 66.2753 246.513 65.9499 246.658 65.5436C246.807 65.1373 246.881 64.6897 246.881 64.2008C246.881 63.7152 246.807 63.2692 246.658 62.8629C246.513 62.4533 246.288 62.1246 245.984 61.8768C245.68 61.6291 245.297 61.5052 244.835 61.5052C244.369 61.5052 243.983 61.6291 243.675 61.8768C243.371 62.1246 243.145 62.4533 242.996 62.8629C242.851 63.2692 242.778 63.7152 242.778 64.2008C242.778 64.6897 242.851 65.1373 242.996 65.5436C243.145 65.9499 243.371 66.2753 243.675 66.5198C243.983 66.7642 244.369 66.8864 244.835 66.8864ZM251.429 63.4575V67.9766H249.948V60.3655H251.37V61.6043H251.464C251.639 61.2013 251.913 60.8775 252.287 60.6331C252.663 60.3886 253.137 60.2664 253.709 60.2664C254.227 60.2664 254.682 60.3754 255.071 60.5934C255.461 60.8082 255.763 61.1286 255.978 61.5547C256.193 61.9809 256.3 62.5078 256.3 63.1354V67.9766H254.819V63.3138C254.819 62.7621 254.675 62.331 254.388 62.0205C254.1 61.7067 253.705 61.5498 253.203 61.5498C252.86 61.5498 252.554 61.6241 252.287 61.7728C252.022 61.9214 251.813 62.1394 251.657 62.4268C251.505 62.7109 251.429 63.0545 251.429 63.4575Z" fill="#454953"/>
</g>
<defs>
<filter id="filter0_d_2382_1446" x="0.278999" y="0.278999" width="614.831" height="101.164" filterUnits="userSpaceOnUse" color-interpolation-filters="sRGB">
<feFlood flood-opacity="0" result="BackgroundImageFix"/>
<feColorMatrix in="SourceAlpha" type="matrix" values="0 0 0 0 0 0 0 0 0 0 0 0 0 0 0 0 0 0 127 0" result="hardAlpha"/>
<feOffset/>
<feGaussianBlur stdDeviation="4.3605"/>
<feColorMatrix type="matrix" values="0 0 0 0 0.74902 0 0 0 0 0.74902 0 0 0 0 0.74902 0 0 0 0.5 0"/>
<feBlend mode="normal" in2="BackgroundImageFix" result="effect1_dropShadow_2382_1446"/>
<feBlend mode="normal" in="SourceGraphic" in2="effect1_dropShadow_2382_1446" result="shape"/>
</filter>
<clipPath id="clip0_2382_1446">
<rect width="20.9304" height="20.9303" fill="white" transform="translate(40.3956 40.3955)"/>
</clipPath>
</defs>
</svg>
