<svg width="80" height="81" viewBox="0 0 80 81" fill="none" xmlns="http://www.w3.org/2000/svg">
<g clip-path="url(#clip0_743_31642)">
<path d="M59.9761 68.439H61.6582C61.8462 68.439 61.9986 68.5913 61.9986 68.7793V70.0781H59.6514V68.7793C59.6512 68.5973 59.7942 68.4473 59.9761 68.439Z" fill="#CF1A68" stroke="black" stroke-width="0.25"/>
<path d="M63.4927 68.439H65.1749C65.3628 68.439 65.5152 68.5913 65.5152 68.7793V70.0781H63.168V68.7793C63.1678 68.5973 63.3108 68.4473 63.4927 68.439Z" fill="#CF1A68" stroke="black" stroke-width="0.25"/>
<path d="M67.0102 68.439H68.6924C68.8804 68.439 69.0328 68.5913 69.0328 68.7793V70.0781H66.6855V68.7793C66.6854 68.5973 66.8284 68.4473 67.0102 68.439Z" fill="#CF1A68" stroke="black" stroke-width="0.25"/>
<path d="M70.5229 68.439H72.2051C72.3931 68.439 72.5455 68.5913 72.5455 68.7793V70.0781H70.1982V68.7793C70.198 68.5973 70.3411 68.4473 70.5229 68.439Z" fill="#CF1A68" stroke="black" stroke-width="0.25"/>
<path d="M74.0395 68.439H75.7217C75.9097 68.439 76.0621 68.5913 76.0621 68.7793V70.0781H73.7148V68.7793C73.7147 68.5973 73.8577 68.4473 74.0395 68.439Z" fill="#CF1A68" stroke="black" stroke-width="0.25"/>
<path d="M77.5571 68.439H79.2393C79.4273 68.439 79.5797 68.5913 79.5797 68.7793V70.0781H77.2324V68.7793C77.2322 68.5973 77.3753 68.4473 77.5571 68.439Z" fill="#CF1A68" stroke="black" stroke-width="0.25"/>
<rect x="7" y="15.333" width="63.8704" height="42.3141" rx="3.3" fill="#F9DDE9"/>
<rect x="7.10547" y="15" width="63.9778" height="42.4106" rx="3.3" stroke="black"/>
<path d="M10.1875 53.3147V54.0972C10.1896 54.2043 10.2759 54.2907 10.3831 54.2928C10.4903 54.2907 10.5766 54.2043 10.5787 54.0972V53.3147C10.5766 53.2076 10.4903 53.1212 10.3831 53.1191C10.2759 53.1212 10.1896 53.2076 10.1875 53.3147Z" fill="black"/>
<path d="M11.666 53.3147V54.0972C11.6681 54.2043 11.7545 54.2907 11.8616 54.2928C11.9688 54.2907 12.0551 54.2043 12.0572 54.0972V53.3147C12.0551 53.2076 11.9688 53.1212 11.8616 53.1191C11.7545 53.1212 11.6681 53.2076 11.666 53.3147H11.666Z" fill="black"/>
<path d="M13.1768 53.3147V54.0972C13.1788 54.2043 13.2652 54.2907 13.3724 54.2928C13.4795 54.2907 13.5659 54.2043 13.568 54.0972V53.3147C13.5659 53.2076 13.4795 53.1212 13.3724 53.1191C13.2652 53.1212 13.1788 53.2076 13.1768 53.3147H13.1768Z" fill="black"/>
<path d="M14.6709 53.3147V54.0972C14.673 54.2043 14.7593 54.2907 14.8665 54.2928C14.9737 54.2907 15.06 54.2043 15.0621 54.0972V53.3147C15.06 53.2076 14.9737 53.1212 14.8665 53.1191C14.7593 53.1212 14.673 53.2076 14.6709 53.3147Z" fill="black"/>
<path d="M16.165 53.3147V54.0972C16.1671 54.2043 16.2535 54.2907 16.3606 54.2928C16.4678 54.2907 16.5542 54.2043 16.5562 54.0972V53.3147C16.5562 53.2067 16.4687 53.1191 16.3606 53.1191C16.2526 53.1191 16.165 53.2067 16.165 53.3147Z" fill="black"/>
<rect x="29.9277" y="47.9863" width="11.8653" height="23.5232" rx="2.56" fill="#F9DDE9" stroke="black"/>
<rect x="26.5244" y="69.769" width="21.532" height="1.74085" rx="0.870426" fill="black" stroke="black"/>
<path d="M58.6471 69.2876H100.936C101.219 69.2876 101.489 69.3997 101.689 69.5993C101.888 69.7988 102.001 70.0695 102.001 70.3517V71.5253H57.583V70.3517C57.583 70.0695 57.6951 69.7988 57.8947 69.5993C58.0942 69.3997 58.3649 69.2876 58.6471 69.2876Z" fill="#CF1A68"/>
<path fill-rule="evenodd" clip-rule="evenodd" d="M58.6471 69.2876H100.936C101.219 69.2876 101.489 69.3997 101.689 69.5993C101.888 69.7988 102.001 70.0695 102.001 70.3517V71.5253H57.583V70.3517C57.583 70.0695 57.6951 69.7988 57.8947 69.5993C58.0942 69.3997 58.3649 69.2876 58.6471 69.2876V69.2876Z" stroke="black" stroke-width="0.25"/>
</g>
<defs>
<clipPath id="clip0_743_31642">
<rect width="80" height="80" fill="white" transform="translate(0 0.5)"/>
</clipPath>
</defs>
</svg>
