<svg width="346" height="388" viewBox="0 0 346 388" fill="none" xmlns="http://www.w3.org/2000/svg">
<rect x="113" y="1" width="78" height="78" rx="9" fill="white" stroke="black" stroke-width="2"/>
<path fill-rule="evenodd" clip-rule="evenodd" d="M132 40.0001H172V20H132V40.0001Z" fill="#2F60CE"/>
<path fill-rule="evenodd" clip-rule="evenodd" d="M132 53.2919H162V40H132V53.2919Z" fill="#05E3AB"/>
<path fill-rule="evenodd" clip-rule="evenodd" d="M132 40.0001H152.063V20H132V40.0001Z" fill="#23489B"/>
<path fill-rule="evenodd" clip-rule="evenodd" d="M132 60.0001H152.063V40H132V60.0001Z" fill="#04AA80"/>
<rect x="267" y="96" width="78" height="78" rx="9" fill="white" stroke="black" stroke-width="2"/>
<path d="M323.929 150.562C323.929 149.554 324.738 148.732 325.757 148.639C325.855 148.623 325.935 148.546 325.935 148.453V144.947C325.935 144.854 325.855 144.776 325.757 144.761C324.722 144.683 323.929 143.846 323.929 142.837C323.929 141.829 324.738 141.007 325.757 140.914C325.855 140.898 325.935 140.821 325.935 140.728V137.268C325.935 137.175 325.855 137.098 325.757 137.082C324.722 137.005 323.929 136.167 323.929 135.159C323.929 134.15 324.738 133.328 325.757 133.235C325.855 133.22 325.935 133.142 325.935 133.049V129.543C325.935 129.45 325.855 129.373 325.757 129.357C324.722 129.28 323.929 128.442 323.929 127.434C323.929 126.425 324.738 125.603 325.757 125.51C325.855 125.495 325.935 125.417 325.935 125.324V121.865C325.935 121.772 325.855 121.694 325.757 121.679C324.722 121.601 323.929 120.763 323.929 119.755C323.929 118.747 324.738 117.925 325.757 117.832C325.855 117.816 325.935 117.738 325.935 117.645V114.186C325.935 114.093 325.855 114 325.741 114H322.489C322.376 114 322.295 114.078 322.295 114.186C322.295 115.148 321.486 115.924 320.482 115.924C319.479 115.924 318.67 115.148 318.67 114.186C318.67 114.093 318.589 114 318.476 114H315.223C315.126 114 315.029 114.078 315.029 114.186C315.029 115.148 314.22 115.924 313.217 115.924C312.214 115.924 311.405 115.148 311.405 114.186C311.405 114.093 311.324 114 311.21 114H307.958C307.845 114 307.764 114.078 307.764 114.186C307.764 115.148 306.955 115.924 305.952 115.924C304.948 115.924 304.139 115.148 304.139 114.186C304.139 114.078 304.058 114 303.945 114H300.709C300.596 114 300.515 114.078 300.515 114.186C300.515 115.148 299.706 115.924 298.702 115.924C297.699 115.924 296.89 115.148 296.89 114.186C296.89 114.093 296.809 114 296.696 114H293.46C293.346 114 293.265 114.078 293.265 114.186C293.265 115.148 292.456 115.924 291.453 115.924C290.45 115.924 289.641 115.148 289.641 114.186C289.641 114.078 289.56 114 289.447 114H286.194C286.081 114 286 114.078 286 114.186V117.676C286 117.769 286.081 117.847 286.178 117.863C287.214 117.94 288.006 118.778 288.006 119.786C288.006 120.794 287.197 121.601 286.178 121.694C286.081 121.694 286 121.772 286 121.865V125.37C286 125.464 286.081 125.541 286.178 125.557C287.214 125.634 288.006 126.472 288.006 127.48C288.006 128.488 287.197 129.311 286.178 129.404C286.081 129.404 286 129.481 286 129.574V133.08C286 133.173 286.081 133.251 286.178 133.266C287.214 133.344 288.006 134.181 288.006 135.19C288.006 136.198 287.197 137.02 286.178 137.113C286.081 137.098 286 137.175 286 137.268V140.774C286 140.867 286.081 140.945 286.178 140.96C287.214 141.038 288.006 141.875 288.006 142.884C288.006 143.892 287.197 144.714 286.178 144.807C286.081 144.792 286 144.869 286 144.962V148.468C286 148.561 286.081 148.639 286.178 148.654C287.214 148.732 288.006 149.569 288.006 150.578C288.006 151.586 287.197 152.408 286.178 152.501C286.081 152.517 286 152.594 286 152.687V156.178C286 156.271 286.081 156.364 286.194 156.364H289.463C289.56 156.364 289.641 156.286 289.657 156.209C289.738 155.325 290.515 154.627 291.469 154.627C292.424 154.627 293.184 155.325 293.282 156.209C293.298 156.302 293.379 156.364 293.476 156.364H296.744C296.841 156.364 296.922 156.286 296.939 156.209C297.019 155.325 297.796 154.627 298.751 154.627C299.689 154.627 300.466 155.325 300.563 156.209C300.579 156.302 300.66 156.364 300.757 156.364H304.026C304.123 156.364 304.204 156.286 304.22 156.209C304.301 155.325 305.078 154.627 306.032 154.627C306.971 154.627 307.748 155.325 307.845 156.209C307.861 156.302 307.942 156.364 308.039 156.364H311.243C311.34 156.364 311.421 156.286 311.437 156.209C311.518 155.325 312.295 154.627 313.249 154.627C314.188 154.627 314.965 155.325 315.062 156.209C315.078 156.302 315.159 156.364 315.256 156.364H318.524C318.621 156.364 318.702 156.286 318.719 156.209C318.799 155.325 319.576 154.627 320.531 154.627C321.469 154.627 322.246 155.325 322.343 156.209C322.359 156.302 322.44 156.364 322.537 156.364H325.806C325.903 156.364 326 156.286 326 156.178V152.687C326 152.594 325.919 152.517 325.822 152.501C324.738 152.393 323.929 151.57 323.929 150.562Z" fill="#040651"/>
<path d="M306.162 130.66C306.162 131.203 306.615 131.638 307.182 131.638C307.748 131.638 308.201 131.203 308.201 130.66C308.201 130.117 307.748 129.683 307.182 129.683C306.615 129.683 306.162 130.117 306.162 130.66Z" fill="#F5F6FC"/>
<path d="M307.278 119.895H294.543C293.491 119.895 292.634 120.701 292.634 121.725V149.6C292.634 150.066 293.038 150.454 293.524 150.454H297.585C298.767 150.454 299.754 149.6 299.883 148.484L300.53 142.76C300.757 140.805 300.967 138.881 301.194 136.973V136.958C301.21 136.818 301.226 136.679 301.242 136.539C301.453 134.709 301.679 132.894 301.873 131.063C302.1 128.954 303.702 127.278 305.789 127.015C307.877 126.735 309.689 127.713 310.611 129.574C310.741 129.838 310.902 130.102 311.097 130.334L312.165 131.715C312.181 131.73 312.197 131.746 312.197 131.761C312.569 132.18 312.925 132.584 313.281 132.987C313.475 133.204 313.313 133.545 313.022 133.53C312.472 133.53 311.906 133.53 311.356 133.53C310.142 133.545 309.883 133.871 310.271 134.988C311.016 137.222 311.776 139.44 312.537 141.658C312.828 142.511 313.896 142.868 314.673 142.356C317.715 140.355 319.802 137.113 320.174 133.39C320.902 125.96 315.045 119.895 307.278 119.895Z" fill="#DB4F5D"/>
<rect x="143" y="238" width="78" height="78" rx="9" fill="white" stroke="black" stroke-width="2"/>
<path d="M191.166 263.667C187.95 263.667 185.333 266.283 185.333 269.5C185.333 272.09 187.041 274.265 189.383 275.025C189.14 276.578 188.471 277.858 187.333 278.897C184.09 281.852 178.121 282.122 175.333 282.075V271.728C177.733 271.005 179.5 268.8 179.5 266.167C179.5 262.95 176.883 260.333 173.666 260.333C170.45 260.333 167.833 262.95 167.833 266.167C167.833 268.8 169.6 271.005 172 271.728V282.272C169.6 282.995 167.833 285.2 167.833 287.833C167.833 291.05 170.45 293.667 173.666 293.667C176.883 293.667 179.5 291.05 179.5 287.833C179.5 286.915 179.266 286.058 178.888 285.285C182.321 284.975 186.65 284.023 189.57 281.368C191.398 279.707 192.455 277.595 192.743 275.088C195.191 274.397 197 272.167 197 269.5C197 266.283 194.383 263.667 191.166 263.667ZM171.166 266.167C171.166 264.788 172.288 263.667 173.666 263.667C175.045 263.667 176.166 264.788 176.166 266.167C176.166 267.545 175.045 268.667 173.666 268.667C172.288 268.667 171.166 267.545 171.166 266.167ZM173.666 290.333C172.288 290.333 171.166 289.212 171.166 287.833C171.167 287.176 171.427 286.546 171.889 286.078C172.351 285.611 172.979 285.345 173.636 285.337L173.853 285.353C174.18 285.366 174.501 285.442 174.799 285.579C175.096 285.715 175.364 285.909 175.586 286.149C175.809 286.389 175.982 286.67 176.096 286.977C176.21 287.284 176.262 287.61 176.25 287.937C176.237 288.264 176.161 288.585 176.024 288.883C175.888 289.18 175.694 289.448 175.454 289.67C175.214 289.893 174.933 290.066 174.626 290.18C174.32 290.293 173.993 290.346 173.666 290.333ZM191.166 272C189.788 272 188.666 270.878 188.666 269.5C188.666 268.122 189.788 267 191.166 267C192.545 267 193.666 268.122 193.666 269.5C193.666 270.878 192.545 272 191.166 272Z" fill="#CF1A68"/>
<path d="M192 40H298C303.523 40 308 44.4772 308 50V95" stroke="#F0B0CA" stroke-width="3"/>
<path d="M112 40H-14C-19.5229 40 -24 44.4772 -24 50V95" stroke="#F0B0CA" stroke-width="3"/>
<path d="M308 175L308 281C308 286.523 303.523 291 298 291L222 291" stroke="#F0B0CA" stroke-width="3"/>
<path d="M57 388L57 301C57 295.477 61.4772 291 67 291L142 291" stroke="#F0B0CA" stroke-width="3"/>
</svg>
