<svg width="90" height="91" viewBox="0 0 90 91" fill="none" xmlns="http://www.w3.org/2000/svg">
<g clip-path="url(#clip0_2608_2867)">
<path d="M56.1648 31.3528C54.7886 29.5894 53.3673 29.0631 51.8874 29.1563C50.1735 29.2658 48.3717 30.2134 46.4247 31.0797L17.872 43.7765L7.61191 48.339C3.84364 50.0103 1.81357 54.1408 2.79231 58.1452C3.77105 62.1496 7.47751 64.878 11.5919 64.6227L17.9191 64.2431L18.6713 76.6783C18.6981 77.113 18.9173 77.513 19.2691 77.7697C19.621 78.0263 20.0689 78.1128 20.491 78.0056L23.5516 77.2256C24.2274 77.0532 24.6875 76.4276 24.6506 75.7312L24.2562 68.5507C24.2333 68.1148 24.4461 67.7001 24.8136 67.4646L25.2472 67.1851C26.0876 66.6443 26.651 65.7644 26.7903 64.7747L26.9418 63.6948L31.9089 63.3758C40.6738 62.8401 49.4378 62.2056 58.2076 61.7696C59.8804 61.6871 61.1065 61.6073 61.8793 59.9839C62.4509 58.782 62.605 57.3569 62.6934 56.0466C62.9674 51.9613 62.2643 47.7721 61.2595 43.8249C60.1784 39.5838 58.9252 34.8491 56.1648 31.3528Z" fill="#F0B0CA"/>
<path d="M59.8603 38.2033C60.9319 36.4528 63.2197 35.9024 64.9702 36.974C66.7207 38.0457 67.2711 40.3335 66.1994 42.084C65.1278 43.8345 62.84 44.3848 61.0895 43.3132C59.339 42.2416 58.7886 39.9538 59.8603 38.2033Z" fill="#CF1A68"/>
<path d="M76.6245 25.2346C69.7072 28.5882 62.6932 31.7352 55.5825 34.6757C55.4735 34.721 55.5623 34.8843 55.6744 34.844C62.7791 31.9049 69.793 28.7579 76.7164 25.4029C76.8237 25.3505 76.7336 25.1894 76.6245 25.2346Z" fill="black" stroke="black" stroke-width="0.5"/>
<path d="M55.0184 32.1233L59.4995 27.9875C59.5887 27.907 59.4597 27.7743 59.3723 27.8543L54.8894 31.9906C54.802 32.0706 54.9297 32.2056 55.0184 32.1233Z" fill="black" stroke="black" stroke-width="0.5"/>
<path d="M61.4548 26.3759L62.3706 25.5368C62.4077 25.501 62.4089 25.4419 62.3731 25.4048C62.3374 25.3676 62.2783 25.3665 62.2411 25.4023L61.3276 26.2427C61.2384 26.3232 61.3674 26.4559 61.4548 26.3759Z" fill="black" stroke="black" stroke-width="0.5"/>
<path d="M59.0391 47.4476L67.8344 45.9221C67.9496 45.8944 67.9063 45.7144 67.7911 45.7421L58.9958 47.2676C58.8788 47.2958 58.9239 47.4753 59.0391 47.4476Z" fill="black" stroke="black" stroke-width="0.5"/>
<path d="M60.9051 56.4506C63.919 57.1384 66.9423 57.7833 69.9749 58.3853C70.091 58.4088 70.1456 58.232 70.0295 58.2085C66.9969 57.6064 63.973 56.9617 60.9579 56.2742C60.8428 56.2467 60.7886 56.4253 60.9051 56.4506Z" fill="black" stroke="black" stroke-width="0.5"/>
<path d="M61.2053 53.0006C62.1545 53.0171 63.1034 52.9481 64.0403 52.7946C64.1577 52.7759 64.1144 52.5959 63.997 52.6146C63.0765 52.7644 62.1444 52.8312 61.2119 52.8143C61.1589 52.8129 61.1148 52.8546 61.1134 52.9075C61.1119 52.9604 61.1536 53.0045 61.2066 53.006L61.2053 53.0006Z" fill="black" stroke="black" stroke-width="0.5"/>
<path d="M66.3282 52.592L67.7923 52.5044C67.9104 52.497 67.9175 52.3125 67.7976 52.3128L66.3339 52.4021C66.2158 52.4096 66.2087 52.5941 66.3286 52.5938L66.3282 52.592Z" fill="black" stroke="black" stroke-width="0.5"/>
<circle cx="75.1214" cy="53.5448" r="4.17452" transform="rotate(-13.5258 75.1214 53.5448)" fill="#CF1A68"/>
<path d="M70.8943 15.847L61.842 14.8239C61.6554 14.8026 61.4716 14.8825 61.3598 15.0335C61.2481 15.1844 61.2254 15.3836 61.3003 15.5558L64.941 23.907C65.0159 24.0797 65.1774 24.1992 65.3645 24.2202C65.5516 24.2413 65.7356 24.1607 65.847 24.0089L71.2497 16.683C71.3616 16.5331 71.3854 16.3351 71.3122 16.1629C71.239 15.9907 71.0799 15.8704 70.8943 15.847Z" fill="#CF1A68"/>
<path d="M76.1385 23.2411L79.6359 25.7966L83.5992 24.0435L84.0637 19.7372L80.5644 17.1821L76.6025 18.933L76.1385 23.2411Z" fill="#CF1A68"/>
</g>
<defs>
<clipPath id="clip0_2608_2867">
<rect width="90" height="90" fill="white" transform="translate(0 0.0810547)"/>
</clipPath>
</defs>
</svg>
