<svg width="90" height="91" viewBox="0 0 90 91" fill="none" xmlns="http://www.w3.org/2000/svg">
<g clip-path="url(#clip0_743_31646)">
<g filter="url(#filter0_d_743_31646)">
<path d="M56.165 31.7717C54.7888 30.0083 53.3674 29.482 51.8876 29.5752C50.1736 29.6848 48.3719 30.6323 46.4249 31.4986L17.8721 44.1954L7.61207 48.758C3.84379 50.4293 1.81373 54.5598 2.79247 58.5642C3.7712 62.5686 7.47767 65.297 11.592 65.0416L17.9192 64.662L18.6714 77.0972C18.6983 77.5319 18.9175 77.932 19.2693 78.1886C19.6211 78.4453 20.069 78.5317 20.4911 78.4245L23.5518 77.6445C24.2276 77.4721 24.6876 76.8466 24.6508 76.1501L24.2563 68.9697C24.2334 68.5338 24.4463 68.1191 24.8138 67.8836L25.2473 67.6041C26.0878 67.0633 26.6511 66.1833 26.7905 65.1936L26.942 64.1138L31.909 63.7948C40.6739 63.2591 49.4379 62.6246 58.2078 62.1886C59.8806 62.1061 61.1067 62.0263 61.8795 60.4028C62.451 59.201 62.6051 57.7759 62.6936 56.4655C62.9675 52.3802 62.2644 48.191 61.2597 44.2438C60.1785 40.0027 58.9253 35.268 56.165 31.7717Z" fill="#F9DDE9"/>
</g>
<path d="M59.8604 38.6222C60.9321 36.8717 63.2199 36.3214 64.9704 37.393C66.7209 38.4646 67.2712 40.7524 66.1996 42.5029C65.128 44.2534 62.8402 44.8038 61.0896 43.7321C59.3391 42.6605 58.7888 40.3727 59.8604 38.6222Z" fill="#CF1A68"/>
<path fill-rule="evenodd" clip-rule="evenodd" d="M56.165 31.7717C54.7888 30.0083 53.3674 29.482 51.8876 29.5752C50.1736 29.6848 48.3719 30.6323 46.4249 31.4986L17.8721 44.1954L7.61207 48.758C3.84379 50.4293 1.81373 54.5598 2.79247 58.5642C3.7712 62.5686 7.47767 65.297 11.592 65.0416L17.9192 64.662L18.6714 77.0972C18.6983 77.5319 18.9175 77.932 19.2693 78.1886C19.6211 78.4453 20.069 78.5317 20.4911 78.4246L23.5518 77.6445C24.2276 77.4722 24.6876 76.8466 24.6508 76.1501L24.2563 68.9697C24.2334 68.5338 24.4463 68.1191 24.8138 67.8836L25.2473 67.6041C26.0878 67.0633 26.6511 66.1833 26.7905 65.1937L26.942 64.1138L31.909 63.7948C40.6739 63.2591 49.4379 62.6246 58.2078 62.1886C59.8806 62.1061 61.1067 62.0263 61.8795 60.4028C62.451 59.201 62.6051 57.7759 62.6936 56.4655C62.9675 52.3802 62.2644 48.191 61.2597 44.2438C60.1785 40.0027 58.9253 35.268 56.165 31.7717V31.7717Z" stroke="black"/>
<path d="M24.2246 64.2534C25.8797 64.1523 30.257 63.899 31.9103 63.7983" stroke="black"/>
<path d="M52.8152 33.6605C52.5413 37.7458 53.2444 41.9351 54.2491 45.8822C55.3316 50.1287 56.5852 54.8652 59.3464 58.3652" stroke="black"/>
<path d="M76.6246 25.6536C69.7073 29.0071 62.6933 32.1541 55.5827 35.0946C55.4736 35.1399 55.5624 35.3032 55.6746 35.2629C62.7792 32.3239 69.7932 29.1768 76.7165 25.8219C76.8239 25.7694 76.7337 25.6083 76.6246 25.6536Z" fill="black"/>
<path d="M55.0188 32.5422L59.4999 28.4064C59.589 28.3259 59.46 28.1932 59.3726 28.2733L54.8897 32.4095C54.8024 32.4896 54.93 32.6245 55.0188 32.5422Z" fill="black"/>
<path d="M61.4549 26.7948L62.3708 25.9557C62.4079 25.92 62.409 25.8609 62.3733 25.8237C62.3375 25.7866 62.2784 25.7854 62.2413 25.8212L61.3277 26.6617C61.2385 26.7422 61.3676 26.8749 61.4549 26.7948Z" fill="black"/>
<path d="M59.0395 47.8666L67.8348 46.3411C67.95 46.3134 67.9067 46.1334 67.7915 46.1611L58.9963 47.6866C58.8793 47.7147 58.9244 47.8943 59.0395 47.8666Z" fill="black"/>
<path d="M60.9051 56.8696C63.919 57.5573 66.9423 58.2023 69.9749 58.8043C70.091 58.8278 70.1456 58.6509 70.0295 58.6274C66.9969 58.0254 63.973 57.3806 60.9579 56.6931C60.8428 56.6656 60.7886 56.8443 60.9051 56.8696Z" fill="black"/>
<path d="M61.2055 53.4196C62.1548 53.436 63.1036 53.3671 64.0405 53.2136C64.1579 53.1949 64.1146 53.0149 63.9972 53.0336C63.0767 53.1833 62.1446 53.2502 61.2121 53.2333C61.1591 53.2318 61.115 53.2735 61.1136 53.3265C61.1121 53.3794 61.1538 53.4235 61.2068 53.425L61.2055 53.4196Z" fill="black"/>
<path d="M66.3285 53.0109L67.7926 52.9234C67.9107 52.9159 67.9178 52.7314 67.7979 52.7317L66.3342 52.821C66.2161 52.8285 66.209 53.013 66.3289 53.0127L66.3285 53.0109Z" fill="black"/>
<circle cx="75.122" cy="53.9637" r="4.17452" transform="rotate(-13.5258 75.122 53.9637)" fill="#CF1A68"/>
<path d="M70.8945 16.2659L61.8422 15.2428C61.6555 15.2215 61.4717 15.3014 61.36 15.4524C61.2482 15.6034 61.2255 15.8025 61.3004 15.9748L64.9411 24.326C65.0161 24.4987 65.1776 24.6181 65.3647 24.6392C65.5517 24.6602 65.7358 24.5796 65.8472 24.4279L71.2498 17.102C71.3617 16.9521 71.3855 16.754 71.3124 16.5818C71.2392 16.4097 71.0801 16.2894 70.8945 16.2659Z" fill="#CF1A68"/>
<path d="M76.1386 23.6601L79.6361 26.2155L83.5994 24.4624L84.0638 20.1561L80.5646 17.6011L76.6027 19.3519L76.1386 23.6601Z" fill="#CF1A68"/>
</g>
<defs>
<filter id="filter0_d_743_31646" x="2.54785" y="29.5649" width="60.2051" height="52.9048" filterUnits="userSpaceOnUse" color-interpolation-filters="sRGB">
<feFlood flood-opacity="0" result="BackgroundImageFix"/>
<feColorMatrix in="SourceAlpha" type="matrix" values="0 0 0 0 0 0 0 0 0 0 0 0 0 0 0 0 0 0 127 0" result="hardAlpha"/>
<feOffset dy="4"/>
<feComposite in2="hardAlpha" operator="out"/>
<feColorMatrix type="matrix" values="0 0 0 0 0 0 0 0 0 0 0 0 0 0 0 0 0 0 1 0"/>
<feBlend mode="normal" in2="BackgroundImageFix" result="effect1_dropShadow_743_31646"/>
<feBlend mode="normal" in="SourceGraphic" in2="effect1_dropShadow_743_31646" result="shape"/>
</filter>
<clipPath id="clip0_743_31646">
<rect width="90" height="90" fill="white" transform="translate(0 0.5)"/>
</clipPath>
</defs>
</svg>
