<svg width="565" height="102" viewBox="0 0 565 102" fill="none" xmlns="http://www.w3.org/2000/svg">
<g filter="url(#filter0_d_2382_1454)">
<g clip-path="url(#clip0_2382_1454)">
<rect x="9" y="8.88623" width="546.72" height="83.7216" rx="6.9768" fill="white"/>
<rect x="23.3896" y="23.2759" width="54.9423" height="54.9423" rx="3.05235" stroke="#BFC2C8" stroke-width="0.8721"/>
<g clip-path="url(#clip1_2382_1454)">
<path d="M60.0071 58.3458C60.0071 57.8475 60.4068 57.4413 60.9104 57.3955C60.9584 57.3877 60.9984 57.3494 60.9984 57.3034V55.5714C60.9984 55.5254 60.9584 55.4871 60.9104 55.4794C60.3987 55.4411 60.0071 55.0272 60.0071 54.5291C60.0071 54.0309 60.4068 53.6247 60.9104 53.5788C60.9584 53.5711 60.9984 53.5328 60.9984 53.4868V51.7777C60.9984 51.7317 60.9584 51.6934 60.9104 51.6858C60.3987 51.6474 60.0071 51.2336 60.0071 50.7354C60.0071 50.2373 60.4068 49.8311 60.9104 49.7851C60.9584 49.7774 60.9984 49.7391 60.9984 49.6931V47.9611C60.9984 47.9151 60.9584 47.8768 60.9104 47.8691C60.3987 47.8308 60.0071 47.4169 60.0071 46.9188C60.0071 46.4206 60.4068 46.0144 60.9104 45.9684C60.9584 45.9608 60.9984 45.9224 60.9984 45.8764V44.1674C60.9984 44.1214 60.9584 44.0831 60.9104 44.0754C60.3987 44.0371 60.0071 43.6232 60.0071 43.1251C60.0071 42.6269 60.4068 42.2207 60.9104 42.1747C60.9584 42.1671 60.9984 42.1288 60.9984 42.0828V40.3737C60.9984 40.3277 60.9584 40.2817 60.9025 40.2817H59.2954C59.2395 40.2817 59.1996 40.3201 59.1996 40.3737C59.1996 40.8489 58.7999 41.2321 58.3041 41.2321C57.8086 41.2321 57.4088 40.8489 57.4088 40.3737C57.4088 40.3277 57.3688 40.2817 57.3128 40.2817H55.7059C55.658 40.2817 55.61 40.3201 55.61 40.3737C55.61 40.8489 55.2103 41.2321 54.7146 41.2321C54.2189 41.2321 53.8192 40.8489 53.8192 40.3737C53.8192 40.3277 53.7792 40.2817 53.7233 40.2817H52.1164C52.0604 40.2817 52.0204 40.3201 52.0204 40.3737C52.0204 40.8489 51.6207 41.2321 51.125 41.2321C50.6294 41.2321 50.2296 40.8489 50.2296 40.3737C50.2296 40.3201 50.1897 40.2817 50.1337 40.2817H48.5348C48.4788 40.2817 48.4389 40.3201 48.4389 40.3737C48.4389 40.8489 48.0391 41.2321 47.5435 41.2321C47.0478 41.2321 46.6481 40.8489 46.6481 40.3737C46.6481 40.3277 46.6081 40.2817 46.5521 40.2817H44.9532C44.8973 40.2817 44.8573 40.3201 44.8573 40.3737C44.8573 40.8489 44.4575 41.2321 43.9619 41.2321C43.4662 41.2321 43.0665 40.8489 43.0665 40.3737C43.0665 40.3201 43.0265 40.2817 42.9706 40.2817H41.3636C41.3077 40.2817 41.2677 40.3201 41.2677 40.3737V42.0981C41.2677 42.1441 41.3077 42.1824 41.3556 42.1901C41.8673 42.2284 42.259 42.6422 42.259 43.1404C42.259 43.6386 41.8593 44.0371 41.3556 44.0831C41.3077 44.0831 41.2677 44.1214 41.2677 44.1674V45.8994C41.2677 45.9454 41.3077 45.9837 41.3556 45.9914C41.8673 46.0297 42.259 46.4436 42.259 46.9417C42.259 47.4399 41.8593 47.8461 41.3556 47.8921C41.3077 47.8921 41.2677 47.9304 41.2677 47.9764V49.7084C41.2677 49.7544 41.3077 49.7928 41.3556 49.8004C41.8673 49.8387 42.259 50.2526 42.259 50.7508C42.259 51.2489 41.8593 51.6551 41.3556 51.7011C41.3077 51.6934 41.2677 51.7317 41.2677 51.7777V53.5098C41.2677 53.5558 41.3077 53.5941 41.3556 53.6018C41.8673 53.6401 42.259 54.0539 42.259 54.5521C42.259 55.0502 41.8593 55.4564 41.3556 55.5024C41.3077 55.4948 41.2677 55.5331 41.2677 55.5791V57.3111C41.2677 57.3572 41.3077 57.3955 41.3556 57.403C41.8673 57.4413 42.259 57.8553 42.259 58.3535C42.259 58.8516 41.8593 59.2578 41.3556 59.3038C41.3077 59.3114 41.2677 59.3497 41.2677 59.3957V61.1201C41.2677 61.1661 41.3077 61.2121 41.3636 61.2121H42.9785C43.0265 61.2121 43.0665 61.1738 43.0745 61.1354C43.1145 60.6986 43.4982 60.3537 43.9699 60.3537C44.4416 60.3537 44.8173 60.6986 44.8653 61.1354C44.8733 61.1814 44.9132 61.2121 44.9612 61.2121H46.5761C46.6241 61.2121 46.664 61.1738 46.672 61.1354C46.712 60.6986 47.0958 60.3537 47.5674 60.3537C48.0311 60.3537 48.4149 60.6986 48.4628 61.1354C48.4708 61.1814 48.5108 61.2121 48.5588 61.2121H50.1737C50.2216 61.2121 50.2616 61.1738 50.2696 61.1354C50.3096 60.6986 50.6933 60.3537 51.165 60.3537C51.6287 60.3537 52.0124 60.6986 52.0604 61.1354C52.0684 61.1814 52.1084 61.2121 52.1563 61.2121H53.7393C53.7872 61.2121 53.8272 61.1738 53.8352 61.1354C53.8752 60.6986 54.2589 60.3537 54.7306 60.3537C55.1943 60.3537 55.578 60.6986 55.626 61.1354C55.634 61.1814 55.674 61.2121 55.7219 61.2121H57.3368C57.3848 61.2121 57.4248 61.1738 57.4328 61.1354C57.4727 60.6986 57.8564 60.3537 58.3281 60.3537C58.7918 60.3537 59.1756 60.6986 59.2236 61.1354C59.2315 61.1814 59.2716 61.2121 59.3194 61.2121H60.9344C60.9824 61.2121 61.0303 61.1738 61.0303 61.1201V59.3957C61.0303 59.3497 60.9903 59.3114 60.9425 59.3038C60.4068 59.2501 60.0071 58.8439 60.0071 58.3458Z" fill="#040651"/>
<path d="M51.2289 48.5131C51.2289 48.7813 51.4528 48.9959 51.7326 48.9959C52.0124 48.9959 52.2363 48.7813 52.2363 48.5131C52.2363 48.2449 52.0124 48.0303 51.7326 48.0303C51.4528 48.0303 51.2289 48.2449 51.2289 48.5131Z" fill="#F5F6FC"/>
<path d="M51.7804 43.1938H45.4887C44.969 43.1938 44.5453 43.5924 44.5453 44.0982V57.8703C44.5453 58.1003 44.7452 58.292 44.985 58.292H46.9917C47.5753 58.292 48.0629 57.8703 48.1269 57.3186L48.4467 54.4906C48.5586 53.5249 48.6625 52.5746 48.7745 51.6319V51.6242C48.7824 51.5553 48.7904 51.4863 48.7984 51.4173C48.9024 50.5129 49.0143 49.6163 49.1102 48.7119C49.2222 47.6696 50.0136 46.8419 51.0449 46.7116C52.0762 46.5737 52.9716 47.0565 53.4273 47.9762C53.4913 48.1065 53.5712 48.2367 53.6671 48.3517L54.1948 49.0338C54.2028 49.0415 54.2108 49.0491 54.2108 49.0568C54.3946 49.2637 54.5705 49.463 54.7464 49.6622C54.8424 49.7696 54.7624 49.9382 54.6185 49.9305C54.3467 49.9305 54.0669 49.9305 53.795 49.9305C53.1955 49.9382 53.0675 50.0991 53.2594 50.6509C53.6272 51.7545 54.0029 52.8505 54.3787 53.9464C54.5226 54.3679 55.0502 54.5442 55.4339 54.2913C56.9369 53.3026 57.9682 51.7009 58.152 49.8615C58.5118 46.1905 55.6178 43.1938 51.7804 43.1938Z" fill="#DB4F5D"/>
</g>
<path d="M93.3113 33.7052V32.7513H99.9709V33.7052H97.1787V41.6309H96.1035V33.7052H93.3113ZM102.442 37.6246V41.6309H101.418V32.7513H102.442V36.0118H102.528C102.684 35.6678 102.919 35.3946 103.231 35.1923C103.546 34.9871 103.965 34.8845 104.488 34.8845C104.942 34.8845 105.339 34.9755 105.68 35.1576C106.022 35.3368 106.286 35.6129 106.474 35.9857C106.665 36.3557 106.76 36.8269 106.76 37.3992V41.6309H105.737V37.4686C105.737 36.9396 105.6 36.5306 105.325 36.2416C105.053 35.9496 104.676 35.8036 104.193 35.8036C103.858 35.8036 103.557 35.8745 103.291 36.0161C103.028 36.1577 102.82 36.3644 102.667 36.6361C102.517 36.9078 102.442 37.2373 102.442 37.6246ZM111.351 41.7696C110.709 41.7696 110.156 41.628 109.69 41.3447C109.228 41.0585 108.871 40.6597 108.619 40.148C108.371 39.6335 108.247 39.0352 108.247 38.3531C108.247 37.6709 108.371 37.0697 108.619 36.5494C108.871 36.0262 109.221 35.6187 109.669 35.3267C110.12 35.0319 110.646 34.8845 111.247 34.8845C111.594 34.8845 111.936 34.9423 112.274 35.0579C112.613 35.1735 112.92 35.3614 113.198 35.6215C113.475 35.8788 113.697 36.2199 113.861 36.6448C114.026 37.0697 114.108 37.5929 114.108 38.2143V38.6479H108.975V37.7634H113.068C113.068 37.3876 112.993 37.0523 112.842 36.7575C112.695 36.4627 112.484 36.23 112.209 36.0595C111.938 35.8889 111.617 35.8036 111.247 35.8036C110.839 35.8036 110.487 35.9048 110.189 36.1071C109.894 36.3066 109.667 36.5667 109.508 36.8876C109.349 37.2084 109.27 37.5524 109.27 37.9195V38.5091C109.27 39.0121 109.357 39.4384 109.53 39.7882C109.706 40.135 109.951 40.3995 110.263 40.5816C110.575 40.7608 110.938 40.8504 111.351 40.8504C111.62 40.8504 111.863 40.8129 112.079 40.7377C112.299 40.6597 112.488 40.544 112.647 40.3908C112.806 40.2348 112.929 40.0411 113.016 39.8099L114.004 40.0873C113.9 40.4226 113.725 40.7175 113.48 40.9718C113.234 41.2233 112.931 41.4199 112.569 41.5615C112.208 41.7002 111.802 41.7696 111.351 41.7696ZM116.615 37.6246V41.6309H115.592V34.9712H116.58V36.0118H116.667C116.823 35.6736 117.06 35.4019 117.378 35.1966C117.696 34.9885 118.106 34.8845 118.609 34.8845C119.06 34.8845 119.455 34.977 119.793 35.162C120.131 35.3441 120.394 35.6215 120.582 35.9944C120.77 36.3644 120.864 36.8327 120.864 37.3992V41.6309H119.841V37.4686C119.841 36.9454 119.705 36.5378 119.433 36.2459C119.161 35.9511 118.789 35.8036 118.315 35.8036C117.988 35.8036 117.696 35.8745 117.439 36.0161C117.184 36.1577 116.984 36.3644 116.836 36.6361C116.689 36.9078 116.615 37.2373 116.615 37.6246Z" fill="#686868"/>
<path d="M99.3714 60.3811C99.3185 59.912 99.1005 59.5486 98.7173 59.2909C98.3341 59.03 97.8518 58.8995 97.2704 58.8995C96.8542 58.8995 96.4941 58.9655 96.1902 59.0977C95.8863 59.2265 95.6501 59.4049 95.4816 59.6328C95.3164 59.8575 95.2338 60.1135 95.2338 60.4009C95.2338 60.642 95.29 60.8501 95.4023 61.0252C95.5179 61.2003 95.6682 61.3473 95.8532 61.4662C96.0415 61.5818 96.243 61.6793 96.4578 61.7586C96.6725 61.8346 96.8789 61.8973 97.0771 61.9469L98.0682 62.2045C98.3919 62.2838 98.7239 62.3912 99.0641 62.5266C99.4044 62.6621 99.7199 62.8404 100.011 63.0618C100.301 63.2831 100.536 63.5573 100.714 63.8843C100.896 64.2114 100.987 64.6028 100.987 65.0587C100.987 65.6335 100.838 66.1439 100.541 66.5898C100.247 67.0358 99.819 67.3876 99.2574 67.6453C98.6991 67.9029 98.0236 68.0318 97.2308 68.0318C96.471 68.0318 95.8136 67.9112 95.2586 67.67C94.7036 67.4289 94.2693 67.087 93.9554 66.6443C93.6416 66.1984 93.4682 65.6698 93.4351 65.0587H94.9712C95.001 65.4254 95.1199 65.7309 95.328 65.9754C95.5394 66.2165 95.8086 66.3966 96.1357 66.5155C96.466 66.6311 96.8277 66.6889 97.2208 66.6889C97.6536 66.6889 98.0384 66.6212 98.3754 66.4858C98.7156 66.347 98.9832 66.1554 99.1781 65.911C99.373 65.6632 99.4705 65.3742 99.4705 65.0438C99.4705 64.7432 99.3846 64.4971 99.2128 64.3055C99.0443 64.1139 98.8147 63.9553 98.524 63.8298C98.2366 63.7043 97.9113 63.5936 97.5479 63.4978L96.3487 63.1708C95.5361 62.9495 94.8919 62.6241 94.4163 62.1946C93.9439 61.7652 93.7077 61.197 93.7077 60.4901C93.7077 59.9054 93.8662 59.395 94.1834 58.9589C94.5005 58.5229 94.9299 58.1843 95.4717 57.9431C96.0135 57.6987 96.6246 57.5765 97.3051 57.5765C97.9922 57.5765 98.5984 57.697 99.1236 57.9382C99.6522 58.1793 100.068 58.5113 100.372 58.9342C100.676 59.3537 100.835 59.836 100.848 60.3811H99.3714ZM105.894 68.0169C105.144 68.0169 104.498 67.8567 103.957 67.5362C103.418 67.2125 103.002 66.7583 102.708 66.1736C102.417 65.5856 102.272 64.8968 102.272 64.1073C102.272 63.3277 102.417 62.6406 102.708 62.046C103.002 61.4514 103.412 60.9872 103.937 60.6536C104.465 60.3199 105.083 60.1531 105.79 60.1531C106.219 60.1531 106.636 60.2241 107.039 60.3662C107.442 60.5082 107.803 60.7312 108.124 61.0351C108.444 61.339 108.697 61.7338 108.882 62.2194C109.067 62.7017 109.159 63.2881 109.159 63.9785V64.5037H103.109V63.3938H107.708C107.708 63.004 107.628 62.6588 107.47 62.3581C107.311 62.0542 107.088 61.8147 106.801 61.6397C106.517 61.4646 106.183 61.377 105.8 61.377C105.384 61.377 105.02 61.4794 104.71 61.6843C104.403 61.8858 104.165 62.15 103.996 62.4771C103.831 62.8008 103.748 63.1526 103.748 63.5325V64.3997C103.748 64.9084 103.838 65.3411 104.016 65.6979C104.198 66.0547 104.45 66.3272 104.774 66.5155C105.098 66.7005 105.476 66.793 105.909 66.793C106.19 66.793 106.446 66.7533 106.677 66.6741C106.908 66.5915 107.108 66.4692 107.277 66.3074C107.445 66.1455 107.574 65.9457 107.663 65.7078L109.065 65.9605C108.953 66.3734 108.752 66.7352 108.461 67.0457C108.173 67.3529 107.812 67.5924 107.376 67.7642C106.943 67.9327 106.449 68.0169 105.894 68.0169ZM112.201 63.3442V67.8633H110.72V60.2522H112.142V61.491H112.236C112.411 61.088 112.685 60.7643 113.058 60.5198C113.435 60.2753 113.909 60.1531 114.481 60.1531C114.999 60.1531 115.453 60.2621 115.843 60.4802C116.233 60.6949 116.535 61.0153 116.75 61.4415C116.965 61.8676 117.072 62.3945 117.072 63.0221V67.8633H115.59V63.2005C115.59 62.6488 115.447 62.2178 115.159 61.9072C114.872 61.5934 114.477 61.4365 113.975 61.4365C113.632 61.4365 113.326 61.5108 113.058 61.6595C112.794 61.8081 112.584 62.0262 112.429 62.3136C112.277 62.5976 112.201 62.9412 112.201 63.3442ZM121.825 68.0119C121.21 68.0119 120.662 67.855 120.179 67.5412C119.7 67.2241 119.324 66.7732 119.05 66.1885C118.779 65.6004 118.643 64.8952 118.643 64.0726C118.643 63.2501 118.78 62.5464 119.055 61.9617C119.332 61.377 119.712 60.9294 120.194 60.6189C120.677 60.3084 121.223 60.1531 121.834 60.1531C122.307 60.1531 122.687 60.2324 122.974 60.391C123.265 60.5462 123.489 60.7279 123.648 60.936C123.81 61.1441 123.935 61.3275 124.025 61.486H124.114V57.7152H125.595V67.8633H124.148V66.679H124.025C123.935 66.8409 123.807 67.0259 123.638 67.234C123.473 67.4421 123.245 67.6238 122.954 67.779C122.664 67.9343 122.287 68.0119 121.825 68.0119ZM122.152 66.7484C122.578 66.7484 122.938 66.6361 123.232 66.4114C123.529 66.1835 123.754 65.868 123.906 65.465C124.061 65.062 124.139 64.5929 124.139 64.0578C124.139 63.5292 124.063 63.0667 123.911 62.6703C123.759 62.2739 123.536 61.965 123.242 61.7437C122.948 61.5224 122.584 61.4117 122.152 61.4117C121.706 61.4117 121.334 61.5273 121.037 61.7586C120.739 61.9898 120.515 62.3053 120.363 62.705C120.214 63.1047 120.14 63.5556 120.14 64.0578C120.14 64.5665 120.216 65.024 120.368 65.4303C120.52 65.8366 120.744 66.1587 121.042 66.3966C121.342 66.6311 121.712 66.7484 122.152 66.7484ZM133.45 68.0318C132.968 68.0318 132.532 67.9426 132.142 67.7642C131.752 67.5825 131.443 67.3199 131.216 66.9763C130.991 66.6328 130.879 66.2116 130.879 65.7128C130.879 65.2833 130.961 64.9299 131.126 64.6524C131.291 64.3749 131.514 64.1552 131.795 63.9933C132.076 63.8315 132.39 63.7092 132.737 63.6267C133.084 63.5441 133.437 63.4813 133.797 63.4384C134.253 63.3855 134.623 63.3426 134.907 63.3095C135.191 63.2732 135.398 63.2154 135.526 63.1361C135.655 63.0568 135.72 62.928 135.72 62.7496V62.7149C135.72 62.2822 135.597 61.9469 135.353 61.709C135.112 61.4712 134.752 61.3523 134.273 61.3523C133.774 61.3523 133.381 61.4629 133.093 61.6843C132.809 61.9023 132.613 62.1451 132.504 62.4127L131.111 62.0955C131.277 61.6331 131.518 61.2598 131.835 60.9757C132.155 60.6883 132.524 60.4802 132.94 60.3513C133.356 60.2192 133.794 60.1531 134.253 60.1531C134.557 60.1531 134.879 60.1895 135.219 60.2621C135.563 60.3315 135.883 60.4603 136.181 60.6486C136.481 60.8369 136.727 61.1062 136.919 61.4563C137.11 61.8032 137.206 62.2541 137.206 62.8091V67.8633H135.759V66.8227H135.7C135.604 67.0143 135.46 67.2026 135.269 67.3876C135.077 67.5726 134.831 67.7262 134.53 67.8484C134.23 67.9706 133.87 68.0318 133.45 68.0318ZM133.772 66.8425C134.182 66.8425 134.532 66.7616 134.823 66.5997C135.117 66.4379 135.34 66.2264 135.492 65.9655C135.647 65.7012 135.725 65.4188 135.725 65.1181V64.137C135.672 64.1899 135.569 64.2394 135.417 64.2857C135.269 64.3286 135.099 64.3666 134.907 64.3997C134.715 64.4294 134.529 64.4575 134.347 64.4839C134.165 64.507 134.013 64.5268 133.891 64.5434C133.604 64.5797 133.341 64.6408 133.103 64.7267C132.869 64.8126 132.681 64.9365 132.539 65.0983C132.4 65.2569 132.33 65.4683 132.33 65.7326C132.33 66.0993 132.466 66.3767 132.737 66.565C133.008 66.75 133.353 66.8425 133.772 66.8425ZM140.577 63.3442V67.8633H139.096V60.2522H140.518V61.491H140.612C140.787 61.088 141.061 60.7643 141.435 60.5198C141.811 60.2753 142.285 60.1531 142.857 60.1531C143.375 60.1531 143.83 60.2621 144.219 60.4802C144.609 60.6949 144.912 61.0153 145.126 61.4415C145.341 61.8676 145.448 62.3945 145.448 63.0221V67.8633H143.967V63.2005C143.967 62.6488 143.823 62.2178 143.536 61.9072C143.248 61.5934 142.854 61.4365 142.351 61.4365C142.008 61.4365 141.702 61.5108 141.435 61.6595C141.17 61.8081 140.961 62.0262 140.805 62.3136C140.653 62.5976 140.577 62.9412 140.577 63.3442ZM153.176 68.0318C152.693 68.0318 152.257 67.9426 151.867 67.7642C151.478 67.5825 151.169 67.3199 150.941 66.9763C150.716 66.6328 150.604 66.2116 150.604 65.7128C150.604 65.2833 150.687 64.9299 150.852 64.6524C151.017 64.3749 151.24 64.1552 151.521 63.9933C151.801 63.8315 152.115 63.7092 152.462 63.6267C152.809 63.5441 153.162 63.4813 153.523 63.4384C153.978 63.3855 154.348 63.3426 154.632 63.3095C154.917 63.2732 155.123 63.2154 155.252 63.1361C155.381 63.0568 155.445 62.928 155.445 62.7496V62.7149C155.445 62.2822 155.323 61.9469 155.078 61.709C154.837 61.4712 154.477 61.3523 153.998 61.3523C153.499 61.3523 153.106 61.4629 152.819 61.6843C152.535 61.9023 152.338 62.1451 152.229 62.4127L150.837 62.0955C151.002 61.6331 151.243 61.2598 151.56 60.9757C151.881 60.6883 152.249 60.4802 152.665 60.3513C153.081 60.2192 153.519 60.1531 153.978 60.1531C154.282 60.1531 154.604 60.1895 154.945 60.2621C155.288 60.3315 155.609 60.4603 155.906 60.6486C156.207 60.8369 156.453 61.1062 156.644 61.4563C156.836 61.8032 156.932 62.2541 156.932 62.8091V67.8633H155.485V66.8227H155.425C155.329 67.0143 155.186 67.2026 154.994 67.3876C154.803 67.5726 154.556 67.7262 154.256 67.8484C153.955 67.9706 153.595 68.0318 153.176 68.0318ZM153.498 66.8425C153.907 66.8425 154.258 66.7616 154.548 66.5997C154.842 66.4379 155.065 66.2264 155.217 65.9655C155.372 65.7012 155.45 65.4188 155.45 65.1181V64.137C155.397 64.1899 155.295 64.2394 155.143 64.2857C154.994 64.3286 154.824 64.3666 154.632 64.3997C154.441 64.4294 154.254 64.4575 154.073 64.4839C153.891 64.507 153.739 64.5268 153.617 64.5434C153.329 64.5797 153.067 64.6408 152.829 64.7267C152.594 64.8126 152.406 64.9365 152.264 65.0983C152.125 65.2569 152.056 65.4683 152.056 65.7326C152.056 66.0993 152.191 66.3767 152.462 66.565C152.733 66.75 153.078 66.8425 153.498 66.8425ZM162.027 68.0169C161.291 68.0169 160.656 67.8501 160.124 67.5164C159.596 67.1795 159.19 66.7153 158.906 66.124C158.621 65.5327 158.479 64.8555 158.479 64.0924C158.479 63.3194 158.625 62.6373 158.915 62.046C159.206 61.4514 159.616 60.9872 160.144 60.6536C160.673 60.3199 161.296 60.1531 162.012 60.1531C162.59 60.1531 163.106 60.2605 163.558 60.4752C164.011 60.6866 164.376 60.9839 164.653 61.3671C164.934 61.7503 165.101 62.1979 165.154 62.71H163.712C163.633 62.3532 163.451 62.046 163.167 61.7883C162.886 61.5306 162.51 61.4018 162.037 61.4018C161.624 61.4018 161.262 61.5108 160.952 61.7288C160.645 61.9436 160.405 62.2508 160.233 62.6505C160.062 63.0469 159.976 63.516 159.976 64.0578C159.976 64.6127 160.06 65.0917 160.229 65.4947C160.397 65.8978 160.635 66.2099 160.942 66.4313C161.253 66.6526 161.618 66.7632 162.037 66.7632C162.318 66.7632 162.572 66.712 162.8 66.6096C163.031 66.5039 163.225 66.3536 163.38 66.1587C163.539 65.9638 163.649 65.7293 163.712 65.4551H165.154C165.101 65.9473 164.941 66.3867 164.673 66.7732C164.406 67.1597 164.047 67.4636 163.598 67.6849C163.152 67.9062 162.628 68.0169 162.027 68.0169ZM168.017 65.2817L168.007 63.473H168.265L171.298 60.2522H173.071L169.613 63.919H169.38L168.017 65.2817ZM166.655 67.8633V57.7152H168.136V67.8633H166.655ZM171.461 67.8633L168.736 64.246L169.756 63.2104L173.28 67.8633H171.461ZM175.82 63.3442V67.8633H174.338V60.2522H175.76V61.491H175.854C176.029 61.088 176.304 60.7643 176.677 60.5198C177.053 60.2753 177.527 60.1531 178.099 60.1531C178.618 60.1531 179.072 60.2621 179.462 60.4802C179.851 60.6949 180.154 61.0153 180.368 61.4415C180.583 61.8676 180.69 62.3945 180.69 63.0221V67.8633H179.209V63.2005C179.209 62.6488 179.065 62.2178 178.778 61.9072C178.49 61.5934 178.096 61.4365 177.594 61.4365C177.25 61.4365 176.944 61.5108 176.677 61.6595C176.413 61.8081 176.203 62.0262 176.048 62.3136C175.896 62.5976 175.82 62.9412 175.82 63.3442ZM185.8 68.0169C185.086 68.0169 184.463 67.8534 183.932 67.5263C183.4 67.1993 182.987 66.7418 182.693 66.1538C182.399 65.5658 182.252 64.8787 182.252 64.0924C182.252 63.3029 182.399 62.6125 182.693 62.0212C182.987 61.4299 183.4 60.9707 183.932 60.6437C184.463 60.3166 185.086 60.1531 185.8 60.1531C186.513 60.1531 187.136 60.3166 187.668 60.6437C188.2 60.9707 188.613 61.4299 188.907 62.0212C189.201 62.6125 189.348 63.3029 189.348 64.0924C189.348 64.8787 189.201 65.5658 188.907 66.1538C188.613 66.7418 188.2 67.1993 187.668 67.5263C187.136 67.8534 186.513 68.0169 185.8 68.0169ZM185.805 66.7732C186.267 66.7732 186.65 66.6509 186.954 66.4065C187.258 66.162 187.483 65.8366 187.628 65.4303C187.777 65.024 187.851 64.5764 187.851 64.0875C187.851 63.6019 187.777 63.1559 187.628 62.7496C187.483 62.34 187.258 62.0113 186.954 61.7635C186.65 61.5158 186.267 61.3919 185.805 61.3919C185.339 61.3919 184.952 61.5158 184.645 61.7635C184.341 62.0113 184.115 62.34 183.966 62.7496C183.821 63.1559 183.748 63.6019 183.748 64.0875C183.748 64.5764 183.821 65.024 183.966 65.4303C184.115 65.8366 184.341 66.162 184.645 66.4065C184.952 66.6509 185.339 66.7732 185.805 66.7732ZM192.336 67.8633L190.096 60.2522H191.627L193.119 65.8416H193.193L194.69 60.2522H196.221L197.707 65.8168H197.782L199.263 60.2522H200.794L198.56 67.8633H197.048L195.502 62.3681H195.388L193.842 67.8633H192.336ZM202.117 57.7152H203.598V65.7821C203.598 66.1092 203.64 66.3404 203.722 66.4758C203.808 66.6113 203.97 66.6757 204.208 66.6691C204.337 66.6658 204.432 66.6575 204.495 66.6443C204.561 66.6311 204.621 66.6162 204.674 66.5997L204.941 67.784C204.839 67.8137 204.708 67.8418 204.55 67.8682C204.394 67.898 204.218 67.9145 204.019 67.9178C203.379 67.9277 202.901 67.7757 202.587 67.4619C202.274 67.1481 202.117 66.6906 202.117 66.0894V57.7152ZM209.115 68.0169C208.365 68.0169 207.719 67.8567 207.178 67.5362C206.639 67.2125 206.223 66.7583 205.929 66.1736C205.638 65.5856 205.493 64.8968 205.493 64.1073C205.493 63.3277 205.638 62.6406 205.929 62.046C206.223 61.4514 206.633 60.9872 207.158 60.6536C207.686 60.3199 208.304 60.1531 209.011 60.1531C209.44 60.1531 209.857 60.2241 210.26 60.3662C210.663 60.5082 211.024 60.7312 211.345 61.0351C211.665 61.339 211.918 61.7338 212.103 62.2194C212.288 62.7017 212.38 63.2881 212.38 63.9785V64.5037H206.33V63.3938H210.929C210.929 63.004 210.849 62.6588 210.691 62.3581C210.532 62.0542 210.309 61.8147 210.022 61.6397C209.738 61.4646 209.404 61.377 209.021 61.377C208.605 61.377 208.241 61.4794 207.931 61.6843C207.624 61.8858 207.386 62.15 207.217 62.4771C207.052 62.8008 206.969 63.1526 206.969 63.5325V64.3997C206.969 64.9084 207.059 65.3411 207.237 65.6979C207.419 66.0547 207.671 66.3272 207.995 66.5155C208.319 66.7005 208.697 66.793 209.13 66.793C209.411 66.793 209.667 66.7533 209.898 66.6741C210.129 66.5915 210.329 66.4692 210.498 66.3074C210.666 66.1455 210.795 65.9457 210.884 65.7078L212.286 65.9605C212.174 66.3734 211.973 66.7352 211.682 67.0457C211.394 67.3529 211.033 67.5924 210.597 67.7642C210.164 67.9327 209.67 68.0169 209.115 68.0169ZM216.79 68.0119C216.175 68.0119 215.627 67.855 215.145 67.5412C214.666 67.2241 214.289 66.7732 214.015 66.1885C213.744 65.6004 213.609 64.8952 213.609 64.0726C213.609 63.2501 213.746 62.5464 214.02 61.9617C214.297 61.377 214.677 60.9294 215.16 60.6189C215.642 60.3084 216.189 60.1531 216.8 60.1531C217.272 60.1531 217.652 60.2324 217.939 60.391C218.23 60.5462 218.455 60.7279 218.613 60.936C218.775 61.1441 218.901 61.3275 218.99 61.486H219.079V57.7152H220.561V67.8633H219.114V66.679H218.99C218.901 66.8409 218.772 67.0259 218.603 67.234C218.438 67.4421 218.21 67.6238 217.92 67.779C217.629 67.9343 217.252 68.0119 216.79 68.0119ZM217.117 66.7484C217.543 66.7484 217.903 66.6361 218.197 66.4114C218.494 66.1835 218.719 65.868 218.871 65.465C219.026 65.062 219.104 64.5929 219.104 64.0578C219.104 63.5292 219.028 63.0667 218.876 62.6703C218.724 62.2739 218.501 61.965 218.207 61.7437C217.913 61.5224 217.55 61.4117 217.117 61.4117C216.671 61.4117 216.299 61.5273 216.002 61.7586C215.705 61.9898 215.48 62.3053 215.328 62.705C215.179 63.1047 215.105 63.5556 215.105 64.0578C215.105 64.5665 215.181 65.024 215.333 65.4303C215.485 65.8366 215.71 66.1587 216.007 66.3966C216.308 66.6311 216.677 66.7484 217.117 66.7484ZM225.783 70.876C225.178 70.876 224.658 70.7967 224.222 70.6381C223.789 70.4796 223.436 70.2698 223.161 70.0088C222.887 69.7479 222.682 69.4621 222.547 69.1516L223.82 68.6264C223.91 68.7717 224.029 68.9253 224.177 69.0872C224.329 69.2524 224.534 69.3928 224.792 69.5084C225.053 69.624 225.388 69.6818 225.797 69.6818C226.359 69.6818 226.823 69.5447 227.19 69.2705C227.557 68.9997 227.74 68.5669 227.74 67.9723V66.4758H227.646C227.557 66.6377 227.428 66.8178 227.259 67.016C227.094 67.2142 226.866 67.3859 226.575 67.5313C226.285 67.6766 225.907 67.7493 225.441 67.7493C224.839 67.7493 224.298 67.6089 223.815 67.3281C223.336 67.044 222.957 66.6262 222.676 66.0745C222.398 65.5195 222.26 64.8374 222.26 64.028C222.26 63.2187 222.397 62.525 222.671 61.9469C222.948 61.3688 223.328 60.9261 223.81 60.6189C224.293 60.3084 224.839 60.1531 225.451 60.1531C225.923 60.1531 226.305 60.2324 226.595 60.391C226.886 60.5462 227.112 60.7279 227.274 60.936C227.439 61.1441 227.566 61.3275 227.656 61.486H227.765V60.2522H229.217V68.0318C229.217 68.6858 229.065 69.2226 228.761 69.6422C228.457 70.0617 228.045 70.3722 227.527 70.5737C227.011 70.7752 226.43 70.876 225.783 70.876ZM225.768 66.5204C226.194 66.5204 226.554 66.4213 226.848 66.2231C227.145 66.0216 227.37 65.7342 227.522 65.3609C227.677 64.9844 227.755 64.5334 227.755 64.0082C227.755 63.4962 227.679 63.0453 227.527 62.6555C227.375 62.2657 227.152 61.9617 226.858 61.7437C226.564 61.5224 226.201 61.4117 225.768 61.4117C225.322 61.4117 224.95 61.5273 224.653 61.7586C224.356 61.9865 224.131 62.297 223.979 62.6901C223.83 63.0832 223.756 63.5226 223.756 64.0082C223.756 64.507 223.832 64.9447 223.984 65.3213C224.136 65.6979 224.361 65.9919 224.658 66.2033C224.958 66.4147 225.328 66.5204 225.768 66.5204ZM234.4 68.0169C233.65 68.0169 233.004 67.8567 232.463 67.5362C231.924 67.2125 231.508 66.7583 231.214 66.1736C230.923 65.5856 230.778 64.8968 230.778 64.1073C230.778 63.3277 230.923 62.6406 231.214 62.046C231.508 61.4514 231.918 60.9872 232.443 60.6536C232.971 60.3199 233.589 60.1531 234.296 60.1531C234.725 60.1531 235.142 60.2241 235.545 60.3662C235.948 60.5082 236.309 60.7312 236.63 61.0351C236.95 61.339 237.203 61.7338 237.388 62.2194C237.573 62.7017 237.665 63.2881 237.665 63.9785V64.5037H231.615V63.3938H236.214C236.214 63.004 236.134 62.6588 235.976 62.3581C235.817 62.0542 235.594 61.8147 235.307 61.6397C235.023 61.4646 234.689 61.377 234.306 61.377C233.89 61.377 233.526 61.4794 233.216 61.6843C232.909 61.8858 232.671 62.15 232.502 62.4771C232.337 62.8008 232.255 63.1526 232.255 63.5325V64.3997C232.255 64.9084 232.344 65.3411 232.522 65.6979C232.704 66.0547 232.956 66.3272 233.28 66.5155C233.604 66.7005 233.982 66.793 234.415 66.793C234.696 66.793 234.952 66.7533 235.183 66.6741C235.414 66.5915 235.614 66.4692 235.783 66.3074C235.951 66.1455 236.08 65.9457 236.169 65.7078L237.571 65.9605C237.459 66.3734 237.258 66.7352 236.967 67.0457C236.679 67.3529 236.318 67.5924 235.882 67.7642C235.449 67.9327 234.955 68.0169 234.4 68.0169ZM239.226 67.8633V60.2522H240.648V61.491H240.742C240.9 61.0715 241.16 60.7444 241.52 60.5099C241.88 60.272 242.311 60.1531 242.813 60.1531C243.322 60.1531 243.748 60.272 244.092 60.5099C244.438 60.7477 244.694 61.0748 244.86 61.491H244.939C245.121 61.0847 245.41 60.761 245.806 60.5198C246.202 60.2753 246.675 60.1531 247.223 60.1531C247.914 60.1531 248.477 60.3695 248.913 60.8022C249.352 61.235 249.572 61.8874 249.572 62.7595V67.8633H248.09V62.8983C248.09 62.3829 247.95 62.0096 247.669 61.7784C247.388 61.5472 247.053 61.4315 246.663 61.4315C246.181 61.4315 245.806 61.5802 245.538 61.8775C245.271 62.1715 245.137 62.5497 245.137 63.0122V67.8633H243.66V62.8041C243.66 62.3912 243.532 62.0592 243.274 61.8081C243.016 61.5571 242.681 61.4315 242.268 61.4315C241.987 61.4315 241.728 61.5059 241.49 61.6545C241.256 61.7999 241.066 62.003 240.92 62.264C240.778 62.525 240.707 62.8272 240.707 63.1708V67.8633H239.226ZM254.754 68.0169C254.004 68.0169 253.359 67.8567 252.817 67.5362C252.278 67.2125 251.862 66.7583 251.568 66.1736C251.277 65.5856 251.132 64.8968 251.132 64.1073C251.132 63.3277 251.277 62.6406 251.568 62.046C251.862 61.4514 252.272 60.9872 252.797 60.6536C253.326 60.3199 253.943 60.1531 254.65 60.1531C255.08 60.1531 255.496 60.2241 255.899 60.3662C256.302 60.5082 256.664 60.7312 256.984 61.0351C257.304 61.339 257.557 61.7338 257.742 62.2194C257.927 62.7017 258.02 63.2881 258.02 63.9785V64.5037H251.969V63.3938H256.568C256.568 63.004 256.489 62.6588 256.33 62.3581C256.171 62.0542 255.948 61.8147 255.661 61.6397C255.377 61.4646 255.043 61.377 254.66 61.377C254.244 61.377 253.88 61.4794 253.57 61.6843C253.263 61.8858 253.025 62.15 252.856 62.4771C252.691 62.8008 252.609 63.1526 252.609 63.5325V64.3997C252.609 64.9084 252.698 65.3411 252.876 65.6979C253.058 66.0547 253.311 66.3272 253.634 66.5155C253.958 66.7005 254.336 66.793 254.769 66.793C255.05 66.793 255.306 66.7533 255.537 66.6741C255.768 66.5915 255.968 66.4692 256.137 66.3074C256.305 66.1455 256.434 65.9457 256.523 65.7078L257.926 65.9605C257.813 66.3734 257.612 66.7352 257.321 67.0457C257.034 67.3529 256.672 67.5924 256.236 67.7642C255.803 67.9327 255.309 68.0169 254.754 68.0169ZM261.061 63.3442V67.8633H259.58V60.2522H261.002V61.491H261.096C261.271 61.088 261.545 60.7643 261.919 60.5198C262.295 60.2753 262.769 60.1531 263.341 60.1531C263.859 60.1531 264.314 60.2621 264.703 60.4802C265.093 60.6949 265.395 61.0153 265.61 61.4415C265.825 61.8676 265.932 62.3945 265.932 63.0221V67.8633H264.451V63.2005C264.451 62.6488 264.307 62.2178 264.02 61.9072C263.732 61.5934 263.337 61.4365 262.835 61.4365C262.492 61.4365 262.186 61.5108 261.919 61.6595C261.654 61.8081 261.445 62.0262 261.289 62.3136C261.137 62.5976 261.061 62.9412 261.061 63.3442ZM271.388 60.2522V61.4415H267.231V60.2522H271.388ZM268.346 58.4287H269.827V65.6285C269.827 65.9159 269.87 66.1323 269.956 66.2776C270.042 66.4197 270.153 66.5171 270.288 66.57C270.427 66.6195 270.577 66.6443 270.739 66.6443C270.858 66.6443 270.962 66.6361 271.051 66.6195C271.141 66.603 271.21 66.5898 271.26 66.5799L271.527 67.8038C271.441 67.8369 271.319 67.8699 271.16 67.9029C271.002 67.9393 270.804 67.9591 270.566 67.9624C270.176 67.969 269.813 67.8996 269.476 67.7543C269.139 67.6089 268.866 67.3843 268.658 67.0804C268.45 66.7765 268.346 66.3949 268.346 65.9357V58.4287ZM279.833 68.0169C279.083 68.0169 278.437 67.8567 277.895 67.5362C277.357 67.2125 276.941 66.7583 276.647 66.1736C276.356 65.5856 276.211 64.8968 276.211 64.1073C276.211 63.3277 276.356 62.6406 276.647 62.046C276.941 61.4514 277.35 60.9872 277.876 60.6536C278.404 60.3199 279.022 60.1531 279.729 60.1531C280.158 60.1531 280.575 60.2241 280.978 60.3662C281.381 60.5082 281.742 60.7312 282.063 61.0351C282.383 61.339 282.636 61.7338 282.821 62.2194C283.006 62.7017 283.098 63.2881 283.098 63.9785V64.5037H277.048V63.3938H281.646C281.646 63.004 281.567 62.6588 281.409 62.3581C281.25 62.0542 281.027 61.8147 280.74 61.6397C280.456 61.4646 280.122 61.377 279.739 61.377C279.323 61.377 278.959 61.4794 278.649 61.6843C278.341 61.8858 278.104 62.15 277.935 62.4771C277.77 62.8008 277.687 63.1526 277.687 63.5325V64.3997C277.687 64.9084 277.777 65.3411 277.955 65.6979C278.137 66.0547 278.389 66.3272 278.713 66.5155C279.037 66.7005 279.415 66.793 279.848 66.793C280.129 66.793 280.385 66.7533 280.616 66.6741C280.847 66.5915 281.047 66.4692 281.215 66.3074C281.384 66.1455 281.513 65.9457 281.602 65.7078L283.004 65.9605C282.892 66.3734 282.69 66.7352 282.4 67.0457C282.112 67.3529 281.751 67.5924 281.314 67.7642C280.882 67.9327 280.388 68.0169 279.833 68.0169ZM284.658 67.8633V60.2522H286.081V61.491H286.175C286.333 61.0715 286.593 60.7444 286.953 60.5099C287.313 60.272 287.744 60.1531 288.246 60.1531C288.755 60.1531 289.181 60.272 289.524 60.5099C289.871 60.7477 290.127 61.0748 290.292 61.491H290.372C290.553 61.0847 290.842 60.761 291.239 60.5198C291.635 60.2753 292.108 60.1531 292.656 60.1531C293.346 60.1531 293.91 60.3695 294.346 60.8022C294.785 61.235 295.005 61.8874 295.005 62.7595V67.8633H293.523V62.8983C293.523 62.3829 293.383 62.0096 293.102 61.7784C292.821 61.5472 292.486 61.4315 292.096 61.4315C291.614 61.4315 291.239 61.5802 290.971 61.8775C290.704 62.1715 290.57 62.5497 290.57 63.0122V67.8633H289.093V62.8041C289.093 62.3912 288.964 62.0592 288.707 61.8081C288.449 61.5571 288.114 61.4315 287.701 61.4315C287.42 61.4315 287.161 61.5059 286.923 61.6545C286.688 61.7999 286.498 62.003 286.353 62.264C286.211 62.525 286.14 62.8272 286.14 63.1708V67.8633H284.658ZM299.122 68.0318C298.639 68.0318 298.203 67.9426 297.814 67.7642C297.424 67.5825 297.115 67.3199 296.887 66.9763C296.662 66.6328 296.55 66.2116 296.55 65.7128C296.55 65.2833 296.633 64.9299 296.798 64.6524C296.963 64.3749 297.186 64.1552 297.467 63.9933C297.747 63.8315 298.061 63.7092 298.408 63.6267C298.755 63.5441 299.108 63.4813 299.469 63.4384C299.924 63.3855 300.294 63.3426 300.579 63.3095C300.863 63.2732 301.069 63.2154 301.198 63.1361C301.327 63.0568 301.391 62.928 301.391 62.7496V62.7149C301.391 62.2822 301.269 61.9469 301.024 61.709C300.783 61.4712 300.423 61.3523 299.944 61.3523C299.445 61.3523 299.052 61.4629 298.765 61.6843C298.481 61.9023 298.284 62.1451 298.175 62.4127L296.783 62.0955C296.948 61.6331 297.189 61.2598 297.506 60.9757C297.827 60.6883 298.195 60.4802 298.611 60.3513C299.028 60.2192 299.465 60.1531 299.924 60.1531C300.228 60.1531 300.55 60.1895 300.891 60.2621C301.234 60.3315 301.555 60.4603 301.852 60.6486C302.153 60.8369 302.399 61.1062 302.59 61.4563C302.782 61.8032 302.878 62.2541 302.878 62.8091V67.8633H301.431V66.8227H301.371C301.276 67.0143 301.132 67.2026 300.94 67.3876C300.749 67.5726 300.503 67.7262 300.202 67.8484C299.901 67.9706 299.541 68.0318 299.122 68.0318ZM299.444 66.8425C299.853 66.8425 300.204 66.7616 300.494 66.5997C300.788 66.4379 301.011 66.2264 301.163 65.9655C301.318 65.7012 301.396 65.4188 301.396 65.1181V64.137C301.343 64.1899 301.241 64.2394 301.089 64.2857C300.94 64.3286 300.77 64.3666 300.579 64.3997C300.387 64.4294 300.2 64.4575 300.019 64.4839C299.837 64.507 299.685 64.5268 299.563 64.5434C299.275 64.5797 299.013 64.6408 298.775 64.7267C298.54 64.8126 298.352 64.9365 298.21 65.0983C298.071 65.2569 298.002 65.4683 298.002 65.7326C298.002 66.0993 298.137 66.3767 298.408 66.565C298.679 66.75 299.024 66.8425 299.444 66.8425ZM304.767 67.8633V60.2522H306.249V67.8633H304.767ZM305.516 59.0779C305.258 59.0779 305.037 58.992 304.852 58.8202C304.67 58.6451 304.579 58.437 304.579 58.1959C304.579 57.9514 304.67 57.7433 304.852 57.5715C305.037 57.3964 305.258 57.3089 305.516 57.3089C305.773 57.3089 305.993 57.3964 306.175 57.5715C306.36 57.7433 306.452 57.9514 306.452 58.1959C306.452 58.437 306.36 58.6451 306.175 58.8202C305.993 58.992 305.773 59.0779 305.516 59.0779ZM308.158 57.7152H309.64V65.7821C309.64 66.1092 309.681 66.3404 309.764 66.4758C309.85 66.6113 310.012 66.6757 310.249 66.6691C310.378 66.6658 310.474 66.6575 310.537 66.6443C310.603 66.6311 310.662 66.6162 310.715 66.5997L310.983 67.784C310.88 67.8137 310.75 67.8418 310.591 67.8682C310.436 67.898 310.259 67.9145 310.061 67.9178C309.42 67.9277 308.943 67.7757 308.629 67.4619C308.315 67.1481 308.158 66.6906 308.158 66.0894V57.7152Z" fill="#454953"/>
</g>
<rect x="9.43605" y="9.32228" width="545.848" height="82.8495" rx="6.54075" stroke="#EDEDED" stroke-width="0.8721"/>
</g>
<defs>
<filter id="filter0_d_2382_1454" x="0.278999" y="0.16523" width="564.162" height="101.164" filterUnits="userSpaceOnUse" color-interpolation-filters="sRGB">
<feFlood flood-opacity="0" result="BackgroundImageFix"/>
<feColorMatrix in="SourceAlpha" type="matrix" values="0 0 0 0 0 0 0 0 0 0 0 0 0 0 0 0 0 0 127 0" result="hardAlpha"/>
<feOffset/>
<feGaussianBlur stdDeviation="4.3605"/>
<feColorMatrix type="matrix" values="0 0 0 0 0.74902 0 0 0 0 0.74902 0 0 0 0 0.74902 0 0 0 0.5 0"/>
<feBlend mode="normal" in2="BackgroundImageFix" result="effect1_dropShadow_2382_1454"/>
<feBlend mode="normal" in="SourceGraphic" in2="effect1_dropShadow_2382_1454" result="shape"/>
</filter>
<clipPath id="clip0_2382_1454">
<rect x="9" y="8.88623" width="546.72" height="83.7216" rx="6.9768" fill="white"/>
</clipPath>
<clipPath id="clip1_2382_1454">
<rect width="20.9306" height="20.9305" fill="white" transform="translate(40.3954 40.2817)"/>
</clipPath>
</defs>
</svg>
