<svg width="97" height="24" viewBox="0 0 97 24" fill="none" xmlns="http://www.w3.org/2000/svg">
<path d="M0.788387 23.1097V5.328H3.95639V6.8609H4.41626C4.70581 6.36697 5.15716 5.93264 5.77032 5.55793C6.38349 5.16619 7.26065 4.97032 8.40181 4.97032C9.42374 4.97032 10.369 5.2258 11.2377 5.73677C12.1063 6.23071 12.8046 6.96309 13.3326 7.93393C13.8606 8.90477 14.1246 10.08 14.1246 11.4596V11.8684C14.1246 13.248 13.8606 14.4232 13.3326 15.3941C12.8046 16.3649 12.1063 17.1058 11.2377 17.6168C10.369 18.1107 9.42374 18.3577 8.40181 18.3577C7.63536 18.3577 6.98813 18.264 6.46013 18.0766C5.94916 17.9063 5.53187 17.6849 5.20826 17.4124C4.90168 17.1228 4.65471 16.8333 4.46736 16.5437H4.00748V23.1097H0.788387ZM7.43097 15.5474C8.43587 15.5474 9.26194 15.2323 9.90916 14.6021C10.5734 13.9548 10.9056 13.0181 10.9056 11.7917V11.5363C10.9056 10.3099 10.5734 9.38168 9.90916 8.75148C9.2449 8.10426 8.41884 7.78064 7.43097 7.78064C6.4431 7.78064 5.61703 8.10426 4.95278 8.75148C4.28852 9.38168 3.95639 10.3099 3.95639 11.5363V11.7917C3.95639 13.0181 4.28852 13.9548 4.95278 14.6021C5.61703 15.2323 6.4431 15.5474 7.43097 15.5474ZM16.5184 18V0.116126H19.7375V18H16.5184ZM27.5713 18.2044C26.5834 18.2044 25.7148 17.983 24.9653 17.5401C24.233 17.0803 23.6624 16.4501 23.2536 15.6495C22.8448 14.849 22.6404 13.9293 22.6404 12.8903V5.328H25.8595V12.6348C25.8595 13.5886 26.0895 14.304 26.5493 14.7809C27.0263 15.2578 27.699 15.4963 28.5677 15.4963C29.5555 15.4963 30.322 15.1726 30.867 14.5254C31.4121 13.8612 31.6846 12.9414 31.6846 11.7662V5.328H34.9037V18H31.7357V16.3394H31.2758C31.0714 16.7652 30.6882 17.1825 30.1261 17.5912C29.5641 18 28.7124 18.2044 27.5713 18.2044ZM37.9238 18V5.328H41.0918V6.70761H41.5516C41.7731 6.2818 42.1393 5.91561 42.6502 5.60903C43.1612 5.28542 43.834 5.12361 44.6685 5.12361C45.5713 5.12361 46.2951 5.30245 46.8402 5.66013C47.3852 6.00077 47.8025 6.45213 48.092 7.01419H48.5519C48.8414 6.46916 49.2502 6.01781 49.7782 5.66013C50.3062 5.30245 51.0556 5.12361 52.0265 5.12361C52.81 5.12361 53.5168 5.29393 54.147 5.63458C54.7942 5.95819 55.3052 6.46064 55.6799 7.14193C56.0716 7.80619 56.2675 8.64929 56.2675 9.67122V18H53.0484V9.90116C53.0484 9.20284 52.8696 8.68335 52.5119 8.34271C52.1542 7.98503 51.6518 7.80619 51.0045 7.80619C50.2722 7.80619 49.7016 8.04464 49.2928 8.52155C48.9011 8.98142 48.7052 9.64568 48.7052 10.5143V18H45.4861V9.90116C45.4861 9.20284 45.3073 8.68335 44.9496 8.34271C44.5919 7.98503 44.0894 7.80619 43.4422 7.80619C42.7098 7.80619 42.1393 8.04464 41.7305 8.52155C41.3387 8.98142 41.1429 9.64568 41.1429 10.5143V18H37.9238ZM66.7811 18.3577C65.6399 18.3577 64.7628 18.1618 64.1496 17.7701C63.5364 17.3783 63.0851 16.944 62.7955 16.4671H62.3357V18H59.1677V0.116126H62.3868V6.78426H62.8466C63.034 6.47768 63.2809 6.18813 63.5875 5.91561C63.9111 5.6431 64.3284 5.42168 64.8394 5.25135C65.3674 5.064 66.0146 4.97032 66.7811 4.97032C67.803 4.97032 68.7483 5.2258 69.6169 5.73677C70.4856 6.23071 71.1839 6.96309 71.7119 7.93393C72.2399 8.90477 72.5039 10.08 72.5039 11.4596V11.8684C72.5039 13.248 72.2399 14.4232 71.7119 15.3941C71.1839 16.3649 70.4856 17.1058 69.6169 17.6168C68.7483 18.1107 67.803 18.3577 66.7811 18.3577ZM65.8102 15.5474C66.7981 15.5474 67.6242 15.2323 68.2884 14.6021C68.9527 13.9548 69.2848 13.0181 69.2848 11.7917V11.5363C69.2848 10.3099 68.9527 9.38168 68.2884 8.75148C67.6412 8.10426 66.8151 7.78064 65.8102 7.78064C64.8224 7.78064 63.9963 8.10426 63.332 8.75148C62.6678 9.38168 62.3357 10.3099 62.3357 11.5363V11.7917C62.3357 13.0181 62.6678 13.9548 63.332 14.6021C63.9963 15.2323 64.8224 15.5474 65.8102 15.5474ZM80.6716 18.3577C79.4112 18.3577 78.2956 18.0937 77.3248 17.5657C76.371 17.0206 75.6215 16.2627 75.0765 15.2919C74.5485 14.304 74.2845 13.1458 74.2845 11.8173V11.5107C74.2845 10.1822 74.5485 9.03251 75.0765 8.06168C75.6045 7.0738 76.3454 6.31587 77.2992 5.78787C78.253 5.24284 79.3601 4.97032 80.6205 4.97032C81.8639 4.97032 82.9454 5.25135 83.8652 5.81342C84.7849 6.35845 85.5003 7.1249 86.0112 8.11277C86.5222 9.08361 86.7777 10.2163 86.7777 11.5107V12.6093H77.5547C77.5888 13.4779 77.9124 14.1848 78.5255 14.7298C79.1387 15.2748 79.8881 15.5474 80.7738 15.5474C81.6765 15.5474 82.3408 15.3515 82.7666 14.9597C83.1924 14.568 83.516 14.1337 83.7374 13.6568L86.3689 15.0364C86.1305 15.4792 85.7813 15.9646 85.3214 16.4926C84.8786 17.0036 84.2825 17.4465 83.533 17.8212C82.7836 18.1788 81.8298 18.3577 80.6716 18.3577ZM77.5803 10.2077H83.5075C83.4394 9.47535 83.1413 8.88774 82.6133 8.4449C82.1023 8.00206 81.4296 7.78064 80.595 7.78064C79.7263 7.78064 79.0365 8.00206 78.5255 8.4449C78.0146 8.88774 77.6995 9.47535 77.5803 10.2077ZM89.0808 18V5.328H92.2488V6.75871H92.7087C92.8961 6.24774 93.2026 5.87303 93.6284 5.63458C94.0713 5.39613 94.5823 5.2769 95.1613 5.2769H96.6943V8.13832H95.1103C94.2927 8.13832 93.6199 8.35974 93.0919 8.80258C92.5639 9.22839 92.2999 9.89264 92.2999 10.7954V18H89.0808Z" fill="black"/>
</svg>
