<svg width="565" height="102" viewBox="0 0 565 102" fill="none" xmlns="http://www.w3.org/2000/svg">
<g filter="url(#filter0_d_2382_1450)">
<rect x="9" y="9.44336" width="546.72" height="83.7216" rx="6.9768" fill="white"/>
<rect x="9.43605" y="9.87941" width="545.848" height="82.8495" rx="6.54075" stroke="#EDEDED" stroke-width="0.8721"/>
<rect x="23.3896" y="23.833" width="54.9423" height="54.9423" rx="3.05235" stroke="#BFC2C8" stroke-width="0.8721"/>
<path d="M62.4888 46.6518C62.4886 46.4443 62.4328 46.2406 62.3273 46.0619C62.2218 45.8832 62.0704 45.736 61.8888 45.6355L51.398 39.8215C51.2257 39.7266 51.032 39.6768 50.8352 39.6768C50.6384 39.6768 50.4448 39.7266 50.2724 39.8215L39.8328 45.589C39.6515 45.6894 39.5002 45.8365 39.3948 46.015C39.2894 46.1935 39.2337 46.397 39.2333 46.6043C39.233 46.8116 39.288 47.0152 39.3928 47.1941C39.4976 47.373 39.6483 47.5206 39.8293 47.6216L50.3201 53.4821C50.4928 53.5791 50.6876 53.6302 50.8857 53.6304C51.0838 53.6306 51.2786 53.58 51.4515 53.4833L61.8911 47.6693C62.0725 47.5684 62.2235 47.4209 62.3286 47.242C62.4337 47.0631 62.489 46.8593 62.4888 46.6518ZM50.8876 51.1344L42.791 46.6123L50.8341 42.1681L58.9318 46.6553L50.8876 51.1344Z" fill="#CF1A68"/>
<path d="M60.7621 50.2879L50.8608 55.7879L40.9596 50.2879L39.8305 52.3205L50.2957 58.1345C50.4684 58.2304 50.6627 58.2807 50.8602 58.2807C51.0578 58.2807 51.2521 58.2304 51.4248 58.1345L61.89 52.3205L60.7621 50.2879Z" fill="#CF1A68"/>
<path d="M60.7621 54.9391L50.8608 60.4391L40.9596 54.9391L39.8305 56.9717L50.2957 62.7857C50.4684 62.8816 50.6627 62.9319 50.8602 62.9319C51.0578 62.9319 51.2521 62.8816 51.4248 62.7857L61.89 56.9717L60.7621 54.9391Z" fill="#CF1A68"/>
<path d="M93.3113 34.2623V33.3084H99.9709V34.2623H97.1787V42.188H96.1035V34.2623H93.3113ZM102.442 38.1818V42.188H101.418V33.3084H102.442V36.5689H102.528C102.684 36.2249 102.919 35.9518 103.231 35.7494C103.546 35.5442 103.965 35.4416 104.488 35.4416C104.942 35.4416 105.339 35.5327 105.68 35.7148C106.022 35.894 106.286 36.17 106.474 36.5429C106.665 36.9129 106.76 37.384 106.76 37.9563V42.188H105.737V38.0257C105.737 37.4967 105.6 37.0877 105.325 36.7987C105.053 36.5067 104.676 36.3608 104.193 36.3608C103.858 36.3608 103.557 36.4316 103.291 36.5732C103.028 36.7149 102.82 36.9215 102.667 37.1932C102.517 37.4649 102.442 37.7945 102.442 38.1818ZM111.351 42.3267C110.709 42.3267 110.156 42.1851 109.69 41.9018C109.228 41.6157 108.871 41.2168 108.619 40.7052C108.371 40.1907 108.247 39.5923 108.247 38.9102C108.247 38.228 108.371 37.6268 108.619 37.1065C108.871 36.5833 109.221 36.1758 109.669 35.8838C110.12 35.589 110.646 35.4416 111.247 35.4416C111.594 35.4416 111.936 35.4994 112.274 35.615C112.613 35.7306 112.92 35.9185 113.198 36.1787C113.475 36.4359 113.697 36.777 113.861 37.2019C114.026 37.6268 114.108 38.15 114.108 38.7714V39.205H108.975V38.3205H113.068C113.068 37.9448 112.993 37.6095 112.842 37.3146C112.695 37.0198 112.484 36.7871 112.209 36.6166C111.938 36.446 111.617 36.3608 111.247 36.3608C110.839 36.3608 110.487 36.4619 110.189 36.6643C109.894 36.8637 109.667 37.1239 109.508 37.4447C109.349 37.7655 109.27 38.1095 109.27 38.4766V39.0663C109.27 39.5692 109.357 39.9956 109.53 40.3453C109.706 40.6922 109.951 40.9566 110.263 41.1387C110.575 41.318 110.938 41.4076 111.351 41.4076C111.62 41.4076 111.863 41.37 112.079 41.2948C112.299 41.2168 112.488 41.1012 112.647 40.948C112.806 40.7919 112.929 40.5982 113.016 40.367L114.004 40.6445C113.9 40.9798 113.725 41.2746 113.48 41.529C113.234 41.7804 112.931 41.977 112.569 42.1186C112.208 42.2574 111.802 42.3267 111.351 42.3267ZM116.615 38.1818V42.188H115.592V35.5283H116.58V36.5689H116.667C116.823 36.2307 117.06 35.959 117.378 35.7538C117.696 35.5457 118.106 35.4416 118.609 35.4416C119.06 35.4416 119.455 35.5341 119.793 35.7191C120.131 35.9012 120.394 36.1787 120.582 36.5515C120.77 36.9215 120.864 37.3898 120.864 37.9563V42.188H119.841V38.0257C119.841 37.5025 119.705 37.095 119.433 36.803C119.161 36.5082 118.789 36.3608 118.315 36.3608C117.988 36.3608 117.696 36.4316 117.439 36.5732C117.184 36.7149 116.984 36.9215 116.836 37.1932C116.689 37.4649 116.615 37.7945 116.615 38.1818Z" fill="#686868"/>
<path d="M99.3714 60.9382C99.3185 60.4691 99.1005 60.1057 98.7173 59.8481C98.3341 59.5871 97.8518 59.4566 97.2704 59.4566C96.8542 59.4566 96.4941 59.5227 96.1902 59.6548C95.8863 59.7836 95.6501 59.962 95.4816 60.19C95.3164 60.4146 95.2338 60.6706 95.2338 60.958C95.2338 61.1992 95.29 61.4073 95.4023 61.5824C95.5179 61.7574 95.6682 61.9044 95.8532 62.0234C96.0415 62.139 96.243 62.2364 96.4578 62.3157C96.6725 62.3917 96.8789 62.4545 97.0771 62.504L98.0682 62.7617C98.3919 62.841 98.7239 62.9483 99.0641 63.0838C99.4044 63.2192 99.7199 63.3976 100.011 63.6189C100.301 63.8402 100.536 64.1144 100.714 64.4415C100.896 64.7685 100.987 65.1599 100.987 65.6158C100.987 66.1906 100.838 66.701 100.541 67.1469C100.247 67.5929 99.819 67.9447 99.2574 68.2024C98.6991 68.4601 98.0236 68.5889 97.2308 68.5889C96.471 68.5889 95.8136 68.4683 95.2586 68.2272C94.7036 67.986 94.2693 67.6441 93.9554 67.2015C93.6416 66.7555 93.4682 66.2269 93.4351 65.6158H94.9712C95.001 65.9825 95.1199 66.2881 95.328 66.5325C95.5394 66.7737 95.8086 66.9537 96.1357 67.0726C96.466 67.1882 96.8277 67.246 97.2208 67.246C97.6536 67.246 98.0384 67.1783 98.3754 67.0429C98.7156 66.9041 98.9832 66.7125 99.1781 66.4681C99.373 66.2203 99.4705 65.9313 99.4705 65.6009C99.4705 65.3003 99.3846 65.0542 99.2128 64.8626C99.0443 64.671 98.8147 64.5125 98.524 64.3869C98.2366 64.2614 97.9113 64.1508 97.5479 64.055L96.3487 63.7279C95.5361 63.5066 94.8919 63.1812 94.4163 62.7518C93.9439 62.3223 93.7077 61.7541 93.7077 61.0472C93.7077 60.4625 93.8662 59.9521 94.1834 59.5161C94.5005 59.08 94.9299 58.7414 95.4717 58.5003C96.0135 58.2558 96.6246 58.1336 97.3051 58.1336C97.9922 58.1336 98.5984 58.2542 99.1236 58.4953C99.6522 58.7365 100.068 59.0685 100.372 59.4913C100.676 59.9108 100.835 60.3931 100.848 60.9382H99.3714ZM106.167 60.8094V61.9986H102.009V60.8094H106.167ZM103.124 58.9859H104.606V66.1857C104.606 66.4731 104.649 66.6894 104.735 66.8348C104.82 66.9768 104.931 67.0743 105.067 67.1271C105.205 67.1767 105.356 67.2015 105.517 67.2015C105.636 67.2015 105.74 67.1932 105.83 67.1767C105.919 67.1602 105.988 67.1469 106.038 67.137L106.305 68.3609C106.219 68.394 106.097 68.427 105.939 68.4601C105.78 68.4964 105.582 68.5162 105.344 68.5195C104.954 68.5261 104.591 68.4567 104.254 68.3114C103.917 68.166 103.644 67.9414 103.436 67.6375C103.228 67.3336 103.124 66.952 103.124 66.4929V58.9859ZM110.846 68.574C110.132 68.574 109.51 68.4105 108.978 68.0835C108.446 67.7564 108.033 67.2989 107.739 66.7109C107.445 66.1229 107.298 65.4358 107.298 64.6496C107.298 63.8601 107.445 63.1696 107.739 62.5783C108.033 61.987 108.446 61.5278 108.978 61.2008C109.51 60.8738 110.132 60.7103 110.846 60.7103C111.56 60.7103 112.182 60.8738 112.714 61.2008C113.246 61.5278 113.659 61.987 113.953 62.5783C114.247 63.1696 114.394 63.8601 114.394 64.6496C114.394 65.4358 114.247 66.1229 113.953 66.7109C113.659 67.2989 113.246 67.7564 112.714 68.0835C112.182 68.4105 111.56 68.574 110.846 68.574ZM110.851 67.3303C111.313 67.3303 111.697 67.2081 112.001 66.9636C112.304 66.7192 112.529 66.3938 112.674 65.9874C112.823 65.5811 112.897 65.1335 112.897 64.6446C112.897 64.159 112.823 63.7131 112.674 63.3067C112.529 62.8971 112.304 62.5684 112.001 62.3207C111.697 62.0729 111.313 61.949 110.851 61.949C110.385 61.949 109.999 62.0729 109.691 62.3207C109.388 62.5684 109.161 62.8971 109.013 63.3067C108.867 63.7131 108.795 64.159 108.795 64.6446C108.795 65.1335 108.867 65.5811 109.013 65.9874C109.161 66.3938 109.388 66.7192 109.691 66.9636C109.999 67.2081 110.385 67.3303 110.851 67.3303ZM115.964 68.4204V60.8094H117.396V62.0184H117.475C117.614 61.6088 117.858 61.2867 118.209 61.0522C118.562 60.8143 118.962 60.6954 119.408 60.6954C119.5 60.6954 119.609 60.6987 119.735 60.7053C119.864 60.7119 119.964 60.7202 120.037 60.7301V62.1472C119.978 62.1307 119.872 62.1125 119.72 62.0927C119.568 62.0696 119.416 62.058 119.264 62.058C118.914 62.058 118.602 62.1324 118.327 62.281C118.057 62.4264 117.842 62.6295 117.683 62.8905C117.525 63.1482 117.445 63.4422 117.445 63.7725V68.4204H115.964ZM124.243 68.574C123.493 68.574 122.847 68.4138 122.306 68.0934C121.767 67.7696 121.351 67.3154 121.057 66.7307C120.766 66.1427 120.621 65.4539 120.621 64.6644C120.621 63.8848 120.766 63.1977 121.057 62.6031C121.351 62.0085 121.761 61.5444 122.286 61.2107C122.814 60.8771 123.432 60.7103 124.139 60.7103C124.569 60.7103 124.985 60.7813 125.388 60.9233C125.791 61.0654 126.153 61.2883 126.473 61.5923C126.793 61.8962 127.046 62.2909 127.231 62.7765C127.416 63.2588 127.509 63.8452 127.509 64.5356V65.0608H121.458V63.9509H126.057C126.057 63.5611 125.977 63.2159 125.819 62.9153C125.66 62.6114 125.437 62.3719 125.15 62.1968C124.866 62.0217 124.532 61.9342 124.149 61.9342C123.733 61.9342 123.369 62.0366 123.059 62.2414C122.752 62.4429 122.514 62.7072 122.345 63.0342C122.18 63.3579 122.098 63.7097 122.098 64.0896V64.9568C122.098 65.4655 122.187 65.8983 122.365 66.255C122.547 66.6118 122.8 66.8843 123.123 67.0726C123.447 67.2576 123.825 67.3501 124.258 67.3501C124.539 67.3501 124.795 67.3105 125.026 67.2312C125.257 67.1486 125.457 67.0264 125.626 66.8645C125.794 66.7026 125.923 66.5028 126.012 66.2649L127.414 66.5176C127.302 66.9306 127.101 67.2923 126.81 67.6028C126.522 67.91 126.161 68.1495 125.725 68.3213C125.292 68.4898 124.798 68.574 124.243 68.574ZM135.527 68.5691C134.913 68.5691 134.364 68.4122 133.882 68.0983C133.403 67.7812 133.026 67.3303 132.752 66.7456C132.481 66.1576 132.346 65.4523 132.346 64.6297C132.346 63.8072 132.483 63.1036 132.757 62.5189C133.035 61.9342 133.414 61.4866 133.897 61.176C134.379 60.8655 134.926 60.7103 135.537 60.7103C136.009 60.7103 136.389 60.7895 136.677 60.9481C136.967 61.1034 137.192 61.285 137.35 61.4932C137.512 61.7013 137.638 61.8846 137.727 62.0432H137.816V58.2723H139.298V68.4204H137.851V67.2361H137.727C137.638 67.398 137.509 67.583 137.341 67.7911C137.175 67.9992 136.947 68.1809 136.657 68.3362C136.366 68.4914 135.989 68.5691 135.527 68.5691ZM135.854 67.3055C136.28 67.3055 136.64 67.1932 136.934 66.9686C137.232 66.7406 137.456 66.4252 137.608 66.0221C137.763 65.6191 137.841 65.15 137.841 64.6149C137.841 64.0863 137.765 63.6239 137.613 63.2275C137.461 62.831 137.238 62.5222 136.944 62.3008C136.65 62.0795 136.287 61.9689 135.854 61.9689C135.408 61.9689 135.036 62.0845 134.739 62.3157C134.442 62.5469 134.217 62.8624 134.065 63.2621C133.917 63.6618 133.842 64.1128 133.842 64.6149C133.842 65.1236 133.918 65.5811 134.07 65.9874C134.222 66.3938 134.447 66.7159 134.744 66.9537C135.045 67.1882 135.415 67.3055 135.854 67.3055ZM143.544 68.5889C143.061 68.5889 142.625 68.4997 142.235 68.3213C141.846 68.1396 141.537 67.877 141.309 67.5334C141.084 67.1899 140.972 66.7687 140.972 66.2699C140.972 65.8404 141.055 65.487 141.22 65.2095C141.385 64.932 141.608 64.7123 141.889 64.5505C142.169 64.3886 142.483 64.2664 142.83 64.1838C143.177 64.1012 143.53 64.0384 143.89 63.9955C144.346 63.9426 144.716 63.8997 145 63.8667C145.285 63.8303 145.491 63.7725 145.62 63.6932C145.749 63.6139 145.813 63.4851 145.813 63.3067V63.272C145.813 62.8393 145.691 62.504 145.446 62.2662C145.205 62.0283 144.845 61.9094 144.366 61.9094C143.867 61.9094 143.474 62.0201 143.187 62.2414C142.903 62.4594 142.706 62.7022 142.597 62.9698L141.205 62.6527C141.37 62.1902 141.611 61.8169 141.928 61.5328C142.249 61.2454 142.617 61.0373 143.033 60.9085C143.449 60.7763 143.887 60.7103 144.346 60.7103C144.65 60.7103 144.972 60.7466 145.313 60.8193C145.656 60.8886 145.977 61.0175 146.274 61.2058C146.575 61.3941 146.821 61.6633 147.012 62.0134C147.204 62.3603 147.3 62.8112 147.3 63.3662V68.4204H145.853V67.3798H145.793C145.697 67.5714 145.554 67.7597 145.362 67.9447C145.171 68.1297 144.924 68.2833 144.624 68.4055C144.323 68.5278 143.963 68.5889 143.544 68.5889ZM143.866 67.3997C144.275 67.3997 144.625 67.3187 144.916 67.1569C145.21 66.995 145.433 66.7836 145.585 66.5226C145.74 66.2583 145.818 65.9759 145.818 65.6753V64.6942C145.765 64.747 145.663 64.7966 145.511 64.8428C145.362 64.8858 145.192 64.9238 145 64.9568C144.809 64.9865 144.622 65.0146 144.441 65.041C144.259 65.0641 144.107 65.084 143.985 65.1005C143.697 65.1368 143.435 65.1979 143.197 65.2838C142.962 65.3697 142.774 65.4936 142.632 65.6555C142.493 65.814 142.424 66.0254 142.424 66.2897C142.424 66.6564 142.559 66.9339 142.83 67.1222C143.101 67.3072 143.446 67.3997 143.866 67.3997ZM152.742 60.8094V61.9986H148.585V60.8094H152.742ZM149.7 58.9859H151.181V66.1857C151.181 66.4731 151.224 66.6894 151.31 66.8348C151.396 66.9768 151.507 67.0743 151.642 67.1271C151.781 67.1767 151.931 67.2015 152.093 67.2015C152.212 67.2015 152.316 67.1932 152.405 67.1767C152.494 67.1602 152.564 67.1469 152.613 67.137L152.881 68.3609C152.795 68.394 152.673 68.427 152.514 68.4601C152.356 68.4964 152.157 68.5162 151.92 68.5195C151.53 68.5261 151.166 68.4567 150.829 68.3114C150.492 68.166 150.22 67.9414 150.012 67.6375C149.804 67.3336 149.7 66.952 149.7 66.4929V58.9859ZM156.512 68.5889C156.03 68.5889 155.594 68.4997 155.204 68.3213C154.814 68.1396 154.505 67.877 154.277 67.5334C154.053 67.1899 153.94 66.7687 153.94 66.2699C153.94 65.8404 154.023 65.487 154.188 65.2095C154.353 64.932 154.576 64.7123 154.857 64.5505C155.138 64.3886 155.452 64.2664 155.799 64.1838C156.146 64.1012 156.499 64.0384 156.859 63.9955C157.315 63.9426 157.685 63.8997 157.969 63.8667C158.253 63.8303 158.46 63.7725 158.588 63.6932C158.717 63.6139 158.782 63.4851 158.782 63.3067V63.272C158.782 62.8393 158.659 62.504 158.415 62.2662C158.174 62.0283 157.814 61.9094 157.335 61.9094C156.836 61.9094 156.443 62.0201 156.155 62.2414C155.871 62.4594 155.675 62.7022 155.566 62.9698L154.173 62.6527C154.339 62.1902 154.58 61.8169 154.897 61.5328C155.217 61.2454 155.586 61.0373 156.002 60.9085C156.418 60.7763 156.856 60.7103 157.315 60.7103C157.619 60.7103 157.941 60.7466 158.281 60.8193C158.625 60.8886 158.945 61.0175 159.242 61.2058C159.543 61.3941 159.789 61.6633 159.981 62.0134C160.172 62.3603 160.268 62.8112 160.268 63.3662V68.4204H158.821V67.3798H158.762C158.666 67.5714 158.522 67.7597 158.331 67.9447C158.139 68.1297 157.893 68.2833 157.592 68.4055C157.292 68.5278 156.932 68.5889 156.512 68.5889ZM156.834 67.3997C157.244 67.3997 157.594 67.3187 157.885 67.1569C158.179 66.995 158.402 66.7836 158.554 66.5226C158.709 66.2583 158.787 65.9759 158.787 65.6753V64.6942C158.734 64.747 158.631 64.7966 158.479 64.8428C158.331 64.8858 158.161 64.9238 157.969 64.9568C157.777 64.9865 157.591 65.0146 157.409 65.041C157.227 65.0641 157.075 65.084 156.953 65.1005C156.666 65.1368 156.403 65.1979 156.165 65.2838C155.931 65.3697 155.742 65.4936 155.6 65.6555C155.462 65.814 155.392 66.0254 155.392 66.2897C155.392 66.6564 155.528 66.9339 155.799 67.1222C156.07 67.3072 156.415 67.3997 156.834 67.3997ZM165.767 68.4204V60.8094H167.248V68.4204H165.767ZM166.515 59.635C166.257 59.635 166.036 59.5491 165.851 59.3773C165.669 59.2022 165.579 58.9941 165.579 58.753C165.579 58.5085 165.669 58.3004 165.851 58.1286C166.036 57.9536 166.257 57.866 166.515 57.866C166.773 57.866 166.992 57.9536 167.174 58.1286C167.359 58.3004 167.452 58.5085 167.452 58.753C167.452 58.9941 167.359 59.2022 167.174 59.3773C166.992 59.5491 166.773 59.635 166.515 59.635ZM170.64 63.9013V68.4204H169.158V60.8094H170.58V62.0481H170.674C170.849 61.6451 171.123 61.3214 171.497 61.0769C171.873 60.8325 172.347 60.7103 172.919 60.7103C173.438 60.7103 173.892 60.8193 174.282 61.0373C174.671 61.252 174.974 61.5724 175.188 61.9986C175.403 62.4247 175.51 62.9516 175.51 63.5793V68.4204H174.029V63.7576C174.029 63.206 173.885 62.7749 173.598 62.4644C173.31 62.1505 172.916 61.9936 172.413 61.9936C172.07 61.9936 171.764 62.068 171.497 62.2166C171.232 62.3653 171.023 62.5833 170.867 62.8707C170.716 63.1548 170.64 63.4983 170.64 63.9013ZM183.238 68.5889C182.755 68.5889 182.319 68.4997 181.93 68.3213C181.54 68.1396 181.231 67.877 181.003 67.5334C180.778 67.1899 180.666 66.7687 180.666 66.2699C180.666 65.8404 180.749 65.487 180.914 65.2095C181.079 64.932 181.302 64.7123 181.583 64.5505C181.863 64.3886 182.177 64.2664 182.524 64.1838C182.871 64.1012 183.224 64.0384 183.585 63.9955C184.04 63.9426 184.41 63.8997 184.694 63.8667C184.979 63.8303 185.185 63.7725 185.314 63.6932C185.443 63.6139 185.507 63.4851 185.507 63.3067V63.272C185.507 62.8393 185.385 62.504 185.14 62.2662C184.899 62.0283 184.539 61.9094 184.06 61.9094C183.561 61.9094 183.168 62.0201 182.881 62.2414C182.597 62.4594 182.4 62.7022 182.291 62.9698L180.899 62.6527C181.064 62.1902 181.305 61.8169 181.622 61.5328C181.943 61.2454 182.311 61.0373 182.727 60.9085C183.144 60.7763 183.581 60.7103 184.04 60.7103C184.344 60.7103 184.666 60.7466 185.007 60.8193C185.35 60.8886 185.671 61.0175 185.968 61.2058C186.269 61.3941 186.515 61.6633 186.706 62.0134C186.898 62.3603 186.994 62.8112 186.994 63.3662V68.4204H185.547V67.3798H185.487C185.392 67.5714 185.248 67.7597 185.056 67.9447C184.865 68.1297 184.619 68.2833 184.318 68.4055C184.017 68.5278 183.657 68.5889 183.238 68.5889ZM183.56 67.3997C183.969 67.3997 184.32 67.3187 184.61 67.1569C184.904 66.995 185.127 66.7836 185.279 66.5226C185.434 66.2583 185.512 65.9759 185.512 65.6753V64.6942C185.459 64.747 185.357 64.7966 185.205 64.8428C185.056 64.8858 184.886 64.9238 184.694 64.9568C184.503 64.9865 184.316 65.0146 184.135 65.041C183.953 65.0641 183.801 65.084 183.679 65.1005C183.391 65.1368 183.129 65.1979 182.891 65.2838C182.656 65.3697 182.468 65.4936 182.326 65.6555C182.187 65.814 182.118 66.0254 182.118 66.2897C182.118 66.6564 182.253 66.9339 182.524 67.1222C182.795 67.3072 183.14 67.3997 183.56 67.3997ZM196.045 60.8094V61.9986H191.888V60.8094H196.045ZM193.003 58.9859H194.484V66.1857C194.484 66.4731 194.527 66.6894 194.613 66.8348C194.699 66.9768 194.81 67.0743 194.945 67.1271C195.084 67.1767 195.234 67.2015 195.396 67.2015C195.515 67.2015 195.619 67.1932 195.708 67.1767C195.797 67.1602 195.867 67.1469 195.916 67.137L196.184 68.3609C196.098 68.394 195.976 68.427 195.817 68.4601C195.659 68.4964 195.461 68.5162 195.223 68.5195C194.833 68.5261 194.469 68.4567 194.133 68.3114C193.796 68.166 193.523 67.9414 193.315 67.6375C193.107 67.3336 193.003 66.952 193.003 66.4929V58.9859ZM199.815 68.5889C199.333 68.5889 198.897 68.4997 198.507 68.3213C198.117 68.1396 197.809 67.877 197.581 67.5334C197.356 67.1899 197.244 66.7687 197.244 66.2699C197.244 65.8404 197.326 65.487 197.491 65.2095C197.657 64.932 197.88 64.7123 198.16 64.5505C198.441 64.3886 198.755 64.2664 199.102 64.1838C199.449 64.1012 199.802 64.0384 200.162 63.9955C200.618 63.9426 200.988 63.8997 201.272 63.8667C201.556 63.8303 201.763 63.7725 201.892 63.6932C202.02 63.6139 202.085 63.4851 202.085 63.3067V63.272C202.085 62.8393 201.963 62.504 201.718 62.2662C201.477 62.0283 201.117 61.9094 200.638 61.9094C200.139 61.9094 199.746 62.0201 199.459 62.2414C199.174 62.4594 198.978 62.7022 198.869 62.9698L197.477 62.6527C197.642 62.1902 197.883 61.8169 198.2 61.5328C198.52 61.2454 198.889 61.0373 199.305 60.9085C199.721 60.7763 200.159 60.7103 200.618 60.7103C200.922 60.7103 201.244 60.7466 201.584 60.8193C201.928 60.8886 202.248 61.0175 202.546 61.2058C202.846 61.3941 203.092 61.6633 203.284 62.0134C203.476 62.3603 203.571 62.8112 203.571 63.3662V68.4204H202.124V67.3798H202.065C201.969 67.5714 201.825 67.7597 201.634 67.9447C201.442 68.1297 201.196 68.2833 200.896 68.4055C200.595 68.5278 200.235 68.5889 199.815 68.5889ZM200.137 67.3997C200.547 67.3997 200.897 67.3187 201.188 67.1569C201.482 66.995 201.705 66.7836 201.857 66.5226C202.012 66.2583 202.09 65.9759 202.09 65.6753V64.6942C202.037 64.747 201.934 64.7966 201.783 64.8428C201.634 64.8858 201.464 64.9238 201.272 64.9568C201.081 64.9865 200.894 65.0146 200.712 65.041C200.531 65.0641 200.379 65.084 200.256 65.1005C199.969 65.1368 199.706 65.1979 199.468 65.2838C199.234 65.3697 199.046 65.4936 198.904 65.6555C198.765 65.814 198.695 66.0254 198.695 66.2897C198.695 66.6564 198.831 66.9339 199.102 67.1222C199.373 67.3072 199.718 67.3997 200.137 67.3997ZM205.58 68.4204V58.2723H207.061V62.0432H207.151C207.237 61.8846 207.36 61.7013 207.522 61.4932C207.684 61.285 207.909 61.1034 208.196 60.9481C208.484 60.7895 208.863 60.7103 209.336 60.7103C209.95 60.7103 210.499 60.8655 210.981 61.176C211.463 61.4866 211.842 61.9342 212.116 62.5189C212.393 63.1036 212.532 63.8072 212.532 64.6297C212.532 65.4523 212.395 66.1576 212.121 66.7456C211.846 67.3303 211.47 67.7812 210.991 68.0983C210.512 68.4122 209.965 68.5691 209.351 68.5691C208.888 68.5691 208.51 68.4914 208.216 68.3362C207.925 68.1809 207.697 67.9992 207.532 67.7911C207.367 67.583 207.24 67.398 207.151 67.2361H207.027V68.4204H205.58ZM207.032 64.6149C207.032 65.15 207.109 65.6191 207.265 66.0221C207.42 66.4252 207.645 66.7406 207.939 66.9686C208.233 67.1932 208.593 67.3055 209.019 67.3055C209.461 67.3055 209.831 67.1882 210.129 66.9537C210.426 66.7159 210.651 66.3938 210.803 65.9874C210.958 65.5811 211.035 65.1236 211.035 64.6149C211.035 64.1128 210.959 63.6618 210.808 63.2621C210.659 62.8624 210.434 62.5469 210.134 62.3157C209.836 62.0845 209.465 61.9689 209.019 61.9689C208.589 61.9689 208.226 62.0795 207.929 62.3008C207.635 62.5222 207.412 62.831 207.26 63.2275C207.108 63.6239 207.032 64.0863 207.032 64.6149ZM214.112 58.2723H215.593V66.3393C215.593 66.6663 215.635 66.8975 215.717 67.033C215.803 67.1684 215.965 67.2328 216.203 67.2262C216.332 67.2229 216.428 67.2147 216.49 67.2015C216.556 67.1882 216.616 67.1734 216.669 67.1569L216.936 68.3411C216.834 68.3709 216.703 68.3989 216.545 68.4254C216.39 68.4551 216.213 68.4716 216.015 68.4749C215.374 68.4848 214.896 68.3329 214.583 68.019C214.269 67.7052 214.112 67.2477 214.112 66.6465V58.2723ZM221.11 68.574C220.36 68.574 219.715 68.4138 219.173 68.0934C218.634 67.7696 218.218 67.3154 217.924 66.7307C217.633 66.1427 217.488 65.4539 217.488 64.6644C217.488 63.8848 217.633 63.1977 217.924 62.6031C218.218 62.0085 218.628 61.5444 219.153 61.2107C219.682 60.8771 220.299 60.7103 221.006 60.7103C221.436 60.7103 221.852 60.7813 222.255 60.9233C222.658 61.0654 223.02 61.2883 223.34 61.5923C223.66 61.8962 223.913 62.2909 224.098 62.7765C224.283 63.2588 224.376 63.8452 224.376 64.5356V65.0608H218.325V63.9509H222.924C222.924 63.5611 222.845 63.2159 222.686 62.9153C222.527 62.6114 222.304 62.3719 222.017 62.1968C221.733 62.0217 221.399 61.9342 221.016 61.9342C220.6 61.9342 220.236 62.0366 219.926 62.2414C219.619 62.4429 219.381 62.7072 219.212 63.0342C219.047 63.3579 218.965 63.7097 218.965 64.0896V64.9568C218.965 65.4655 219.054 65.8983 219.232 66.255C219.414 66.6118 219.667 66.8843 219.99 67.0726C220.314 67.2576 220.692 67.3501 221.125 67.3501C221.406 67.3501 221.662 67.3105 221.893 67.2312C222.124 67.1486 222.324 67.0264 222.493 66.8645C222.661 66.7026 222.79 66.5028 222.879 66.2649L224.282 66.5176C224.169 66.9306 223.968 67.2923 223.677 67.6028C223.39 67.91 223.028 68.1495 222.592 68.3213C222.159 68.4898 221.665 68.574 221.11 68.574Z" fill="#454953"/>
</g>
<defs>
<filter id="filter0_d_2382_1450" x="0.278999" y="0.722359" width="614.831" height="101.164" filterUnits="userSpaceOnUse" color-interpolation-filters="sRGB">
<feFlood flood-opacity="0" result="BackgroundImageFix"/>
<feColorMatrix in="SourceAlpha" type="matrix" values="0 0 0 0 0 0 0 0 0 0 0 0 0 0 0 0 0 0 127 0" result="hardAlpha"/>
<feOffset/>
<feGaussianBlur stdDeviation="4.3605"/>
<feColorMatrix type="matrix" values="0 0 0 0 0.74902 0 0 0 0 0.74902 0 0 0 0 0.74902 0 0 0 0.5 0"/>
<feBlend mode="normal" in2="BackgroundImageFix" result="effect1_dropShadow_2382_1450"/>
<feBlend mode="normal" in="SourceGraphic" in2="effect1_dropShadow_2382_1450" result="shape"/>
</filter>
</defs>
</svg>
