<?xml version="1.0" encoding="UTF-8"?>
<svg width="35" height="58" fill="none" version="1.1" viewBox="0 0 35 58" xmlns="http://www.w3.org/2000/svg"><g clip-path="url(#a)"><path d="m29.174 0.25104-0.7487 0.31127-25.188 10.242c-2.4559 1.0079-3.3094 1.8527-3.3394 3.7056v1.4377c0.34442 2.1493 3.0998 3.6612 4.8518 3.5426l8.9698 0.0296c2.1116 0.2964 3.7737 2.001 3.9984 4.1207v19.402l14.031-5.7364c2.0666-0.6817 3.624-1.9119 3.8036-4.6541v-28.044c0-3.5722-3.2795-5.2916-6.3792-4.3578z" fill="#6288EA"/><path d="m7.0868 47.299-3.7137 1.5266c-2.4708 1.008-3.3993 2.2531-3.4292 4.5801 0 2.6977 2.2312 4.2245 5.5556 4.2245h7.5772c2.6057 0 4.7022-2.0901 4.7022-4.6543v-10.05l-10.692 4.3727z" fill="#153493"/><path d="m13.181 19.491h-0.1796l-8.1913-0.0296c-1.767 0.1185-4.5224-1.3933-4.8518-3.5425l0.044924 34.017v2.4605c0.14975-1.5712 1.9168-2.7125 3.3693-3.4833l14.406-5.9141v-18.854c0.015-2.5346-2.0365-4.595-4.5973-4.6543z" fill="#1E51D4"/><path d="m15.697 32.98-7.5024-5.9141c-1.1381-0.8893-1.3178-2.5199-0.4193-3.6464 0.89849-1.1264 2.5457-1.3043 3.6838-0.415l2.8452 2.253 6.6788-10.85c0.7488-1.2302 2.3661-1.6156 3.5939-0.8597 1.2429 0.7412 1.6323 2.342 0.8686 3.5574l-9.7486 15.875z" fill="#fff"/></g><defs><clipPath id="a"><rect width="35" height="58" fill="#fff"/></clipPath></defs></svg>
