<svg width="485" height="400" viewBox="0 0 485 400" fill="none" xmlns="http://www.w3.org/2000/svg">
<path fill-rule="evenodd" clip-rule="evenodd" d="M121.251 0C54.2859 0 0 53.2529 0 118.944V196.191V218.856V385.701C0 399.912 18.8621 405.393 26.7525 393.475L93.4309 334.654C102.364 336.712 111.678 337.8 121.251 337.8H363.753C430.718 337.8 485.003 284.547 485.003 218.856V118.944C485.003 53.2529 430.718 0 363.753 0H121.251Z" fill="#3A4A63"/>
<path d="M180.452 144.257C180.452 124.238 163.273 110.106 130.281 110.106H75.4236L76.0092 117.957L82.2563 118.742C88.6986 119.527 89.6747 120.508 89.6747 122.275V220.411C89.6747 222.57 87.9177 223.551 83.0372 224.14L76.0092 224.925L75.4236 232.776H132.623L132.038 224.925L122.667 224.14C116.81 223.551 115.444 222.57 115.444 220.804V183.708C119.544 184.101 124.424 184.493 128.719 184.493C156.05 184.493 180.452 170.165 180.452 144.257ZM152.536 147.594C152.536 164.67 142.384 176.054 127.743 176.054C123.448 176.054 119.348 175.465 115.444 174.68V118.349H126.376C142.97 118.349 152.536 129.929 152.536 147.594Z" fill="#F7F9FB"/>
<path d="M240.797 156.034C238.65 147.987 233.769 140.921 223.813 140.921C214.637 140.921 204.681 146.416 196.677 154.464C183.597 167.614 173.251 189.596 173.251 209.224C173.251 226.496 183.012 235.72 195.311 235.72C208.976 235.72 217.761 218.841 232.793 193.522H234.745C230.646 205.887 223.813 223.944 223.813 227.869C223.813 231.402 236.502 235.917 241.383 235.917C251.534 235.917 262.857 226.103 268.714 216.289L265.395 212.168L250.949 222.178L245.678 220.411L256.024 176.446L267.738 140.921H247.63L242.359 156.034H240.797ZM238.064 168.203L233.574 183.708C219.128 206.868 212.295 218.448 204.876 218.448C198.825 218.448 194.92 212.756 194.92 202.943C194.92 187.241 202.534 164.081 210.343 156.23C212.49 154.071 214.052 153.09 216.785 153.09C223.618 153.09 233.574 160.548 238.064 168.203Z" fill="#F7F9FB"/>
<path d="M326.171 110.695C326.171 103.629 321.486 97.3483 313.287 97.3483C306.454 97.3483 300.012 105.003 300.012 114.62C300.012 121.686 304.697 127.771 312.896 127.771C319.729 127.771 326.171 120.312 326.171 110.695ZM318.753 216.289L315.434 212.168L300.988 222.178L295.717 220.411L315.239 148.968C316.215 145.828 300.792 140.724 295.912 140.724C285.76 140.724 275.414 154.464 270.533 165.259L274.438 169.577L287.127 155.445L292.984 156.623L274.242 227.673C273.462 230.421 286.737 235.917 291.617 235.917C301.769 235.917 312.896 226.103 318.753 216.289Z" fill="#F7F9FB"/>
<path d="M399.042 154.66C399.042 146.22 393.771 140.921 385.181 140.921C375.03 140.921 367.807 150.734 359.022 165.455H358.046V140.921L323.101 150.538L322.906 156.623L326.81 157.8C333.643 159.567 335.205 161.333 335.205 173.698V220.804C335.205 223.159 333.253 224.14 328.567 224.533L324.077 225.122L323.491 232.776H372.687L372.102 225.122L365.464 224.533C359.217 224.14 358.046 222.963 358.046 221V177.624C362.926 169.38 370.149 163.1 375.225 159.763C377.763 164.081 381.667 167.614 387.524 167.614C394.747 167.614 399.042 161.529 399.042 154.66Z" fill="#F7F9FB"/>
<path fill-rule="evenodd" clip-rule="evenodd" d="M417.283 280.224L417.283 53.8892L423.283 53.8892L423.283 280.224L417.283 280.224Z" fill="#94A5C0"/>
</svg>
