<?xml version="1.0" encoding="UTF-8"?>
<svg enable-background="new 0 0 2289.75 2130" version="1.1" viewBox="0 0 2289.8 2130" xml:space="preserve" xmlns="http://www.w3.org/2000/svg">
<path d="m1437.8 1011.8-905.25-159.75v1180.4c0 53.907 43.7 97.607 97.607 97.607h1562c53.907 0 97.607-43.7 97.607-97.607v-434.89l-852-585.75z" fill="#185C37"/>
<path d="m1437.8 0h-807.64c-53.907 0-97.607 43.7-97.607 97.607v434.89l905.25 532.5 479.25 159.75 372.75-159.75v-532.5l-852-532.5z" fill="#21A366"/>
<path d="M532.5,532.5h905.25V1065H532.5V532.5z" fill="#107C41"/>
<path d="m1180.4 426h-647.89v1331.2h647.89c53.834-0.175 97.432-43.773 97.607-97.607v-1136c-0.175-53.834-43.773-97.432-97.607-97.607z" enable-background="new    " opacity=".1"/>
<path d="m1127.1 479.25h-594.64v1331.2h594.64c53.834-0.175 97.432-43.773 97.607-97.607v-1136c-0.175-53.834-43.773-97.432-97.607-97.607z" enable-background="new    " opacity=".2"/>
<path d="m1127.1 479.25h-594.64v1224.8h594.64c53.834-0.175 97.432-43.773 97.607-97.607v-1029.5c-0.175-53.834-43.773-97.432-97.607-97.607z" enable-background="new    " opacity=".2"/>
<path d="m1073.9 479.25h-541.39v1224.8h541.39c53.834-0.175 97.432-43.773 97.607-97.607v-1029.5c-0.175-53.834-43.773-97.432-97.607-97.607z" enable-background="new    " opacity=".2"/>
<linearGradient id="a" x1="203.51" x2="967.99" y1="1729" y2="404.98" gradientTransform="matrix(1 0 0 -1 0 2132)" gradientUnits="userSpaceOnUse">
	<stop stop-color="#18884F" offset="0"/>
	<stop stop-color="#117E43" offset=".5"/>
	<stop stop-color="#0B6631" offset="1"/>
</linearGradient>
<path d="M97.607,479.25h976.285c53.907,0,97.607,43.7,97.607,97.607v976.285  c0,53.907-43.7,97.607-97.607,97.607H97.607C43.7,1650.75,0,1607.05,0,1553.143V576.857C0,522.95,43.7,479.25,97.607,479.25z" fill="url(#a)"/>
<path d="m302.3 1382.3 205.33-318.17-188.13-316.41h151.34l102.67 202.35c9.479 19.223 15.975 33.494 19.49 42.919h1.331c6.745-15.336 13.845-30.228 21.3-44.677l109.75-200.48h138.93l-192.92 314.55 197.82 319.92h-147.82l-118.59-222.1c-5.586-9.45-10.326-19.376-14.164-29.66h-1.757c-3.474 10.075-8.083 19.722-13.739 28.755l-122.1 223.01h-148.73z" fill="#fff"/>
<path d="m2192.1 0h-754.39v532.5h852v-434.89c0-53.907-43.7-97.607-97.607-97.607z" fill="#33C481"/>
<path d="M1437.75,1065h852v532.5h-852V1065z" fill="#107C41"/>
</svg>
