<svg width="23" height="31" viewBox="0 0 23 31" fill="none" xmlns="http://www.w3.org/2000/svg">
<path d="M0 0H12.7179V6.35897H0V0Z" fill="#CF1A68"/>
<path d="M0 19.5671C0 15.6673 3.16137 12.506 7.06111 12.506L12.6738 12.506V18.3281H10.4084C9.02347 18.3281 7.81581 19.0871 7.17866 20.2118L7.06111 20.437C6.829 20.9216 6.699 21.4644 6.699 22.0375V31H0V19.5671Z" fill="#CF1A68"/>
<path d="M13.4642 0.0132608C18.4639 0.0132608 22.5169 4.14798 22.5169 9.14765C22.5169 14.1473 18.4639 18.2821 13.4642 18.2821V12.6187H13.6175C15.3327 12.6187 16.7232 11.2283 16.7232 9.51302C16.7232 7.71314 15.2641 6.22464 13.4642 6.22464V0.0132608Z" fill="#CF1A68"/>
</svg>
